<svg xmlns="http://www.w3.org/2000/svg" xmlns:xlink="http://www.w3.org/1999/xlink" width="500" zoomAndPan="magnify" viewBox="0 0 375 374.999991" height="500" preserveAspectRatio="xMidYMid meet" version="1.0"><defs><clipPath id="7888bf1ba7"><path d="M 10.519531 26 L 364 26 L 364 351.890625 L 10.519531 351.890625 Z M 10.519531 26 " clip-rule="nonzero"/></clipPath></defs><path fill="#000000" d="M 199.550781 69.695312 C 207.054688 64.695312 214.113281 58.984375 221.269531 53.492188 C 227.613281 48.644531 233.722656 43.171875 240.820312 39.445312 C 247.28125 36.054688 254.566406 35.011719 261.371094 38.019531 C 264.453125 39.445312 267.199219 41.355469 269.605469 43.753906 C 272.011719 46.148438 273.933594 48.886719 275.371094 51.964844 C 279.355469 60.269531 279.269531 69.101562 278.742188 78.054688 C 278.632812 79.761719 282.613281 77.992188 282.851562 76.808594 C 283.425781 73.914062 283.707031 70.992188 283.691406 68.046875 C 288.28125 66.46875 292.734375 64.789062 297.636719 64.160156 C 300.40625 63.816406 303.183594 63.707031 305.96875 63.832031 C 306.863281 63.867188 307.746094 63.953125 308.632812 64.054688 L 308.011719 64.21875 C 305.859375 64.808594 303.78125 65.589844 301.773438 66.558594 C 297.871094 68.429688 294.109375 70.988281 291.449219 74.449219 C 291.058594 74.972656 292.042969 74.808594 292.253906 74.628906 C 295.164062 71.992188 298.363281 69.78125 301.851562 67.988281 C 305.578125 66.21875 309.445312 65.847656 313.339844 64.710938 C 313.535156 64.621094 313.71875 64.511719 313.890625 64.382812 C 314.226562 64.382812 314.5625 64.347656 314.898438 64.308594 C 315.230469 64.273438 317.039062 63.496094 316.324219 62.882812 C 314.183594 61.082031 310.414062 61.289062 307.761719 61.238281 C 304.609375 61.199219 301.476562 61.4375 298.363281 61.953125 C 293.46875 62.738281 288.109375 64.097656 283.707031 66.722656 C 283.285156 54.191406 277.628906 41.550781 266.019531 35.855469 C 250.363281 28.179688 235.769531 39.246094 223.917969 48.613281 C 215.40625 55.320312 206.605469 61.960938 198.671875 69.324219 C 197.808594 70.042969 199.121094 69.980469 199.550781 69.695312 Z M 199.550781 69.695312 " fill-opacity="1" fill-rule="nonzero"/><path fill="#000000" d="M 258.496094 44.644531 C 257.242188 44.09375 255.9375 43.722656 254.585938 43.523438 C 253.230469 43.324219 251.875 43.308594 250.515625 43.476562 C 249.15625 43.640625 247.84375 43.988281 246.578125 44.507812 C 245.3125 45.027344 244.136719 45.707031 243.054688 46.542969 C 242.753906 46.78125 243.054688 46.945312 243.296875 46.792969 C 244.429688 46.167969 245.621094 45.703125 246.878906 45.398438 C 248.136719 45.097656 249.410156 44.96875 250.703125 45.015625 C 251.996094 45.0625 253.257812 45.28125 254.488281 45.675781 C 255.722656 46.066406 256.878906 46.613281 257.960938 47.324219 C 259.765625 48.582031 261.195312 50.183594 262.242188 52.121094 C 262.800781 53.101562 263.234375 54.136719 263.546875 55.21875 C 263.847656 56.25 263.875 57.457031 264.476562 58.347656 C 264.996094 59.117188 266.617188 58.0625 266.800781 57.441406 C 267.601562 55.035156 266.152344 52.035156 264.839844 50.042969 C 263.246094 47.632812 261.128906 45.832031 258.496094 44.644531 Z M 258.496094 44.644531 " fill-opacity="1" fill-rule="nonzero"/><path fill="#000000" d="M 293.519531 73.859375 C 293.238281 73.949219 292.511719 74.730469 293.21875 74.679688 C 298.835938 74.300781 304.335938 74.386719 309.765625 76.0625 C 312.519531 76.929688 315.125 78.121094 317.578125 79.632812 C 319.992188 81.105469 322.125 83.589844 324.714844 84.632812 C 325.429688 84.933594 327.191406 84.191406 326.855469 83.207031 C 326.007812 80.570312 322.367188 78.597656 320.128906 77.292969 C 317.449219 75.742188 314.617188 74.550781 311.636719 73.722656 C 305.75 72.09375 299.339844 71.886719 293.519531 73.859375 Z M 293.519531 73.859375 " fill-opacity="1" fill-rule="nonzero"/><path fill="#000000" d="M 175.582031 85.65625 C 175.242188 87.082031 175.207031 88.519531 175.476562 89.964844 C 175.746094 91.40625 176.296875 92.734375 177.128906 93.945312 C 178.96875 96.664062 181.617188 97.800781 184.84375 97.792969 C 185.183594 97.792969 186.769531 96.964844 186.078125 96.535156 C 182.773438 94.496094 179.582031 90.882812 179.414062 86.824219 C 179.355469 85.753906 179.507812 84.714844 179.867188 83.703125 C 180.226562 82.695312 180.769531 81.792969 181.488281 81 C 183.179688 79.183594 185.5 78.527344 187.816406 77.898438 C 188.019531 77.84375 188.925781 77.351562 188.53125 77.078125 C 186.332031 75.648438 183.238281 77.078125 181.246094 78.304688 C 179.867188 79.121094 178.683594 80.164062 177.707031 81.433594 C 176.726562 82.703125 176.019531 84.109375 175.582031 85.65625 Z M 175.582031 85.65625 " fill-opacity="1" fill-rule="nonzero"/><path fill="#000000" d="M 120.007812 44.378906 C 125.625 45.867188 130.796875 48.921875 135.554688 52.179688 C 140.316406 55.433594 144.789062 59.035156 149.550781 62.304688 C 151.886719 63.960938 154.332031 65.4375 156.886719 66.730469 C 159.355469 67.929688 162.523438 69.152344 165.269531 69.292969 C 165.769531 69.292969 167.703125 68.273438 166.867188 67.667969 C 165.546875 66.703125 163.84375 66.238281 162.386719 65.523438 C 160.929688 64.808594 159.390625 63.839844 157.898438 62.996094 C 155.027344 61.328125 152.253906 59.511719 149.578125 57.546875 C 144.160156 53.664062 138.917969 49.507812 133.066406 46.28125 C 127.527344 43.238281 121.171875 40.972656 114.785156 41.089844 C 111.722656 41.058594 108.90625 41.871094 106.328125 43.523438 C 105.164062 44.316406 104.1875 45.296875 103.390625 46.457031 C 103.011719 46.964844 102.789062 47.53125 102.71875 48.15625 C 102.71875 48.738281 103.054688 49.078125 103.160156 49.65625 C 103.203125 49.886719 103.582031 49.621094 103.625 49.523438 C 104.367188 48.125 105.292969 46.867188 106.40625 45.746094 C 107.574219 44.597656 108.96875 43.898438 110.589844 43.652344 C 113.699219 43.058594 116.996094 43.585938 120.007812 44.378906 Z M 120.007812 44.378906 " fill-opacity="1" fill-rule="nonzero"/><path fill="#000000" d="M 165.734375 77.941406 C 165.4375 77.023438 164.980469 76.195312 164.363281 75.453125 C 163.746094 74.714844 163.015625 74.113281 162.164062 73.65625 C 160.980469 72.929688 159.71875 72.382812 158.375 72.015625 C 157.035156 71.648438 155.671875 71.472656 154.28125 71.496094 C 152.890625 71.515625 151.53125 71.730469 150.203125 72.140625 C 148.875 72.550781 147.628906 73.136719 146.46875 73.902344 C 146.023438 74.171875 146.21875 74.542969 146.679688 74.292969 C 149.535156 72.730469 153.1875 72.921875 156.199219 74 C 159.089844 75.027344 161.457031 77.222656 163.578125 79.347656 C 164.191406 79.90625 165.996094 78.714844 165.734375 77.941406 Z M 165.734375 77.941406 " fill-opacity="1" fill-rule="nonzero"/><path fill="#000000" d="M 162.9375 91.230469 C 158.503906 92.386719 154.25 93.4375 149.640625 93.660156 C 144.945312 93.875 140.304688 93.441406 135.726562 92.359375 C 131.226562 91.296875 126.945312 89.664062 122.882812 87.453125 C 118.972656 85.3125 114.640625 82.863281 111.464844 79.742188 C 111.464844 79.742188 111.421875 79.742188 111.464844 79.742188 C 113.042969 81.40625 114.441406 83.191406 116.175781 84.742188 C 117.921875 86.234375 119.796875 87.539062 121.804688 88.652344 C 125.984375 91.007812 130.410156 92.71875 135.085938 93.796875 C 143.949219 95.84375 154.351562 95.878906 162.816406 92.21875 C 163.191406 92.003906 163.90625 90.972656 162.9375 91.230469 Z M 162.9375 91.230469 " fill-opacity="1" fill-rule="nonzero"/><g clip-path="url(#7888bf1ba7)"><path fill="#000000" d="M 359.167969 105.285156 C 354.457031 102.636719 348.421875 102.308594 343.210938 101.394531 C 336.476562 100.222656 329.738281 99.023438 322.996094 97.878906 C 315.367188 96.585938 307.738281 95.464844 300.0625 94.558594 C 308.730469 90.648438 317.769531 87.996094 327.175781 86.605469 C 327.605469 86.546875 329.28125 85.175781 328.21875 85.0625 C 319.921875 84.289062 311.714844 87.183594 304.222656 90.308594 C 296.050781 93.703125 288.238281 97.902344 280.019531 101.191406 C 276.015625 102.777344 271.917969 104.042969 267.722656 104.992188 C 263.527344 105.941406 259.28125 106.5625 254.988281 106.851562 C 250.695312 107.144531 246.40625 107.101562 242.121094 106.730469 C 237.835938 106.355469 233.605469 105.65625 229.425781 104.628906 C 222.167969 102.765625 215.230469 100.085938 208.605469 96.585938 C 220.078125 97.308594 231.335938 96.082031 242.382812 92.902344 C 254.734375 89.425781 267.824219 83.910156 277.414062 75.199219 C 278.605469 74.113281 276.871094 73.773438 276.035156 74.300781 C 270.71875 77.636719 265.503906 81.113281 259.886719 83.933594 C 254.265625 86.738281 248.421875 88.976562 242.363281 90.644531 C 230.5625 93.804688 218.574219 94.929688 206.390625 94.023438 C 207.015625 93.164062 207.515625 92.234375 207.890625 91.238281 C 208.355469 89.882812 208.601562 88.492188 208.625 87.058594 C 208.648438 85.625 208.453125 84.226562 208.035156 82.855469 C 210.21875 81.8125 212.316406 80.628906 214.457031 79.542969 C 217.179688 78.113281 220.699219 76.90625 222.8125 74.621094 C 223.097656 74.316406 223.226562 73.722656 222.582031 73.785156 C 219.566406 74.085938 216.460938 76.222656 213.804688 77.585938 C 211.664062 78.691406 209.453125 79.726562 207.320312 80.914062 C 206.976562 80.105469 206.574219 79.324219 206.113281 78.578125 C 205.265625 77.234375 204.285156 75.992188 203.179688 74.851562 C 205.152344 73.558594 206.914062 71.773438 208.71875 70.335938 C 211.296875 68.296875 213.957031 66.371094 216.703125 64.566406 C 219.371094 62.8125 222.117188 61.183594 224.9375 59.683594 C 227.671875 58.253906 230.773438 56.992188 233.242188 55.085938 C 233.957031 54.519531 233.992188 53.707031 232.921875 53.847656 C 229.875 54.25 226.785156 56.0625 224.109375 57.492188 C 221.035156 59.125 218.050781 60.917969 215.140625 62.832031 C 212.230469 64.746094 209.574219 66.695312 206.933594 68.816406 C 205.65625 69.835938 204.414062 70.902344 203.203125 71.992188 C 202.722656 72.429688 202.175781 72.878906 201.675781 73.371094 L 201.246094 72.980469 C 199.542969 71.3125 197.664062 69.871094 195.609375 68.660156 C 196.144531 68.089844 196.429688 67.429688 195.546875 67.230469 C 193.769531 66.789062 191.808594 67.230469 190.039062 67.601562 C 187.84375 68.007812 185.703125 68.597656 183.613281 69.375 C 183.386719 69.453125 183.160156 69.550781 182.902344 69.644531 C 180.605469 66.394531 176.902344 64.273438 173.738281 61.925781 C 170.234375 59.320312 166.695312 56.769531 163.148438 54.214844 C 156.042969 49.097656 148.929688 43.992188 141.808594 38.902344 C 135.621094 34.46875 129.21875 29.757812 121.742188 27.726562 C 120.078125 27.246094 118.382812 26.96875 116.652344 26.894531 C 114.921875 26.820312 113.207031 26.949219 111.507812 27.285156 C 109.808594 27.621094 108.175781 28.152344 106.601562 28.878906 C 105.03125 29.605469 103.566406 30.507812 102.210938 31.585938 C 95.324219 37.191406 92.605469 45.824219 92.570312 54.46875 C 72.914062 54.527344 53.382812 64.824219 39.710938 78.527344 C 37.773438 80.464844 35.960938 82.507812 34.265625 84.660156 C 32.886719 86.402344 30.554688 88.816406 30.234375 91.089844 L 30.234375 91.125 C 30.183594 91.160156 30.128906 91.191406 30.070312 91.21875 C 29.199219 91.722656 29.105469 92.832031 30.355469 92.351562 C 35.085938 90.546875 39.632812 88.066406 44.21875 85.925781 C 46.542969 84.839844 48.855469 83.746094 51.164062 82.640625 C 53.226562 81.65625 55.628906 80.878906 57.3125 79.285156 C 57.621094 79 57.679688 78.433594 57.101562 78.492188 C 55.085938 78.691406 53.238281 79.921875 51.433594 80.769531 C 49.007812 81.925781 46.585938 83.089844 44.171875 84.253906 C 40.722656 85.925781 37.171875 87.488281 33.730469 89.253906 C 35.035156 87.554688 36.113281 85.582031 37.433594 83.941406 C 39.253906 81.699219 41.210938 79.585938 43.308594 77.597656 C 47.828125 73.316406 52.773438 69.605469 58.148438 66.460938 C 68.523438 60.339844 80.492188 55.8125 92.570312 54.898438 C 92.605469 58.570312 93.082031 62.183594 94 65.738281 C 95.265625 70.691406 97.265625 75.328125 100 79.648438 C 98.316406 79.210938 96.613281 78.90625 94.882812 78.734375 C 92.414062 78.375 89.933594 78.179688 87.441406 78.140625 C 82.089844 78.097656 76.824219 78.753906 71.648438 80.117188 C 66.472656 81.476562 61.566406 83.496094 56.929688 86.167969 C 54.679688 87.46875 52.523438 88.910156 50.464844 90.496094 L 49.386719 91.316406 C 49.847656 90.167969 50.398438 89.0625 51.042969 88.003906 C 52.804688 85.148438 55.246094 83.046875 57.328125 80.492188 C 57.5 80.285156 57.179688 80.25 57.042969 80.304688 C 53.652344 81.734375 50.890625 84.824219 48.914062 87.832031 C 47.34375 90.0625 46.191406 92.492188 45.460938 95.125 C 45.355469 95.289062 45.253906 95.453125 45.160156 95.621094 C 45.003906 95.921875 45.097656 96.074219 45.277344 96.128906 C 45.15625 96.96875 45.15625 97.804688 45.277344 98.644531 C 45.390625 99.414062 46.703125 98.523438 46.875 98.15625 C 47.375 96.929688 47.800781 95.6875 48.238281 94.453125 C 49.40625 93.515625 50.527344 92.507812 51.71875 91.59375 C 53.652344 90.140625 55.675781 88.832031 57.800781 87.675781 C 62.054688 85.367188 66.53125 83.644531 71.234375 82.5 C 75.933594 81.359375 80.703125 80.835938 85.542969 80.933594 C 87.054688 80.933594 88.5625 81.0625 90.058594 81.210938 C 86.425781 82.046875 82.953125 83.324219 79.640625 85.039062 C 76.207031 86.832031 73.050781 89.023438 70.171875 91.617188 C 68.695312 92.917969 67.320312 94.316406 66.046875 95.816406 C 65.207031 96.816406 63.492188 98.335938 63.414062 99.777344 C 59.070312 101.25 54.910156 103.414062 50.734375 105.292969 C 46.386719 107.25 42.046875 109.21875 37.71875 111.203125 L 25.046875 116.980469 C 20.695312 118.964844 16.191406 120.773438 11.96875 123.023438 C 10.582031 123.738281 10.539062 125.464844 12.402344 124.757812 L 13.117188 124.484375 C 10.546875 129.484375 10.867188 135.976562 11.597656 141.410156 C 12.003906 144.25 12.738281 147 13.800781 149.664062 C 14.339844 151.050781 14.957031 152.402344 15.648438 153.722656 C 15.933594 154.269531 16.210938 154.878906 16.539062 155.425781 C 16.492188 155.503906 16.457031 155.589844 16.433594 155.675781 C 16.371094 155.914062 16.667969 156.113281 17.191406 156.296875 C 17.453125 156.585938 17.761719 156.808594 18.117188 156.96875 C 18.648438 157.136719 19.160156 157.09375 19.660156 156.847656 C 22.292969 157.253906 25.660156 157.46875 26.179688 157.519531 L 26.929688 157.589844 C 26.507812 161.445312 27.058594 165.230469 27.421875 169.082031 C 27.785156 172.929688 28.257812 176.851562 28.6875 180.726562 C 29.535156 188.347656 30.433594 195.957031 31.304688 203.578125 C 33.058594 218.808594 34.765625 234.039062 36.578125 249.277344 C 38.390625 264.519531 40.238281 279.84375 42.058594 295.125 C 42.769531 300.964844 43.585938 307.128906 46.609375 312.261719 C 49.464844 317.160156 54.1875 320.246094 59.53125 321.886719 C 72.785156 325.957031 87.984375 320.78125 100.398438 327.835938 C 101.855469 329.417969 103.546875 330.6875 105.46875 331.648438 C 107.390625 332.613281 109.421875 333.203125 111.558594 333.417969 C 114.328125 334.496094 117.269531 335.3125 119.894531 336.140625 C 125.027344 337.761719 130.242188 339.082031 135.527344 340.101562 C 140.816406 341.109375 146.144531 341.824219 151.511719 342.246094 C 156.800781 342.667969 162.308594 343.132812 167.574219 342.296875 C 168.382812 341.96875 169.027344 341.4375 169.5 340.703125 C 176.117188 341.875 182.894531 342.511719 189.539062 343.339844 C 197.152344 344.28125 204.765625 345.1875 212.371094 346.109375 L 235.207031 348.851562 C 239.074219 349.328125 242.9375 349.804688 246.800781 350.277344 C 250.453125 350.734375 254.40625 351.765625 258.082031 351.464844 C 258.503906 351.429688 261.121094 350.035156 259.972656 349.535156 C 258.238281 348.824219 256.328125 348.824219 254.480469 348.628906 C 252.632812 348.4375 250.847656 348.214844 249.027344 348.007812 C 245.144531 347.5625 241.261719 347.105469 237.375 346.644531 L 214.121094 343.867188 C 206.355469 342.9375 198.601562 341.988281 190.835938 341.109375 C 183.1875 340.246094 175.472656 339.132812 167.789062 338.78125 C 167.152344 338.917969 166.675781 339.273438 166.359375 339.847656 L 166.148438 339.847656 C 166.0625 337.589844 165.785156 335.363281 165.3125 333.15625 C 169.007812 333.519531 172.726562 333.761719 176.40625 334.105469 C 182.058594 334.640625 187.71875 335.121094 193.371094 335.617188 L 210.351562 337.125 C 215.796875 337.605469 221.425781 338.554688 226.894531 338.417969 C 227.308594 338.417969 228.847656 337.355469 227.933594 337.148438 C 225.230469 336.53125 222.355469 336.488281 219.59375 336.253906 L 211.085938 335.539062 L 194.089844 334.054688 C 188.382812 333.5625 182.75 333.054688 177.078125 332.589844 C 173.054688 332.261719 169.007812 331.820312 164.949219 331.542969 C 164.542969 329.679688 164.105469 327.820312 163.761719 325.972656 C 162.921875 321.488281 162.152344 316.992188 161.453125 312.484375 C 160.023438 303.222656 158.878906 293.921875 158.019531 284.578125 C 156.425781 265.753906 155.863281 246.898438 156.328125 228.015625 C 156.679688 209.554688 158.164062 191.140625 159.726562 172.742188 C 166.367188 173.65625 173.160156 173.765625 179.839844 174.171875 L 201.898438 175.492188 C 216.488281 176.363281 231.089844 177.179688 245.679688 178.027344 C 253.125 178.464844 260.664062 179.136719 268.101562 179.136719 C 267.261719 179.4375 266.53125 179.914062 265.917969 180.5625 C 265.746094 180.75 265.496094 181.121094 265.789062 181.277344 C 266.816406 181.992188 268.523438 181.121094 269.527344 180.757812 C 271.253906 180.140625 272.96875 179.488281 274.664062 178.792969 C 278.234375 177.363281 281.703125 175.742188 285.097656 173.980469 C 288.496094 172.214844 291.589844 170.410156 294.710938 168.375 C 296.246094 167.382812 297.769531 166.375 299.25 165.296875 C 299.820312 164.875 300.453125 164.4375 301.0625 163.960938 C 300.796875 169.421875 300.441406 174.886719 300.117188 180.382812 C 299.40625 192.632812 299.148438 204.914062 298.476562 217.167969 C 297.128906 241.667969 296.171875 266.195312 295.238281 290.71875 L 293.8125 328.683594 C 291.320312 330.019531 288.902344 331.542969 286.453125 332.933594 C 283.546875 334.578125 280.652344 336.242188 277.761719 337.933594 C 271.761719 341.382812 265.554688 344.546875 259.738281 348.300781 C 258.695312 348.972656 259.117188 349.730469 260.246094 349.222656 C 266.511719 346.273438 272.476562 342.675781 278.578125 339.402344 C 281.515625 337.828125 284.453125 336.246094 287.390625 334.65625 C 289.472656 333.527344 291.621094 332.460938 293.710938 331.320312 C 293.710938 331.585938 293.710938 331.855469 293.710938 332.121094 C 293.632812 334.175781 298.839844 332.121094 298.90625 330.128906 C 299.734375 305.714844 300.605469 281.304688 301.332031 256.890625 C 302.046875 232.796875 302.546875 208.707031 303.257812 184.613281 C 303.453125 177.90625 303.386719 171.203125 303.574219 164.496094 C 303.757812 157.792969 304.636719 150.472656 303.574219 143.722656 C 303.5 143.300781 302.667969 143.722656 302.609375 144.015625 C 301.410156 149.871094 301.476562 155.96875 301.226562 161.933594 C 298.484375 163.238281 295.988281 165.503906 293.476562 167.082031 C 290.570312 168.921875 287.589844 170.636719 284.542969 172.214844 C 281.492188 173.796875 278.320312 175.265625 275.03125 176.628906 C 274.316406 176.914062 273.601562 177.191406 272.890625 177.464844 C 272.890625 177.308594 272.753906 177.191406 272.453125 177.144531 C 265.53125 176.113281 258.433594 175.984375 251.445312 175.601562 L 229.324219 174.378906 C 214.699219 173.574219 200.070312 172.773438 185.441406 171.980469 C 177.128906 171.539062 168.722656 170.714844 160.394531 170.914062 C 160.234375 170.933594 160.082031 170.980469 159.9375 171.058594 C 160.304688 166.816406 160.738281 162.574219 160.929688 158.320312 C 161.109375 154.378906 161.144531 150.464844 161.515625 146.5 C 161.808594 142.242188 162.890625 138.195312 164.769531 134.363281 C 177.972656 136.398438 191.363281 137.5625 204.65625 138.945312 L 244.546875 143.125 L 255.777344 144.300781 C 259.304688 144.667969 262.914062 145.335938 266.480469 145.335938 C 264.8125 146.101562 262.519531 147.335938 263.542969 148.25 C 263.871094 148.542969 264.632812 148.351562 264.96875 148.207031 C 266.253906 147.628906 267.523438 147.035156 268.792969 146.421875 C 268.679688 147.664062 268.742188 148.949219 268.714844 150.164062 C 268.664062 152.464844 268.714844 154.757812 268.714844 157.0625 C 268.714844 159.203125 268.765625 161.382812 268.792969 163.539062 C 268.792969 165.523438 268.515625 167.824219 269.464844 169.617188 C 269.914062 170.472656 271.605469 169.257812 271.824219 168.703125 C 272.539062 166.710938 272.347656 164.652344 272.304688 162.574219 C 272.261719 160.289062 272.214844 158.011719 272.167969 155.734375 C 272.125 153.59375 272.089844 151.449219 271.976562 149.308594 C 272 147.859375 271.929688 146.417969 271.761719 144.980469 C 274.792969 143.464844 277.804688 141.917969 280.839844 140.410156 L 288.6875 136.503906 C 289.878906 135.910156 291.035156 135.261719 292.183594 134.605469 C 296.101562 136.46875 299.128906 139.539062 299.148438 144.515625 C 299.148438 145.945312 302.503906 144.472656 302.539062 143.210938 C 302.667969 138.410156 299.527344 134.832031 295.574219 132.664062 C 295.945312 132.457031 296.324219 132.253906 296.699219 132.054688 C 297.191406 131.796875 297.199219 131.140625 296.542969 131.433594 C 295.886719 131.726562 295.339844 131.96875 294.722656 132.226562 C 293.402344 131.59375 292.03125 131.101562 290.605469 130.753906 C 287.082031 129.914062 283.4375 129.800781 279.832031 129.542969 C 275.859375 129.265625 271.898438 128.832031 267.953125 128.242188 C 252.867188 125.972656 238.394531 121.648438 224.539062 115.265625 C 216.722656 111.683594 209.125 107.6875 201.746094 103.277344 C 202.84375 101.285156 203.4375 99.152344 203.53125 96.878906 L 203.75 96.707031 C 209.652344 100.90625 216.597656 103.847656 223.46875 105.933594 C 231.691406 108.445312 240.101562 109.679688 248.699219 109.640625 C 254.652344 109.609375 260.535156 108.960938 266.351562 107.691406 C 265.976562 108.207031 265.945312 108.71875 266.652344 108.976562 C 279.0625 113.472656 291.824219 116.460938 304.933594 117.945312 C 311.195312 118.660156 317.445312 118.800781 323.722656 119.144531 C 326.578125 119.300781 329.617188 119.789062 331.9375 121.585938 C 332.664062 122.152344 333.273438 122.828125 333.765625 123.609375 C 334.253906 124.390625 334.597656 125.234375 334.792969 126.136719 C 334.75 126.183594 334.71875 126.234375 334.699219 126.292969 C 333.769531 129.242188 333.65625 132.210938 333.421875 135.277344 C 333.1875 138.339844 332.921875 141.539062 332.707031 144.679688 C 332.328125 150.664062 331.945312 156.648438 331.566406 162.632812 C 330.78125 174.871094 330.066406 187.109375 329.148438 199.34375 C 327.292969 223.816406 325.800781 248.316406 324.195312 272.808594 C 323.289062 286.632812 322.210938 300.449219 321.285156 314.273438 C 321.15625 316.167969 326.042969 314.273438 326.148438 312.402344 C 328.945312 263.902344 331.179688 215.351562 334.382812 166.875 C 334.828125 160.117188 335.210938 153.363281 335.625 146.601562 C 335.832031 143.238281 336.003906 139.867188 336.167969 136.496094 C 336.28125 134.148438 336.589844 131.699219 336.523438 129.304688 C 337.074219 129.082031 337.511719 128.722656 337.839844 128.226562 C 339.308594 124.65625 337.617188 121.5 334.914062 119.402344 C 335.785156 119.066406 336.636719 118.675781 337.460938 118.230469 L 343.3125 115.203125 C 346.878906 113.367188 351.003906 111.691406 354.105469 109.148438 C 354.777344 108.597656 354.992188 107.46875 353.757812 107.796875 C 349.988281 108.804688 346.359375 111.117188 342.90625 112.882812 L 337.402344 115.738281 C 335.890625 116.398438 334.496094 117.253906 333.222656 118.300781 C 332.300781 117.796875 331.332031 117.40625 330.316406 117.136719 C 327.460938 116.425781 324.464844 116.425781 321.546875 116.273438 C 317.886719 116.101562 314.234375 115.839844 310.59375 115.453125 C 296.917969 113.957031 283.554688 111.035156 270.5 106.691406 C 271.414062 106.441406 272.324219 106.175781 273.230469 105.898438 C 281.875 103.234375 289.949219 99.144531 298.105469 95.453125 L 298.15625 95.453125 C 310.4375 98.542969 322.875 100.773438 335.328125 103.078125 C 341.035156 104.140625 347.09375 104.777344 352.671875 106.503906 C 354.8125 107.175781 357.082031 108.234375 358.503906 110.074219 C 360.257812 112.355469 360.242188 115.28125 359.714844 117.980469 C 359.039062 121.414062 357.933594 124.792969 357.019531 128.171875 C 356.542969 129.914062 356.066406 131.65625 355.589844 133.40625 C 355.078125 134.859375 354.71875 136.347656 354.507812 137.875 C 351.996094 139.109375 349.570312 140.566406 347.136719 141.910156 C 343.902344 143.703125 340.640625 145.480469 337.453125 147.324219 C 336.867188 147.664062 335.546875 148.609375 336.027344 149.464844 C 336.503906 150.320312 338.023438 149.679688 338.585938 149.378906 C 341.847656 147.636719 345.007812 145.765625 348.261719 143.945312 L 348.976562 143.558594 C 347.605469 148.609375 347.378906 153.992188 346.777344 159.183594 C 346.179688 164.375 345.558594 169.78125 344.980469 175.085938 C 343.816406 185.796875 342.710938 196.507812 341.542969 207.21875 C 339.214844 228.421875 336.917969 249.628906 334.40625 270.816406 C 332.980469 282.984375 331.5625 295.15625 330.160156 307.328125 C 329.972656 308.941406 334.3125 307.328125 334.484375 305.664062 C 338.921875 263.207031 343.472656 220.769531 348.136719 178.34375 C 348.792969 172.40625 349.429688 166.46875 350.054688 160.53125 C 350.367188 157.570312 350.675781 154.609375 350.980469 151.644531 C 351.304688 148.601562 351.757812 145.59375 351.503906 142.539062 C 351.496094 142.425781 351.457031 142.328125 351.390625 142.238281 C 353.527344 141.09375 355.589844 139.828125 357.582031 138.445312 C 358.359375 137.890625 358.4375 137.226562 358.058594 136.902344 C 359.308594 134.175781 359.859375 130.957031 360.65625 128.097656 C 361.550781 124.949219 362.507812 121.800781 363.285156 118.625 C 364.539062 113.417969 364.246094 108.140625 359.167969 105.285156 Z M 193.085938 69.957031 C 194.078125 70.957031 195.148438 71.867188 196.289062 72.695312 C 197.9375 74.015625 199.46875 75.46875 200.875 77.050781 C 202.355469 78.726562 203.515625 80.597656 204.367188 82.664062 C 203.160156 83.449219 203.722656 84.460938 204.894531 84.183594 C 205.121094 84.972656 205.277344 85.773438 205.363281 86.589844 C 205.535156 87.882812 205.46875 89.164062 205.167969 90.433594 C 204.863281 91.703125 204.34375 92.875 203.609375 93.953125 L 202.609375 93.410156 C 202.0625 93.101562 200.347656 94.066406 201.003906 94.617188 C 201.375 94.921875 201.71875 95.230469 202.140625 95.523438 C 201.953125 95.671875 201.769531 95.816406 201.570312 95.953125 C 198.828125 97.871094 195.28125 98.742188 192.050781 99.421875 C 186 100.6875 178.554688 100.785156 174.453125 95.316406 C 170.921875 90.609375 171.390625 83.691406 174.539062 78.890625 C 175.597656 77.382812 176.855469 76.070312 178.316406 74.945312 C 179.777344 73.824219 181.371094 72.949219 183.101562 72.316406 C 186.339844 71.039062 189.765625 70.816406 193.085938 69.957031 Z M 68.558594 96.496094 C 69.625 95.164062 70.777344 93.917969 72.019531 92.753906 C 74.59375 90.367188 77.445312 88.386719 80.582031 86.820312 C 83.625 85.285156 86.816406 84.175781 90.152344 83.484375 C 92.871094 82.890625 95.605469 82.917969 98.328125 82.683594 C 98.992188 82.773438 99.652344 82.808594 100.320312 82.789062 C 100.839844 82.710938 101.316406 82.519531 101.746094 82.21875 C 103.859375 85.164062 106.285156 87.820312 109.03125 90.1875 C 111.773438 92.554688 114.757812 94.5625 117.980469 96.214844 C 121.933594 98.15625 126.070312 99.554688 130.386719 100.410156 C 134.707031 101.265625 139.0625 101.546875 143.457031 101.257812 C 142.113281 101.921875 140.777344 102.59375 139.445312 103.269531 C 139.609375 103.015625 139.601562 102.765625 139.1875 102.648438 C 137.902344 102.207031 136.585938 101.90625 135.234375 101.742188 C 133.808594 101.644531 132.34375 101.613281 130.902344 101.558594 L 121.554688 101.199219 L 102.484375 100.484375 C 90.351562 100.042969 78.222656 99.457031 66.089844 99.484375 C 66.988281 98.550781 67.8125 97.554688 68.558594 96.496094 Z M 21.992188 155.050781 C 21.769531 155.050781 21.363281 154.976562 20.863281 154.921875 C 20.664062 153.785156 19.757812 152.777344 19.195312 151.777344 C 18.582031 150.640625 18.019531 149.480469 17.511719 148.292969 C 16.390625 145.640625 15.527344 142.90625 14.921875 140.089844 C 14.328125 137.40625 14.042969 134.695312 14.058594 131.949219 C 14.058594 129.671875 14.5 127.355469 14.421875 125.078125 C 17.097656 125.613281 20.058594 125.457031 22.777344 125.601562 C 25.882812 125.765625 28.992188 125.894531 32.105469 126.023438 L 51.199219 126.871094 L 69.902344 127.585938 L 79.261719 127.964844 C 82.261719 128.085938 85.683594 128.679688 88.605469 128.085938 C 88.875 128.027344 90.421875 127.050781 89.703125 126.757812 C 88.613281 126.417969 87.496094 126.28125 86.355469 126.34375 L 81.683594 126.15625 L 72.3125 125.792969 L 53.210938 125.027344 L 34.488281 124.316406 C 31.363281 124.195312 28.234375 124.058594 25.109375 123.964844 C 21.863281 123.871094 18.4375 123.472656 15.214844 123.792969 C 14.898438 123.890625 14.609375 124.039062 14.351562 124.242188 C 14.347656 124.203125 14.347656 124.164062 14.351562 124.121094 C 14.355469 124.089844 14.355469 124.054688 14.351562 124.023438 C 18.101562 122.472656 21.765625 120.636719 25.453125 118.972656 L 38.476562 113.089844 C 42.699219 111.183594 46.921875 109.28125 51.140625 107.375 C 55.179688 105.527344 59.398438 103.804688 63.273438 101.664062 C 75.503906 102.722656 87.8125 103.09375 100.078125 103.5625 C 106.289062 103.820312 112.511719 104.058594 118.738281 104.277344 L 128.070312 104.648438 C 129.761719 104.714844 131.453125 104.8125 133.136719 104.828125 C 134.578125 104.785156 136.003906 104.628906 137.417969 104.347656 C 132.945312 106.632812 128.492188 108.96875 124.03125 111.304688 C 119.695312 113.574219 115.363281 115.851562 111.039062 118.136719 C 107.46875 120.015625 103.796875 121.828125 100.5 124.195312 C 97.410156 126.285156 95.003906 128.984375 93.269531 132.292969 C 91.4375 136.054688 91.128906 140.332031 91.058594 144.429688 C 91.015625 149.84375 91.058594 155.257812 91.195312 160.667969 C 90.324219 160.546875 89.417969 160.5625 88.597656 160.492188 L 83.152344 160.019531 C 79.78125 159.734375 76.402344 159.453125 73.027344 159.175781 C 66.132812 158.613281 59.242188 158.0625 52.332031 157.46875 C 45.425781 156.878906 38.570312 156.304688 31.683594 155.742188 C 28.449219 155.5 25.21875 155.183594 21.992188 155.011719 Z M 67.890625 320.386719 C 62.324219 319.582031 56.613281 317.667969 52.675781 313.382812 C 48.453125 308.777344 47.039062 302.4375 46.167969 296.429688 C 44.027344 281.707031 42.535156 266.882812 40.714844 252.113281 C 38.855469 236.941406 36.953125 221.773438 35.007812 206.605469 C 33.945312 198.257812 32.917969 189.894531 31.832031 181.546875 C 31.28125 177.3125 30.753906 173.074219 30.15625 168.84375 C 29.871094 166.851562 29.664062 164.816406 29.328125 162.8125 L 57.328125 164.71875 L 71.242188 165.652344 C 76.125 165.980469 81.125 166.660156 86.011719 166.523438 C 86.371094 166.523438 87.632812 165.589844 86.882812 165.46875 C 82.417969 164.753906 77.707031 164.816406 73.191406 164.558594 C 68.265625 164.273438 63.335938 163.980469 58.40625 163.710938 L 29.199219 162.070312 C 28.9375 160.566406 28.542969 159.097656 28.023438 157.664062 L 35.449219 158.375 C 41.765625 158.976562 48.09375 159.519531 54.410156 160.105469 L 72.960938 161.855469 C 76.054688 162.144531 79.148438 162.429688 82.238281 162.703125 C 85.144531 162.960938 88.359375 163.675781 91.273438 163.191406 C 91.335938 166.617188 91.40625 170.050781 91.457031 173.480469 C 92.015625 212.816406 92.527344 252.15625 93 291.503906 C 93.105469 299.820312 92.457031 308.890625 94.683594 317.082031 C 92.414062 316.617188 90.09375 316.296875 87.839844 315.933594 C 84.523438 315.390625 81.21875 314.730469 77.914062 314.125 C 71.027344 312.867188 64.136719 311.625 57.222656 310.453125 C 56.992188 310.410156 56.40625 310.863281 56.742188 310.941406 C 63.449219 312.367188 70.164062 313.796875 76.886719 315.160156 C 80.132812 315.824219 83.386719 316.4375 86.621094 317.160156 C 89.472656 317.789062 92.328125 318.503906 95.226562 318.921875 C 95.503906 319.757812 95.816406 320.59375 96.175781 321.410156 C 96.339844 321.792969 96.515625 322.164062 96.703125 322.535156 C 87.425781 320.1875 77.359375 321.816406 67.890625 320.386719 Z M 238.902344 123.585938 C 245.863281 125.984375 252.957031 127.890625 260.179688 129.300781 C 267.414062 130.582031 274.695312 131.488281 282.023438 132.011719 C 284.957031 132.246094 287.8125 132.855469 290.585938 133.847656 C 289.449219 134.328125 288.316406 134.8125 287.203125 135.347656 L 277.550781 139.980469 L 271.003906 143.132812 C 270.511719 142.746094 269.449219 143.539062 269.273438 143.960938 L 268.84375 144.167969 C 269.179688 143.78125 269.257812 143.410156 268.652344 143.253906 C 265.476562 142.425781 261.949219 142.429688 258.660156 142.09375 L 248.578125 141.054688 L 228.449219 139.011719 C 215.113281 137.632812 201.78125 136.253906 188.4375 134.953125 C 180.910156 134.242188 173.390625 133.398438 165.839844 132.960938 C 165.707031 132.96875 165.582031 133 165.460938 133.0625 C 166.960938 130.585938 168.890625 128.503906 171.242188 126.8125 C 177.664062 122.164062 185.234375 119.4375 191.5 114.511719 C 194.917969 111.820312 199.019531 108.082031 201.441406 103.800781 C 212.714844 112.503906 225.429688 118.929688 238.902344 123.585938 Z M 197.695312 106.320312 C 195.207031 109.5 192.320312 112.257812 189.03125 114.597656 C 183.265625 118.835938 176.492188 121.386719 170.613281 125.441406 C 169.179688 126.410156 167.855469 127.511719 166.644531 128.746094 C 165.429688 129.980469 164.355469 131.324219 163.414062 132.777344 C 162.472656 134.226562 161.6875 135.757812 161.054688 137.371094 C 160.421875 138.980469 159.957031 140.640625 159.660156 142.34375 C 158.234375 149.792969 158.632812 157.492188 157.976562 165.023438 C 154.644531 202.984375 151.054688 241.160156 153.480469 279.277344 C 154.167969 289.917969 155.25 300.523438 156.726562 311.097656 C 157.476562 316.371094 158.320312 321.636719 159.261719 326.886719 C 159.53125 328.390625 159.769531 329.941406 160.015625 331.5 C 159.523438 331.8125 159.03125 332.363281 159.589844 332.449219 L 160.1875 332.535156 C 160.554688 334.976562 161.132812 337.371094 161.921875 339.710938 C 159.195312 339.675781 156.464844 339.710938 153.773438 339.519531 C 148.359375 339.152344 142.980469 338.488281 137.640625 337.527344 C 132.40625 336.578125 127.234375 335.359375 122.128906 333.875 C 120.5 333.40625 118.886719 332.847656 117.273438 332.277344 C 117.578125 332.03125 117.816406 331.734375 117.988281 331.382812 C 118.34375 330.554688 117.988281 329.878906 116.960938 329.957031 C 109.78125 330.484375 103.738281 325.015625 100.976562 318.78125 C 97.480469 310.863281 98.007812 301.644531 97.835938 293.210938 C 97.464844 274.402344 97.125 255.585938 96.753906 236.796875 C 96.367188 218.160156 96 199.519531 95.648438 180.878906 L 95.132812 152.65625 C 94.988281 144.730469 93.34375 134.632812 99.214844 128.257812 C 101.992188 125.242188 105.742188 123.316406 109.320312 121.421875 C 113.871094 119.015625 118.429688 116.613281 122.992188 114.21875 C 131.3125 109.832031 139.625 105.464844 147.800781 100.8125 C 153.300781 100 158.410156 98.121094 163.128906 95.179688 C 163.929688 94.667969 164.09375 93.558594 162.84375 94.058594 C 156.714844 96.535156 150.625 98.34375 143.960938 98.421875 C 137.382812 98.53125 131.0625 97.304688 125.003906 94.738281 C 113.707031 89.910156 105.023438 80.398438 100.511719 69.03125 C 96.429688 58.699219 95.347656 44.75 102.589844 35.46875 C 111.867188 23.558594 127.992188 35.46875 136.882812 41.675781 C 144.105469 46.714844 151.34375 51.714844 158.605469 56.667969 C 162.351562 59.246094 166.082031 61.824219 169.863281 64.347656 C 173.277344 66.625 176.566406 69.203125 180.382812 70.703125 C 177.617188 72.046875 175.152344 73.8125 172.988281 76 C 168.171875 81 165.855469 88.953125 168.945312 95.445312 C 172.511719 102.929688 181.703125 103.511719 188.851562 102.234375 C 192.96875 101.519531 197.945312 100.328125 201.875 97.949219 C 200.941406 100.96875 199.546875 103.761719 197.695312 106.320312 Z M 197.695312 106.320312 " fill-opacity="1" fill-rule="nonzero"/></g><path fill="#000000" d="M 166.183594 98.695312 C 165.398438 98.058594 163.90625 98.9375 163.269531 99.359375 C 157 103.507812 150.933594 107.871094 144.417969 111.652344 C 141.238281 113.503906 137.996094 115.28125 134.734375 116.960938 C 131.476562 118.636719 127.777344 120.03125 124.667969 122.074219 C 123.40625 122.90625 123.363281 124.699219 125.230469 124.214844 C 128.878906 123.316406 132.4375 121.222656 135.761719 119.539062 C 139.261719 117.765625 142.703125 115.886719 146.089844 113.902344 C 152.761719 109.976562 159.566406 105.785156 165.46875 100.742188 C 165.996094 100.316406 166.996094 99.34375 166.183594 98.695312 Z M 166.183594 98.695312 " fill-opacity="1" fill-rule="nonzero"/><path fill="#000000" d="M 164.476562 108.039062 C 162.714844 109.160156 160.953125 110.269531 159.238281 111.476562 C 157.527344 112.683594 155.707031 113.71875 154.402344 115.230469 C 153.6875 116.066406 154.402344 116.660156 155.335938 116.21875 C 159.003906 114.53125 162.222656 111.460938 165.328125 108.898438 C 166.28125 108.082031 165.417969 107.433594 164.476562 108.039062 Z M 164.476562 108.039062 " fill-opacity="1" fill-rule="nonzero"/><path fill="#000000" d="M 171.777344 119.015625 C 169.257812 120.6875 166.070312 122.300781 164.011719 124.535156 C 163.078125 125.566406 164.070312 126.128906 165.125 125.714844 C 167.980469 124.609375 170.613281 122.429688 173.140625 120.714844 C 175.789062 118.929688 178.441406 117.144531 181.074219 115.359375 C 186.40625 111.71875 191.691406 108.046875 196.859375 104.171875 C 197.75 103.5 196.953125 102.949219 196.144531 103.457031 C 190.601562 106.742188 185.191406 110.21875 179.796875 113.738281 C 177.113281 115.445312 174.445312 117.253906 171.777344 119.015625 Z M 171.777344 119.015625 " fill-opacity="1" fill-rule="nonzero"/><path fill="#000000" d="M 336.003906 105.054688 C 334.753906 104.300781 333.320312 104.34375 331.894531 104.171875 L 327.226562 103.714844 L 317.5 102.765625 C 314.371094 102.464844 311.242188 102.179688 308.109375 101.90625 C 305.035156 101.636719 301.6875 101.070312 298.65625 101.742188 C 298.441406 101.792969 297.679688 102.222656 298.035156 102.457031 C 299.085938 103.257812 300.539062 103.335938 301.808594 103.519531 C 303.316406 103.742188 304.828125 103.933594 306.339844 104.113281 C 309.539062 104.488281 312.734375 104.855469 315.929688 105.207031 L 325.207031 106.207031 C 328.289062 106.535156 331.542969 107.261719 334.628906 106.710938 C 335.027344 106.667969 336.859375 105.585938 336.003906 105.054688 Z M 336.003906 105.054688 " fill-opacity="1" fill-rule="nonzero"/><path fill="#000000" d="M 322.238281 109.613281 C 321.695312 109.613281 319.933594 110.988281 320.984375 111.132812 C 324.457031 111.605469 328.367188 112.203125 331.859375 111.78125 C 332.316406 111.726562 334.339844 110.5625 333.15625 110.203125 C 329.910156 109.21875 325.628906 109.5625 322.238281 109.613281 Z M 322.238281 109.613281 " fill-opacity="1" fill-rule="nonzero"/><path fill="#000000" d="M 261.878906 312.082031 L 262.265625 280.285156 C 262.527344 258.863281 262.929688 237.441406 262.863281 216.015625 C 262.863281 210.113281 262.863281 204.207031 262.785156 198.308594 C 262.742188 192.230469 262.890625 186.074219 262.148438 180.042969 C 262.105469 179.691406 261.4375 180.09375 261.394531 180.335938 C 260.636719 185.832031 260.550781 191.386719 260.335938 196.9375 C 260.125 202.484375 259.964844 207.871094 259.800781 213.359375 C 259.488281 223.992188 259.210938 234.632812 259.089844 245.265625 C 258.773438 266.742188 258.464844 288.210938 258.160156 309.675781 C 258.066406 315.632812 257.964844 321.582031 257.863281 327.527344 C 257.746094 333.691406 257.21875 340.003906 257.617188 346.152344 C 257.726562 347.886719 261.394531 345.980469 261.507812 344.660156 C 261.980469 339.273438 261.707031 333.753906 261.75 328.355469 C 261.792969 322.957031 261.816406 317.53125 261.878906 312.082031 Z M 261.878906 312.082031 " fill-opacity="1" fill-rule="nonzero"/><path fill="#000000" d="M 324.308594 124.199219 C 321.289062 124.6875 318.316406 126.398438 315.539062 127.636719 C 312.761719 128.871094 309.714844 130.007812 307.269531 131.917969 C 306.65625 132.390625 306.625 133.113281 307.546875 132.976562 C 310.578125 132.519531 313.484375 130.90625 316.265625 129.683594 C 319.050781 128.464844 322.191406 127.351562 324.636719 125.492188 C 325.371094 124.90625 325.40625 124.015625 324.308594 124.199219 Z M 324.308594 124.199219 " fill-opacity="1" fill-rule="nonzero"/><path fill="#000000" d="M 317.652344 314.433594 C 314.652344 315.074219 311.777344 316.945312 309.089844 318.316406 C 306.398438 319.6875 303.378906 320.988281 301.054688 322.992188 C 300.46875 323.5 300.46875 324.222656 301.382812 324.035156 C 304.394531 323.421875 307.203125 321.660156 309.945312 320.289062 C 312.683594 318.917969 315.738281 317.652344 318.085938 315.675781 C 318.742188 315.082031 318.734375 314.203125 317.652344 314.433594 Z M 317.652344 314.433594 " fill-opacity="1" fill-rule="nonzero"/><path fill="#000000" d="M 102.195312 154.148438 C 103.296875 147.214844 102.695312 139.773438 102.089844 132.832031 C 102.03125 132.21875 100.753906 132.898438 100.71875 133.363281 C 100.421875 136.996094 100.226562 140.582031 100.183594 144.246094 C 100.140625 147.730469 99.984375 151.3125 100.613281 154.757812 C 100.75 155.511719 102.117188 154.640625 102.195312 154.148438 Z M 102.195312 154.148438 " fill-opacity="1" fill-rule="nonzero"/><path fill="#000000" d="M 109.277344 233.925781 C 108.664062 225.792969 107.898438 217.679688 107.226562 209.554688 C 106.558594 201.429688 105.84375 193.324219 105.085938 185.210938 C 104.332031 177.101562 103.816406 168.789062 102.417969 160.675781 C 102.355469 160.324219 101.625 160.675781 101.621094 160.984375 C 101.492188 169.367188 102.195312 177.765625 102.695312 186.125 C 103.195312 194.488281 103.722656 202.757812 104.296875 211.074219 C 104.867188 219.394531 105.34375 227.683594 105.964844 235.988281 L 106.90625 248.40625 C 107.191406 252.222656 107.027344 256.414062 108.296875 260.046875 C 108.632812 261.019531 110.582031 259.546875 110.667969 258.941406 C 111.28125 254.828125 110.511719 250.472656 110.195312 246.34375 Z M 109.277344 233.925781 " fill-opacity="1" fill-rule="nonzero"/><path fill="#000000" d="M 144.078125 278.886719 C 144.109375 276.238281 143.9375 273.601562 143.5625 270.980469 C 143.46875 270.265625 142.078125 271.015625 142 271.453125 C 141.425781 274.195312 141.03125 276.96875 140.816406 279.761719 C 140.738281 281.132812 140.679688 282.511719 140.617188 283.882812 C 140.550781 285.253906 140.332031 286.488281 140.78125 287.738281 C 141.152344 288.78125 143.296875 287.253906 143.492188 286.691406 C 144.339844 284.320312 144.011719 281.378906 144.078125 278.886719 Z M 144.078125 278.886719 " fill-opacity="1" fill-rule="nonzero"/><path fill="#000000" d="M 66.0625 70.707031 C 69.378906 68.496094 72.699219 66.6875 76.660156 65.867188 C 78.566406 65.496094 80.488281 65.335938 82.429688 65.382812 C 84.378906 65.382812 86.605469 65.886719 88.484375 65.382812 C 88.769531 65.296875 89.488281 64.988281 89.429688 64.566406 C 89.210938 62.910156 85.558594 62.597656 84.238281 62.484375 C 81.75 62.304688 79.296875 62.503906 76.871094 63.082031 C 72.214844 64.125 67.253906 66.546875 64.226562 70.34375 C 63.25 71.542969 65.621094 71 66.0625 70.707031 Z M 66.0625 70.707031 " fill-opacity="1" fill-rule="nonzero"/><path fill="#000000" d="M 181.230469 177.878906 C 177.4375 181.734375 173.640625 185.613281 169.984375 189.601562 C 169.378906 190.265625 170.527344 190.109375 170.871094 189.789062 C 174.960938 186.03125 178.933594 182.128906 182.894531 178.234375 C 184.066406 177.085938 181.902344 177.191406 181.230469 177.878906 Z M 181.230469 177.878906 " fill-opacity="1" fill-rule="nonzero"/><path fill="#000000" d="M 277.382812 197.566406 C 279.867188 193.609375 282.1875 189.546875 284.457031 185.425781 C 286.5625 181.613281 288.921875 177.855469 290.75 173.902344 C 290.984375 173.386719 289.871094 173.816406 289.722656 174.035156 C 287.167969 177.90625 285.035156 182.113281 282.742188 186.140625 C 280.601562 189.917969 278.460938 193.746094 276.550781 197.636719 C 276.394531 198.058594 277.257812 197.757812 277.382812 197.566406 Z M 277.382812 197.566406 " fill-opacity="1" fill-rule="nonzero"/><path fill="#000000" d="M 276.027344 222.453125 C 277.171875 218.601562 278.078125 214.699219 278.742188 210.742188 C 278.796875 210.441406 278.234375 210.675781 278.175781 210.863281 C 276.859375 214.761719 275.789062 218.730469 274.964844 222.765625 C 274.964844 223.171875 275.9375 222.722656 276.027344 222.453125 Z M 276.027344 222.453125 " fill-opacity="1" fill-rule="nonzero"/><path fill="#000000" d="M 247.914062 337.753906 C 247.914062 338.910156 250.769531 337.753906 250.726562 336.675781 C 250.441406 329.347656 250.191406 322.015625 249.863281 314.6875 C 249.535156 307.363281 249.640625 299.992188 248.792969 292.773438 C 248.699219 291.988281 247.050781 292.84375 247.023438 293.453125 C 246.671875 300.800781 247.222656 308.292969 247.363281 315.644531 C 247.507812 323 247.730469 330.386719 247.914062 337.753906 Z M 247.914062 337.753906 " fill-opacity="1" fill-rule="nonzero"/><path fill="#000000" d="M 246.992188 263.976562 C 247.042969 264.523438 248.191406 263.917969 248.222656 263.503906 C 248.734375 257.113281 248.636719 250.648438 248.640625 244.222656 C 248.648438 237.796875 248.640625 231.484375 248.640625 225.109375 C 248.640625 212.460938 248.8125 199.742188 248.070312 187.109375 C 248.070312 186.695312 247.152344 187.109375 247.136719 187.46875 C 246.421875 200.25 246.550781 213.109375 246.558594 225.90625 C 246.558594 232.148438 246.558594 238.386719 246.558594 244.625 C 246.585938 251.042969 246.421875 257.546875 246.992188 263.976562 Z M 246.992188 263.976562 " fill-opacity="1" fill-rule="nonzero"/><path fill="#000000" d="M 32.554688 163.289062 C 32.304688 162.695312 30.976562 163.566406 30.960938 164.003906 C 30.875 168.503906 32.230469 173.285156 33.039062 177.679688 C 33.808594 181.863281 34.144531 186.511719 35.679688 190.496094 C 35.957031 191.210938 37.632812 190.167969 37.625 189.589844 C 37.570312 185.074219 36.199219 180.40625 35.363281 175.980469 C 34.601562 171.902344 34.222656 167.179688 32.554688 163.289062 Z M 32.554688 163.289062 " fill-opacity="1" fill-rule="nonzero"/><path fill="#000000" d="M 57.429688 133.078125 C 61.757812 133.210938 66.210938 133.664062 70.515625 133.078125 C 70.851562 133.035156 72.140625 132.085938 71.3125 131.890625 C 67.398438 130.96875 63.03125 131.347656 59.027344 131.261719 L 45.910156 131 C 41.660156 130.910156 37.40625 130.828125 33.152344 130.761719 C 28.636719 130.699219 23.875 130.269531 19.410156 130.828125 C 19.230469 130.828125 18.390625 131.363281 18.882812 131.476562 C 22.742188 132.328125 27.066406 132.054688 31.011719 132.191406 C 35.480469 132.363281 39.941406 132.515625 44.398438 132.65625 Z M 57.429688 133.078125 " fill-opacity="1" fill-rule="nonzero"/><path fill="#000000" d="M 250.15625 150.222656 L 244.675781 149.984375 C 241.171875 149.835938 237.667969 149.644531 234.164062 149.449219 L 212.800781 148.292969 C 212.6875 148.292969 212.441406 148.515625 212.644531 148.53125 L 233.515625 149.820312 C 236.863281 150.027344 240.207031 150.222656 243.546875 150.472656 L 248.921875 150.863281 C 250.683594 150.992188 252.402344 151.449219 254.164062 151.441406 C 254.601562 151.441406 255.957031 150.359375 255.144531 150.257812 C 253.488281 150.042969 251.824219 150.292969 250.15625 150.222656 Z M 250.15625 150.222656 " fill-opacity="1" fill-rule="nonzero"/><path fill="#000000" d="M 233.742188 132.3125 C 238.867188 132.882812 244.246094 133.996094 249.40625 133.863281 C 249.699219 133.863281 250.761719 133.148438 250.121094 132.984375 C 247.75 132.433594 245.175781 132.449219 242.753906 132.269531 L 234.621094 131.710938 C 228.964844 131.316406 223.304688 130.902344 217.644531 130.46875 C 217.59375 130.46875 217.472656 130.5625 217.546875 130.570312 C 222.949219 131.132812 228.347656 131.710938 233.742188 132.3125 Z M 233.742188 132.3125 " fill-opacity="1" fill-rule="nonzero"/></svg>