<svg xmlns="http://www.w3.org/2000/svg" xmlns:xlink="http://www.w3.org/1999/xlink" width="940" height="788" preserveAspectRatio="xMidYMid meet" version="1.0" viewBox="0 0 705 591" zoomAndPan="magnify"><defs><clipPath id="f8d1f11d54"><path d="M 85.300781 76.230469 L 234 76.230469 L 234 420 L 85.300781 420 Z M 85.300781 76.230469" clip-rule="nonzero"/></clipPath><clipPath id="ddfd661fad"><path d="M 568 255 L 619.894531 255 L 619.894531 313 L 568 313 Z M 568 255" clip-rule="nonzero"/></clipPath><clipPath id="8a0bd0b1c2"><path d="M 548 286 L 619.894531 286 L 619.894531 364 L 548 364 Z M 548 286" clip-rule="nonzero"/></clipPath><clipPath id="ac593a45f6"><path d="M 595 382 L 619.894531 382 L 619.894531 414 L 595 414 Z M 595 382" clip-rule="nonzero"/></clipPath><clipPath id="c5f0abdc88"><path d="M 576 415 L 619.894531 415 L 619.894531 464 L 576 464 Z M 576 415" clip-rule="nonzero"/></clipPath><clipPath id="bb56ee88f7"><path d="M 478 403 L 619.894531 403 L 619.894531 513.492188 L 478 513.492188 Z M 478 403" clip-rule="nonzero"/></clipPath></defs><g clip-path="url(#f8d1f11d54)"><path fill="#101010" fill-opacity="1" fill-rule="nonzero" d="M 193.722656 319.804688 C 194.324219 319.519531 194.917969 319.226562 195.507812 318.925781 C 204.578125 314.332031 212.757812 308.214844 219.425781 300.8125 C 219.566406 300.652344 219.707031 300.496094 219.847656 300.335938 C 220.742188 299.3125 221.59375 298.269531 222.410156 297.210938 C 231.128906 285.839844 235.117188 272.347656 232.328125 258.5 C 232.070312 257.222656 231.753906 255.9375 231.378906 254.652344 C 231.199219 254.019531 231.007812 253.390625 230.800781 252.761719 C 224.773438 234.34375 207.152344 219.320312 186.203125 217.992188 C 184.988281 217.90625 183.773438 217.863281 182.558594 217.859375 C 180.261719 217.855469 177.972656 218 175.707031 218.28125 C 172.964844 218.625 170.253906 219.179688 167.613281 219.921875 C 166.871094 220.132812 166.136719 220.355469 165.40625 220.597656 C 164.660156 220.84375 163.917969 221.105469 163.183594 221.382812 C 162.875 221.496094 162.574219 221.613281 162.269531 221.734375 C 160.753906 217.4375 159.234375 213.140625 157.726562 208.84375 C 157.128906 207.144531 156.53125 205.449219 155.9375 203.75 C 155.738281 203.179688 155.539062 202.609375 155.339844 202.039062 C 155.042969 201.195312 154.75 200.351562 154.457031 199.507812 C 154.167969 198.679688 153.882812 197.851562 153.59375 197.023438 C 152.882812 194.972656 152.179688 192.921875 151.476562 190.867188 C 151.824219 190.539062 152.167969 190.210938 152.511719 189.875 C 159.953125 182.695312 166.457031 174.496094 171.601562 165.691406 C 172.003906 165.003906 172.398438 164.308594 172.785156 163.613281 C 173.050781 163.136719 173.3125 162.652344 173.574219 162.167969 C 180.496094 149.257812 184.851562 135.082031 185.78125 120.660156 C 185.832031 119.875 185.875 119.089844 185.902344 118.300781 C 185.921875 117.859375 185.933594 117.417969 185.945312 116.976562 C 185.957031 116.65625 185.964844 116.335938 185.96875 116.011719 C 186.148438 106.824219 184.539062 97.023438 179.253906 89.171875 C 178.925781 88.691406 178.589844 88.21875 178.238281 87.753906 C 177.894531 87.292969 177.535156 86.84375 177.160156 86.402344 C 176.304688 85.394531 175.378906 84.425781 174.375 83.511719 C 168.898438 78.691406 162.636719 76.429688 156.386719 76.257812 C 155.652344 76.238281 154.910156 76.246094 154.171875 76.285156 C 153.390625 76.324219 152.609375 76.394531 151.828125 76.496094 C 143.652344 77.574219 135.824219 82.085938 130.148438 88.9375 C 120.792969 100.105469 120.695312 114.796875 123.152344 128.324219 C 123.355469 129.421875 123.570312 130.511719 123.800781 131.59375 C 124.027344 132.667969 124.269531 133.730469 124.519531 134.78125 C 124.613281 135.175781 124.710938 135.566406 124.804688 135.957031 C 125.707031 139.679688 126.652344 143.390625 127.652344 147.089844 C 128.023438 148.46875 128.402344 149.84375 128.785156 151.214844 C 129.4375 153.550781 130.105469 155.882812 130.792969 158.210938 C 131.078125 159.1875 131.371094 160.160156 131.660156 161.136719 C 131.957031 162.125 132.253906 163.109375 132.558594 164.097656 C 133.734375 167.953125 134.945312 171.800781 136.1875 175.636719 C 136.476562 176.527344 131.847656 180.511719 127.957031 183.722656 C 127.246094 184.308594 126.558594 184.871094 125.929688 185.382812 C 125.152344 186.015625 124.464844 186.574219 123.933594 187.007812 C 123.476562 187.386719 123.136719 187.671875 122.953125 187.835938 C 119.917969 190.613281 116.902344 193.410156 113.992188 196.304688 C 113.605469 196.6875 113.226562 197.070312 112.847656 197.457031 C 112.644531 197.660156 112.449219 197.859375 112.253906 198.0625 C 111.671875 198.65625 111.097656 199.257812 110.527344 199.859375 C 109.945312 200.480469 109.367188 201.109375 108.792969 201.742188 C 108.679688 201.867188 108.570312 201.992188 108.457031 202.121094 C 100.894531 210.578125 94.808594 220.46875 90.933594 230.890625 C 87.910156 239.011719 85.976562 247.738281 85.453125 256.535156 C 85.351562 258.199219 85.304688 259.863281 85.304688 261.523438 C 85.328125 272.078125 87.457031 282.59375 92.242188 292.152344 C 93.78125 295.230469 95.609375 298.160156 97.6875 300.929688 C 98.550781 302.078125 99.453125 303.203125 100.402344 304.292969 C 112.894531 318.726562 132.382812 327.949219 152.234375 328.472656 C 154.167969 328.546875 156.101562 328.554688 158.03125 328.496094 C 158.765625 328.472656 159.492188 328.441406 160.21875 328.402344 C 160.9375 328.363281 161.65625 328.3125 162.375 328.257812 C 163.859375 328.136719 165.339844 327.980469 166.816406 327.785156 C 167.511719 327.695312 168.199219 327.597656 168.886719 327.492188 C 169.570312 327.382812 170.25 327.269531 170.925781 327.144531 C 172.378906 326.886719 173.824219 326.59375 175.257812 326.257812 C 175.917969 326.105469 176.578125 325.945312 177.230469 325.78125 C 177.878906 325.613281 178.527344 325.441406 179.171875 325.261719 C 179.597656 325.144531 180.023438 325.023438 180.449219 324.898438 C 180.539062 325.503906 180.621094 326.113281 180.703125 326.722656 C 180.824219 327.617188 180.941406 328.507812 181.054688 329.398438 C 181.164062 330.265625 181.265625 331.132812 181.367188 332.003906 C 181.59375 333.96875 181.792969 335.9375 181.972656 337.90625 C 182.046875 338.730469 182.113281 339.558594 182.183594 340.390625 C 182.246094 341.199219 182.300781 342.007812 182.355469 342.820312 C 182.480469 344.703125 182.585938 346.59375 182.660156 348.476562 C 182.691406 349.257812 182.714844 350.035156 182.738281 350.816406 C 182.757812 351.582031 182.773438 352.347656 182.78125 353.113281 C 182.859375 358.136719 182.726562 363.160156 182.351562 368.164062 C 182.261719 369.414062 182.152344 370.664062 182.027344 371.914062 C 181.992188 372.183594 181.960938 372.449219 181.921875 372.71875 C 180.773438 381.253906 177.910156 389.886719 172.246094 396.648438 C 167.90625 402.042969 161.496094 405.945312 154.609375 406.917969 C 160.886719 403.222656 165.0625 396.683594 165.0625 389.230469 C 165.0625 377.695312 155.0625 368.347656 142.726562 368.347656 C 132.796875 368.347656 124.378906 374.40625 121.476562 382.785156 C 116.886719 393.445312 121.101562 406.808594 131.039062 413.710938 C 139.113281 419.359375 149.855469 420.648438 159.40625 418.34375 C 168.539062 416.234375 176.519531 410.554688 181.984375 403.535156 C 187.554688 396.539062 190.699219 388.460938 192.359375 380.0625 C 192.648438 378.589844 192.894531 377.101562 193.097656 375.609375 C 193.726562 371.035156 193.972656 366.402344 193.988281 361.832031 C 193.992188 361.117188 193.988281 360.402344 193.976562 359.691406 C 193.96875 358.996094 193.953125 358.304688 193.9375 357.617188 C 193.9375 357.582031 193.9375 357.550781 193.9375 357.511719 C 193.894531 355.585938 193.832031 353.660156 193.746094 351.738281 C 193.710938 351 193.671875 350.261719 193.632812 349.527344 C 193.59375 348.78125 193.550781 348.035156 193.503906 347.285156 C 193.378906 345.296875 193.230469 343.308594 193.054688 341.320312 C 192.992188 340.558594 192.921875 339.800781 192.847656 339.039062 C 192.773438 338.265625 192.691406 337.492188 192.613281 336.71875 C 192.394531 334.664062 192.15625 332.609375 191.886719 330.558594 C 191.839844 330.195312 191.792969 329.828125 191.746094 329.464844 C 191.6875 329.042969 191.628906 328.617188 191.570312 328.191406 C 191.535156 327.945312 191.5 327.695312 191.464844 327.445312 C 191.386719 326.886719 191.308594 326.328125 191.222656 325.769531 C 191.132812 325.148438 191.039062 324.527344 190.945312 323.90625 C 190.808594 323.023438 190.667969 322.140625 190.527344 321.257812 C 190.992188 321.058594 191.453125 320.855469 191.914062 320.644531 C 192.523438 320.375 193.125 320.09375 193.730469 319.804688 Z M 188.496094 242.71875 C 199.785156 246.894531 207.019531 259.390625 204.980469 270.46875 C 204.222656 274.117188 202.597656 277.554688 200.378906 280.722656 C 199.617188 281.816406 198.785156 282.875 197.894531 283.902344 C 194.316406 288.019531 189.792969 291.59375 185.042969 294.480469 C 183.050781 286.300781 180.804688 278.183594 178.378906 270.109375 C 177.792969 268.152344 177.195312 266.195312 176.589844 264.242188 C 174.316406 256.917969 171.910156 249.632812 169.4375 242.359375 C 175.714844 240.609375 182.503906 240.582031 188.496094 242.71875 Z M 138.304688 148.445312 C 138.277344 148.34375 138.25 148.242188 138.222656 148.140625 C 137.980469 147.234375 137.738281 146.328125 137.5 145.417969 C 137.261719 144.515625 137.027344 143.617188 136.796875 142.714844 C 136.050781 139.796875 135.335938 136.875 134.652344 133.941406 C 133.300781 128.015625 132.148438 121.929688 132.0625 115.910156 C 132.039062 114.460938 132.082031 113.023438 132.199219 111.585938 C 132.246094 110.96875 132.308594 110.351562 132.386719 109.738281 C 132.546875 108.480469 132.769531 107.238281 133.066406 106.011719 C 133.441406 104.472656 133.933594 102.957031 134.5625 101.484375 C 135.707031 98.828125 137.480469 96.34375 139.6875 94.257812 C 140.871094 93.132812 142.183594 92.121094 143.585938 91.261719 C 144.574219 90.660156 145.605469 90.128906 146.675781 89.6875 C 147.46875 89.359375 148.277344 89.078125 149.105469 88.847656 C 154.621094 87.277344 160.035156 88.96875 163.4375 93.128906 C 164.550781 94.515625 165.375 96.078125 165.976562 97.742188 C 166.207031 98.371094 166.402344 99.011719 166.574219 99.667969 C 166.753906 100.355469 166.90625 101.054688 167.027344 101.761719 C 167.109375 102.222656 167.179688 102.691406 167.238281 103.15625 C 167.679688 106.683594 167.558594 110.402344 167.074219 113.992188 C 166.460938 119.042969 165.441406 124.050781 164.085938 128.953125 C 162.058594 136.371094 159.164062 143.566406 155.46875 150.382812 C 155.011719 151.222656 154.542969 152.054688 154.0625 152.882812 C 153.375 154.070312 152.667969 155.238281 151.933594 156.398438 C 151.769531 156.660156 151.601562 156.917969 151.433594 157.175781 C 149.125 160.746094 146.585938 164.183594 143.832031 167.46875 C 142.324219 162.589844 140.871094 157.699219 139.5 152.789062 C 139.09375 151.34375 138.695312 149.894531 138.304688 148.445312 Z M 109.347656 248.046875 C 109.5625 246.8125 109.8125 245.59375 110.089844 244.375 C 110.972656 240.445312 112.136719 236.867188 113.542969 233.5625 C 113.949219 232.605469 114.375 231.667969 114.820312 230.753906 C 115.25 229.871094 115.699219 229.007812 116.164062 228.160156 C 117.949219 224.917969 119.980469 221.9375 122.214844 219.128906 C 122.753906 218.445312 123.308594 217.769531 123.871094 217.105469 C 124.421875 216.457031 124.984375 215.816406 125.558594 215.179688 C 128.5 211.914062 131.699219 208.828125 135.070312 205.742188 C 135.738281 205.132812 136.410156 204.519531 137.09375 203.90625 C 137.53125 203.511719 137.972656 203.113281 138.417969 202.71875 C 138.617188 202.757812 138.816406 202.796875 139.019531 202.835938 C 139.0625 202.578125 139.105469 202.320312 139.152344 202.0625 C 140.136719 201.179688 141.136719 200.292969 142.144531 199.398438 C 142.664062 198.929688 143.191406 198.460938 143.71875 197.988281 C 143.945312 198.644531 144.171875 199.296875 144.402344 199.953125 C 144.9375 201.496094 145.476562 203.039062 146.019531 204.582031 C 146.882812 207.0625 147.753906 209.535156 148.628906 212.011719 L 149.679688 215.003906 C 150.046875 216.042969 150.414062 217.082031 150.777344 218.121094 C 151.71875 220.792969 152.664062 223.46875 153.597656 226.144531 C 152.046875 227.128906 150.550781 228.191406 149.128906 229.332031 C 148.492188 229.839844 147.867188 230.367188 147.257812 230.90625 C 146.625 231.46875 146.007812 232.046875 145.40625 232.640625 C 145.246094 232.796875 145.089844 232.957031 144.933594 233.117188 C 142.207031 235.867188 139.882812 238.980469 138.046875 242.324219 C 137.550781 243.234375 137.085938 244.164062 136.660156 245.109375 C 136.195312 246.136719 135.78125 247.1875 135.414062 248.246094 C 135.402344 248.269531 135.394531 248.292969 135.386719 248.316406 C 134.953125 249.578125 134.589844 250.859375 134.296875 252.152344 C 134.171875 252.695312 134.0625 253.242188 133.964844 253.792969 C 133.371094 256.925781 133.207031 260.164062 133.441406 263.390625 C 134.03125 271.550781 137.195312 279.667969 142.527344 286.019531 C 144.785156 288.710938 147.433594 291.085938 150.445312 293.007812 C 151.386719 293.609375 152.363281 294.171875 153.371094 294.679688 C 154.195312 295.097656 155.042969 295.480469 155.914062 295.832031 C 147.5625 286.089844 144.511719 272.167969 148.875 260.390625 C 149.394531 258.984375 150.023438 257.605469 150.757812 256.269531 C 150.9375 255.945312 151.125 255.621094 151.316406 255.296875 C 151.84375 254.433594 152.425781 253.605469 153.058594 252.808594 C 154.648438 250.800781 156.554688 249.015625 158.683594 247.480469 C 159.273438 247.054688 159.882812 246.644531 160.503906 246.257812 C 161.75 250 162.980469 253.742188 164.175781 257.492188 C 164.746094 259.277344 165.308594 261.058594 165.859375 262.84375 C 169.585938 274.851562 172.960938 286.941406 175.730469 299.171875 C 174.984375 299.476562 174.230469 299.765625 173.46875 300.039062 C 172.90625 300.246094 172.339844 300.441406 171.769531 300.628906 C 170.582031 301.023438 169.378906 301.382812 168.167969 301.703125 C 167.574219 301.863281 166.976562 302.011719 166.378906 302.152344 C 163.867188 302.746094 161.320312 303.183594 158.757812 303.449219 C 158.109375 303.519531 157.453125 303.578125 156.800781 303.621094 C 156.234375 303.664062 155.667969 303.695312 155.097656 303.71875 C 152.792969 302.832031 150.441406 302.015625 148.042969 301.277344 C 145.945312 300.632812 143.804688 300.066406 141.644531 299.574219 C 137.453125 298.628906 133.167969 297.976562 128.882812 297.625 C 118.558594 291.71875 110.414062 281.621094 108.761719 270.332031 C 108.007812 264.339844 108.007812 258.230469 108.730469 252.222656 C 108.894531 250.824219 109.101562 249.429688 109.347656 248.046875 Z M 109.347656 248.046875"/></g><path fill="#101010" fill-opacity="1" fill-rule="nonzero" d="M 178.378906 165.046875 C 177.4375 166.039062 176.515625 167.050781 175.613281 168.078125 L 177.332031 169.152344 C 186.84375 175.140625 195.761719 181.957031 204.53125 188.65625 L 205.261719 189.21875 C 224.96875 204.273438 243.125 217.230469 265.824219 223.285156 C 278.484375 226.660156 292.265625 227.789062 307.960938 226.742188 C 320.472656 225.902344 333.820312 223.730469 349.972656 219.90625 C 356.851562 218.273438 363.808594 216.472656 370.535156 214.726562 C 370.859375 214.644531 371.1875 214.558594 371.515625 214.472656 C 370.894531 213.257812 370.523438 211.953125 370.441406 210.585938 C 370.132812 210.667969 369.828125 210.746094 369.519531 210.824219 C 362.816406 212.566406 355.878906 214.363281 349.039062 215.984375 C 333.113281 219.757812 319.972656 221.898438 307.691406 222.71875 C 292.445312 223.738281 279.089844 222.648438 266.863281 219.386719 C 244.882812 213.527344 227.070312 200.804688 207.714844 186.015625 L 206.984375 185.457031 C 198.074219 178.648438 189.019531 171.726562 179.320312 165.632812 C 179.007812 165.4375 178.695312 165.238281 178.378906 165.046875 Z M 178.378906 165.046875"/><path fill="#101010" fill-opacity="1" fill-rule="nonzero" d="M 410.054688 201.480469 C 409.15625 201.636719 408.261719 201.800781 407.363281 201.964844 C 407.636719 203.28125 407.84375 204.617188 407.960938 205.953125 C 408.855469 205.789062 409.746094 205.628906 410.644531 205.472656 C 410.5 204.183594 410.304688 202.839844 410.054688 201.480469 Z M 410.054688 201.480469"/><path fill="#101010" fill-opacity="1" fill-rule="nonzero" d="M 431.445312 202.839844 C 453.140625 201.300781 488.441406 207.464844 488 208.285156 C 489.71875 207.253906 491.472656 206.394531 493.261719 205.65625 C 473.429688 199.765625 452.09375 197.332031 431.15625 198.820312 C 426.316406 199.164062 421.503906 199.710938 416.726562 200.410156 C 415.664062 202.035156 414.5625 203.59375 413.558594 204.976562 C 419.484375 204.011719 425.449219 203.265625 431.445312 202.839844 Z M 431.445312 202.839844"/><g clip-path="url(#ddfd661fad)"><path fill="#101010" fill-opacity="1" fill-rule="nonzero" d="M 616.890625 312.886719 L 619.898438 310.203125 L 587.589844 274.066406 C 582.175781 268.011719 576.703125 261.890625 570.984375 255.902344 C 570.367188 257.128906 569.683594 258.375 568.957031 259.625 C 574.320312 265.277344 579.476562 271.046875 584.578125 276.753906 Z M 616.890625 312.886719"/></g><path fill="#101010" fill-opacity="1" fill-rule="nonzero" d="M 298.394531 277.261719 C 298.152344 275.441406 297.964844 274.058594 297.851562 273.230469 C 286.597656 273.296875 276.390625 272.074219 266.863281 269.535156 C 256.941406 266.890625 247.867188 262.84375 239.121094 257.84375 C 239.441406 259.515625 239.675781 261.1875 239.824219 262.863281 C 248.011719 267.320312 256.539062 270.953125 265.824219 273.429688 C 275.847656 276.101562 286.574219 277.371094 298.394531 277.261719 Z M 298.394531 277.261719"/><path fill="#101010" fill-opacity="1" fill-rule="nonzero" d="M 431.15625 248.96875 C 410.011719 250.472656 389.429688 255.808594 369.519531 260.972656 C 362.816406 262.710938 355.878906 264.511719 349.039062 266.128906 C 343.386719 267.472656 338.082031 268.605469 333.046875 269.546875 C 335.652344 270.386719 338.289062 271.222656 340.976562 272.074219 C 343.882812 271.460938 346.875 270.785156 349.972656 270.054688 C 356.851562 268.421875 363.808594 266.617188 370.535156 264.875 C 390.265625 259.757812 410.667969 254.464844 431.445312 252.988281 C 455.390625 251.285156 479.863281 254.828125 501.875 262.898438 C 503.570312 262.03125 505.40625 261.289062 507.351562 260.679688 C 483.765625 251.316406 457.152344 247.121094 431.15625 248.96875 Z M 431.15625 248.96875"/><g clip-path="url(#8a0bd0b1c2)"><path fill="#101010" fill-opacity="1" fill-rule="nonzero" d="M 549.960938 286.160156 C 549.425781 287.503906 548.777344 288.722656 548.050781 289.824219 C 561.59375 301.195312 573.222656 314.199219 584.578125 326.898438 L 616.890625 363.035156 L 619.898438 360.347656 L 587.589844 324.214844 C 575.9375 311.183594 564 297.835938 549.960938 286.160156 Z M 549.960938 286.160156"/></g><path fill="#101010" fill-opacity="1" fill-rule="nonzero" d="M 305.09375 327.203125 C 304.914062 325.878906 304.734375 324.542969 304.554688 323.191406 C 290.605469 323.871094 278.246094 322.71875 266.863281 319.683594 C 252.640625 315.890625 240.164062 309.226562 227.886719 300.988281 C 227.074219 302.046875 226.21875 303.09375 225.320312 304.125 C 238.015625 312.671875 250.941406 319.609375 265.824219 323.578125 C 277.707031 326.746094 290.578125 327.9375 305.09375 327.203125 Z M 305.09375 327.203125"/><path fill="#101010" fill-opacity="1" fill-rule="nonzero" d="M 532.398438 323.484375 C 503.796875 305.457031 466.898438 296.574219 431.15625 299.117188 C 414.445312 300.304688 398.082031 303.886719 382.128906 307.886719 C 382.507812 309.191406 382.882812 310.484375 383.257812 311.761719 C 398.992188 307.820312 415.101562 304.300781 431.445312 303.136719 C 466.34375 300.65625 502.355469 309.316406 530.246094 326.890625 C 545.660156 336.609375 558.476562 348.753906 570.347656 361.390625 C 572.867188 361.789062 575.371094 362.492188 577.753906 363.472656 C 577.765625 363.476562 577.773438 363.480469 577.785156 363.484375 C 564.476562 348.941406 550.183594 334.691406 532.398438 323.484375 Z M 532.398438 323.484375"/><g clip-path="url(#ac593a45f6)"><path fill="#101010" fill-opacity="1" fill-rule="nonzero" d="M 595.917969 388.722656 C 595.921875 389.019531 595.902344 389.332031 595.855469 389.660156 L 616.890625 413.183594 L 619.898438 410.496094 L 595.167969 382.839844 C 595.660156 384.765625 595.917969 386.738281 595.917969 388.722656 Z M 595.917969 388.722656"/></g><path fill="#101010" fill-opacity="1" fill-rule="nonzero" d="M 266.863281 369.832031 C 244.882812 363.96875 227.070312 351.25 207.714844 336.457031 L 206.984375 335.898438 C 204.210938 333.777344 201.421875 331.648438 198.601562 329.535156 C 198.671875 330.050781 198.734375 330.566406 198.800781 331.082031 C 198.894531 331.820312 198.980469 332.554688 199.066406 333.292969 C 199.136719 333.886719 199.203125 334.488281 199.269531 335.085938 C 201.03125 336.425781 202.78125 337.765625 204.53125 339.097656 L 205.261719 339.660156 C 224.96875 354.714844 243.125 367.671875 265.824219 373.722656 C 268.960938 374.5625 272.164062 375.257812 275.453125 375.820312 C 275.246094 375.382812 275.054688 374.941406 274.878906 374.488281 C 274.488281 373.492188 274.179688 372.480469 273.945312 371.449219 C 271.539062 370.988281 269.183594 370.449219 266.863281 369.832031 Z M 266.863281 369.832031"/><path fill="#101010" fill-opacity="1" fill-rule="nonzero" d="M 431.15625 349.261719 C 419 350.128906 407.027344 352.261719 395.265625 354.898438 C 395.46875 356.28125 395.59375 357.628906 395.640625 358.945312 C 407.410156 356.292969 419.363281 354.144531 431.445312 353.285156 C 433.960938 353.105469 436.484375 352.984375 439.011719 352.921875 C 438.253906 351.765625 437.71875 350.441406 437.445312 349.03125 C 437.4375 349 437.433594 348.96875 437.425781 348.9375 C 435.335938 349.003906 433.242188 349.113281 431.15625 349.261719 Z M 431.15625 349.261719"/><g clip-path="url(#c5f0abdc88)"><path fill="#101010" fill-opacity="1" fill-rule="nonzero" d="M 579.828125 415.871094 C 578.976562 417.054688 577.984375 418 576.992188 418.75 C 579.546875 421.566406 582.066406 424.386719 584.578125 427.195312 L 616.890625 463.332031 L 619.898438 460.644531 L 587.589844 424.507812 C 585.023438 421.640625 582.441406 418.753906 579.828125 415.871094 Z M 579.828125 415.871094"/></g><path fill="#101010" fill-opacity="1" fill-rule="nonzero" d="M 431.15625 399.410156 C 410.011719 400.914062 389.429688 406.25 369.523438 411.414062 C 362.816406 413.152344 355.878906 414.949219 349.039062 416.570312 C 333.113281 420.34375 319.972656 422.484375 307.691406 423.308594 C 292.445312 424.328125 279.089844 423.238281 266.863281 419.976562 C 244.882812 414.113281 227.070312 401.394531 207.714844 386.605469 L 206.984375 386.046875 C 204.421875 384.089844 201.851562 382.125 199.257812 380.171875 C 198.988281 381.613281 198.679688 383.066406 198.320312 384.519531 C 200.40625 386.09375 202.46875 387.671875 204.53125 389.246094 L 205.261719 389.808594 C 224.96875 404.863281 243.125 417.820312 265.824219 423.871094 C 278.484375 427.25 292.265625 428.378906 307.960938 427.328125 C 320.472656 426.492188 333.820312 424.320312 349.972656 420.492188 C 356.851562 418.863281 363.808594 417.058594 370.535156 415.316406 C 390.265625 410.199219 410.667969 404.90625 431.445312 403.433594 C 436.425781 403.078125 441.433594 402.949219 446.4375 403.046875 C 446.570312 401.71875 446.972656 400.367188 447.636719 399.039062 C 442.136719 398.902344 436.632812 399.023438 431.15625 399.410156 Z M 431.15625 399.410156"/><g clip-path="url(#bb56ee88f7)"><path fill="#101010" fill-opacity="1" fill-rule="nonzero" d="M 532.398438 423.777344 C 517.09375 414.128906 499.414062 407.101562 480.804688 403.046875 C 480.390625 403.679688 479.9375 404.328125 479.449219 404.988281 C 479.03125 405.554688 478.601562 406.089844 478.164062 406.601562 C 496.964844 410.492188 514.84375 417.480469 530.246094 427.1875 C 551.980469 440.886719 568.550781 459.417969 584.578125 477.339844 L 616.890625 513.476562 L 619.898438 510.792969 L 587.589844 474.65625 C 571.375 456.523438 554.613281 437.777344 532.398438 423.777344 Z M 532.398438 423.777344"/></g><path fill="#101010" fill-opacity="1" fill-rule="nonzero" d="M 389.140625 218.046875 C 392.421875 218.046875 395.855469 217.359375 398.628906 215.667969 C 399.25 215.289062 399.789062 214.871094 400.261719 214.414062 C 402.027344 212.699219 402.753906 210.457031 402.707031 207.871094 C 402.703125 207.578125 402.691406 207.28125 402.671875 206.988281 C 402.59375 205.660156 402.402344 204.324219 402.128906 202.984375 C 401.226562 198.554688 399.457031 194.097656 398.164062 189.945312 C 396.601562 184.945312 394.867188 180.003906 393.277344 175.015625 C 393.179688 174.714844 393.085938 174.417969 392.992188 174.121094 C 393.113281 174.136719 393.234375 174.148438 393.355469 174.164062 C 394.210938 174.28125 395.046875 174.433594 395.855469 174.625 C 405.570312 176.886719 411.90625 184.367188 413.066406 193.332031 C 413.375 195.6875 413.324219 198.148438 412.878906 200.644531 C 414.019531 199.089844 414.871094 197.355469 415.445312 195.53125 C 416.109375 193.433594 416.40625 191.21875 416.367188 189.027344 C 416.386719 180.304688 410.128906 171.753906 401.433594 168.332031 C 397.035156 166.511719 392.042969 165.78125 387.269531 166.601562 C 387.269531 166.601562 385.996094 166.824219 384.675781 167.054688 C 383.261719 167.300781 381.792969 167.558594 381.734375 167.570312 C 381.953125 167.570312 384.710938 172.480469 385.007812 172.960938 C 390.371094 181.605469 394.15625 190.917969 395.722656 200.792969 C 395.84375 201.554688 395.949219 202.320312 396.042969 203.085938 C 394.027344 202.355469 391.667969 201.933594 389.140625 201.933594 C 385.636719 201.933594 382.445312 202.746094 380.0625 204.074219 C 377.726562 205.378906 376.164062 207.175781 375.835938 209.191406 C 375.792969 209.453125 375.773438 209.722656 375.773438 209.988281 C 375.773438 211.09375 376.140625 212.148438 376.808594 213.105469 C 378.832031 216.007812 383.589844 218.046875 389.140625 218.046875 Z M 389.140625 218.046875"/><path fill="#101010" fill-opacity="1" fill-rule="nonzero" d="M 508.707031 211.078125 C 509.578125 212.421875 511.097656 215.050781 512.195312 216.953125 C 512.824219 218.046875 513.308594 218.894531 513.453125 219.128906 C 522.328125 233.429688 528.585938 248.832031 531.175781 265.164062 C 531.375 266.421875 531.550781 267.6875 531.707031 268.957031 C 528.675781 267.851562 525.167969 267.175781 521.414062 267.0625 L 521.40625 267.0625 C 521.035156 267.050781 520.664062 267.046875 520.292969 267.046875 C 517.917969 267.046875 515.628906 267.273438 513.488281 267.6875 C 510.402344 268.289062 507.613281 269.285156 505.289062 270.582031 C 500.914062 273.015625 498.175781 276.5 498.175781 280.371094 C 498.175781 287.730469 508.078125 293.699219 520.292969 293.699219 C 525.714844 293.699219 531.394531 292.5625 535.984375 289.761719 C 537.015625 289.132812 537.914062 288.4375 538.695312 287.679688 C 539.734375 286.667969 540.554688 285.546875 541.175781 284.328125 C 541.816406 283.074219 542.25 281.71875 542.492188 280.273438 C 542.671875 279.1875 542.75 278.050781 542.726562 276.871094 C 542.550781 266.988281 538.148438 256.625 535.210938 247.21875 C 532.90625 239.847656 530.378906 232.554688 527.992188 225.210938 C 527.542969 223.824219 527.09375 222.4375 526.65625 221.046875 C 526.855469 221.074219 527.058594 221.09375 527.257812 221.121094 C 528.074219 221.230469 528.878906 221.363281 529.671875 221.515625 C 530.253906 221.621094 530.828125 221.746094 531.394531 221.875 C 543.289062 224.652344 552.121094 232.144531 556.683594 241.867188 C 557.882812 244.414062 558.785156 247.113281 559.375 249.921875 C 560.375 254.683594 560.464844 259.753906 559.546875 264.914062 C 561.441406 262.339844 562.847656 259.46875 563.800781 256.449219 C 563.972656 255.898438 564.132812 255.339844 564.273438 254.78125 C 564.683594 253.1875 564.972656 251.5625 565.140625 249.925781 C 565.285156 248.519531 565.34375 247.109375 565.320312 245.699219 C 565.351562 231.277344 555.003906 217.132812 540.621094 211.476562 C 533.347656 208.464844 525.085938 207.253906 517.191406 208.613281 C 517.191406 208.613281 515.09375 208.980469 512.90625 209.363281 C 510.585938 209.765625 508.167969 210.191406 508.042969 210.210938 C 508.113281 210.210938 508.359375 210.542969 508.707031 211.078125 Z M 508.707031 211.078125"/><path fill="#101010" fill-opacity="1" fill-rule="nonzero" d="M 589.644531 395.265625 C 590.308594 393.167969 590.605469 390.953125 590.566406 388.761719 C 590.570312 386.683594 590.222656 384.613281 589.566406 382.625 C 587.621094 376.722656 583.007812 371.496094 577.074219 368.691406 C 576.601562 368.464844 576.121094 368.257812 575.636719 368.066406 C 571.234375 366.246094 566.246094 365.511719 561.46875 366.332031 C 561.46875 366.332031 560.199219 366.558594 558.875 366.789062 C 557.464844 367.035156 555.996094 367.292969 555.9375 367.304688 C 556.15625 367.304688 558.914062 372.210938 559.207031 372.695312 C 564.574219 381.339844 568.355469 390.652344 569.925781 400.527344 C 570.046875 401.289062 570.152344 402.054688 570.246094 402.820312 C 569.15625 402.425781 567.960938 402.117188 566.695312 401.921875 C 565.625 401.753906 564.5 401.664062 563.347656 401.664062 C 562.496094 401.664062 561.664062 401.710938 560.855469 401.804688 C 558.347656 402.085938 556.082031 402.796875 554.28125 403.800781 C 554.28125 403.800781 554.277344 403.800781 554.277344 403.804688 C 551.628906 405.273438 549.972656 407.382812 549.972656 409.722656 C 549.972656 414.171875 555.960938 417.78125 563.347656 417.78125 C 566.625 417.78125 570.058594 417.09375 572.832031 415.402344 C 573.074219 415.253906 573.300781 415.101562 573.515625 414.945312 C 573.863281 414.691406 574.179688 414.425781 574.46875 414.144531 C 575.183594 413.449219 575.730469 412.667969 576.117188 411.816406 C 576.695312 410.558594 576.9375 409.144531 576.910156 407.605469 C 576.804688 401.628906 574.144531 395.363281 572.367188 389.679688 C 570.710938 384.378906 568.863281 379.144531 567.195312 373.851562 C 567.316406 373.867188 567.4375 373.882812 567.558594 373.898438 C 568.414062 374.015625 569.25 374.167969 570.058594 374.355469 C 582.332031 377.21875 589.210938 388.394531 587.082031 400.378906 C 588.222656 398.824219 589.074219 397.089844 589.648438 395.265625 Z M 589.644531 395.265625"/><path fill="#101010" fill-opacity="1" fill-rule="nonzero" d="M 355.148438 346.523438 C 343.210938 350.605469 335.863281 360.316406 337.769531 368.914062 C 337.910156 369.542969 338.097656 370.164062 338.335938 370.777344 C 338.601562 371.453125 338.921875 372.101562 339.292969 372.71875 C 343.851562 380.308594 356.066406 383.21875 367.914062 379.167969 C 373.503906 377.253906 379.097656 374.378906 382.171875 369.414062 C 383.769531 366.835938 384.535156 364.199219 384.769531 361.53125 C 384.890625 360.15625 384.863281 358.773438 384.738281 357.386719 C 384.667969 356.578125 384.558594 355.773438 384.421875 354.960938 C 383.988281 352.351562 383.269531 349.738281 382.539062 347.140625 C 379.976562 338.046875 377.277344 328.988281 374.601562 319.921875 C 374.058594 318.078125 373.515625 316.234375 372.976562 314.386719 C 372.597656 313.097656 372.21875 311.808594 371.847656 310.515625 C 371.3125 308.683594 370.785156 306.847656 370.257812 305.015625 C 369.539062 302.488281 368.824219 299.957031 368.125 297.425781 C 367.777344 296.160156 367.429688 294.894531 367.085938 293.625 C 366.964844 293.179688 366.507812 290.226562 366.140625 290.097656 C 351.234375 284.816406 335.976562 280.445312 321.382812 275.519531 C 320.121094 275.097656 318.867188 274.667969 317.617188 274.234375 L 312.574219 272.472656 L 307.335938 270.648438 C 307.367188 270.882812 307.472656 271.652344 307.636719 272.867188 C 307.773438 273.902344 307.953125 275.253906 308.171875 276.875 C 309.460938 286.472656 312.007812 305.449219 314.285156 322.453125 C 314.464844 323.796875 314.644531 325.132812 314.820312 326.449219 C 315.792969 333.691406 316.6875 340.386719 317.390625 345.601562 C 312.324219 344.394531 306.339844 344.648438 300.449219 346.664062 C 287.832031 350.976562 280.4375 361.71875 283.933594 370.65625 C 284.257812 371.488281 284.667969 372.273438 285.148438 373.015625 C 286.269531 374.730469 287.792969 376.195312 289.617188 377.371094 C 295.457031 381.140625 304.386719 382.007812 313.101562 379.027344 C 315.320312 378.269531 317.480469 377.277344 319.484375 376.058594 C 321.742188 374.691406 323.804688 373.042969 325.53125 371.132812 C 326.414062 370.15625 327.210938 369.113281 327.902344 368.003906 C 329.269531 365.8125 330.292969 363.28125 330.441406 360.730469 C 330.65625 357.15625 328.980469 353.589844 328.648438 350.027344 C 328.46875 348.140625 328.289062 346.253906 328.105469 344.363281 C 327.59375 338.972656 327.078125 333.582031 326.5625 328.1875 C 326.457031 327.109375 326.355469 326.03125 326.253906 324.953125 C 326.125 323.613281 325.996094 322.273438 325.867188 320.933594 C 325.003906 311.867188 324.136719 302.796875 323.269531 293.730469 C 323.128906 292.21875 322.980469 290.703125 322.835938 289.191406 C 333.785156 292.753906 344.691406 296 355.304688 299.613281 C 357.015625 304.242188 358.769531 308.847656 360.542969 313.433594 C 361.03125 314.699219 361.519531 315.960938 362.007812 317.21875 C 365.707031 326.714844 369.460938 336.152344 373.078125 345.609375 C 367.789062 344.191406 361.417969 344.378906 355.148438 346.523438 Z M 355.148438 346.523438"/><path fill="#101010" fill-opacity="1" fill-rule="nonzero" d="M 480.867188 392.941406 C 481.292969 388.945312 481.53125 384.933594 481.472656 380.90625 C 481.351562 372.625 480.125 364.355469 477.851562 356.386719 C 477.433594 354.917969 476.980469 353.460938 476.488281 352.011719 C 473.078125 341.925781 467.964844 332.414062 461.289062 324.089844 L 458.539062 320.660156 L 456.628906 324.742188 C 456.464844 325.253906 456.257812 325.777344 455.996094 326.296875 C 455.121094 327.972656 453.917969 329.394531 452.523438 330.773438 C 448.671875 334.519531 443.507812 337.484375 441.554688 342.785156 C 440.925781 344.550781 440.707031 346.503906 441.070312 348.328125 C 441.105469 348.503906 441.144531 348.675781 441.1875 348.851562 C 441.523438 350.089844 442.167969 351.242188 443.117188 352.105469 C 442.898438 351.828125 442.703125 351.53125 442.53125 351.222656 C 442.132812 350.464844 441.894531 349.660156 441.792969 348.84375 C 441.449219 346.019531 442.753906 343.027344 444.75 341.046875 C 447.15625 338.566406 450.339844 336.996094 453.273438 335.171875 C 455.421875 333.824219 457.496094 332.289062 459.222656 330.386719 C 461.34375 333.28125 463.273438 336.316406 465.007812 339.460938 C 464.75 340.527344 464.21875 341.539062 463.574219 342.449219 C 463.355469 342.753906 463.125 343.050781 462.882812 343.339844 C 461.914062 344.503906 460.773438 345.527344 459.582031 346.492188 C 458.429688 347.417969 457.226562 348.339844 456.082031 349.3125 C 454.699219 350.480469 453.402344 351.71875 452.363281 353.113281 L 452.359375 353.113281 C 450.917969 355.046875 449.976562 357.28125 450.015625 360.035156 C 450.058594 361.457031 450.5 362.863281 451.378906 363.984375 C 449.730469 360.972656 451.046875 357.234375 453.214844 354.863281 C 453.761719 354.277344 454.355469 353.753906 454.976562 353.269531 C 459.234375 353.5625 463.480469 354.011719 467.691406 354.617188 C 467.195312 353.171875 466.660156 351.746094 466.089844 350.332031 C 464.328125 350.101562 462.5625 349.894531 460.792969 349.722656 C 461.667969 349.234375 462.53125 348.738281 463.371094 348.191406 C 463.84375 347.890625 464.308594 347.570312 464.761719 347.230469 C 465.800781 346.453125 466.777344 345.582031 467.632812 344.605469 C 468.601562 346.679688 469.488281 348.792969 470.296875 350.9375 C 470.835938 352.363281 471.335938 353.804688 471.796875 355.257812 C 472.496094 357.449219 473.109375 359.667969 473.636719 361.902344 C 475.875 371.402344 476.5625 381.285156 475.566406 390.992188 C 472.09375 389.96875 467.355469 390.1875 462.539062 391.863281 C 457.757812 393.53125 453.9375 396.269531 451.84375 399.199219 C 450.90625 400.503906 450.316406 401.851562 450.136719 403.15625 C 450.015625 404.050781 450.085938 404.925781 450.378906 405.761719 C 452.039062 410.515625 460.171875 412.011719 468.550781 409.097656 C 470.558594 408.394531 472.328125 407.210938 473.863281 405.765625 C 474.824219 404.859375 475.699219 403.851562 476.480469 402.796875 C 476.617188 402.609375 476.753906 402.425781 476.886719 402.238281 C 478.5 399.980469 479.863281 397.570312 480.523438 394.898438 C 480.679688 394.261719 480.796875 393.613281 480.867188 392.941406 Z M 480.867188 392.941406"/></svg>