<svg xmlns="http://www.w3.org/2000/svg" xmlns:xlink="http://www.w3.org/1999/xlink" width="500" zoomAndPan="magnify" viewBox="0 0 375 374.999991" height="500" preserveAspectRatio="xMidYMid meet" version="1.0"><defs><clipPath id="c24592699a"><path d="M 0 22.734375 L 375 22.734375 L 375 351.984375 L 0 351.984375 Z M 0 22.734375 " clip-rule="nonzero"/></clipPath></defs><path fill="#000000" d="M 67.367188 279.082031 C 67.382812 278.398438 67.332031 277.714844 67.214844 277.039062 C 67.097656 276.363281 66.917969 275.703125 66.675781 275.058594 C 66.433594 274.417969 66.128906 273.804688 65.769531 273.21875 C 65.410156 272.636719 64.996094 272.089844 64.53125 271.585938 C 64.066406 271.082031 63.554688 270.625 63.003906 270.21875 C 62.449219 269.808594 61.863281 269.457031 61.242188 269.164062 C 60.621094 268.867188 59.976562 268.632812 59.3125 268.460938 C 58.648438 268.289062 57.972656 268.183594 57.285156 268.140625 C 56.101562 268.117188 54.957031 268.328125 53.859375 268.773438 C 52.757812 269.222656 51.792969 269.867188 50.960938 270.710938 C 49.894531 271.863281 49.105469 273.1875 48.597656 274.671875 C 48.089844 276.160156 47.90625 277.6875 48.042969 279.25 L 48.964844 297.230469 C 48.976562 297.441406 49.027344 297.640625 49.113281 297.832031 C 49.203125 298.023438 49.320312 298.191406 49.472656 298.335938 C 49.628906 298.480469 49.800781 298.59375 49.996094 298.671875 C 50.191406 298.75 50.394531 298.789062 50.605469 298.789062 L 66.667969 298.789062 C 66.890625 298.789062 67.109375 298.742188 67.316406 298.65625 C 67.523438 298.566406 67.703125 298.441406 67.859375 298.277344 C 68.011719 298.113281 68.128906 297.929688 68.207031 297.71875 C 68.285156 297.507812 68.316406 297.289062 68.304688 297.066406 Z M 52.160156 295.511719 L 51.316406 279.082031 C 51.207031 277.976562 51.324219 276.894531 51.667969 275.835938 C 52.015625 274.777344 52.558594 273.835938 53.300781 273.003906 C 53.816406 272.460938 54.421875 272.050781 55.121094 271.773438 C 55.816406 271.496094 56.539062 271.378906 57.289062 271.421875 C 57.769531 271.460938 58.238281 271.542969 58.703125 271.675781 C 59.164062 271.804688 59.609375 271.980469 60.039062 272.195312 C 60.46875 272.414062 60.871094 272.667969 61.25 272.964844 C 61.628906 273.257812 61.976562 273.589844 62.292969 273.949219 C 62.605469 274.3125 62.882812 274.703125 63.121094 275.121094 C 63.363281 275.535156 63.558594 275.972656 63.714844 276.425781 C 63.871094 276.878906 63.980469 277.34375 64.042969 277.820312 C 64.109375 278.296875 64.125 278.773438 64.097656 279.253906 L 64.929688 295.515625 Z M 52.160156 295.511719 " fill-opacity="1" fill-rule="nonzero"/><path fill="#000000" d="M 127.511719 110.707031 C 125.9375 109.175781 124.128906 108.003906 122.089844 107.183594 C 120.050781 106.363281 117.929688 105.960938 115.730469 105.972656 L 115.625 105.972656 C 113.40625 105.957031 111.265625 106.355469 109.207031 107.171875 C 107.144531 107.988281 105.308594 109.164062 103.707031 110.691406 C 102.222656 112.171875 101.089844 113.882812 100.304688 115.828125 C 99.519531 117.769531 99.148438 119.789062 99.191406 121.886719 L 99.191406 137.277344 C 99.191406 137.496094 99.234375 137.703125 99.316406 137.90625 C 99.398438 138.105469 99.519531 138.28125 99.671875 138.4375 C 99.824219 138.589844 100.003906 138.707031 100.203125 138.792969 C 100.402344 138.875 100.613281 138.917969 100.832031 138.917969 L 130.398438 138.917969 C 130.613281 138.917969 130.824219 138.875 131.023438 138.792969 C 131.226562 138.707031 131.402344 138.589844 131.554688 138.4375 C 131.710938 138.28125 131.828125 138.105469 131.910156 137.90625 C 131.996094 137.703125 132.035156 137.496094 132.035156 137.277344 L 132.035156 121.886719 C 132.074219 119.792969 131.699219 117.777344 130.914062 115.835938 C 130.128906 113.894531 128.996094 112.183594 127.511719 110.707031 Z M 128.753906 135.632812 L 102.46875 135.632812 L 102.46875 121.875 C 102.433594 120.21875 102.722656 118.617188 103.335938 117.078125 C 103.953125 115.539062 104.847656 114.179688 106.015625 113.003906 C 107.292969 111.746094 108.765625 110.789062 110.433594 110.132812 C 112.101562 109.480469 113.832031 109.179688 115.625 109.238281 C 117.410156 109.21875 119.132812 109.539062 120.792969 110.195312 C 122.453125 110.851562 123.929688 111.796875 125.21875 113.027344 C 126.386719 114.199219 127.28125 115.554688 127.898438 117.089844 C 128.515625 118.625 128.804688 120.21875 128.773438 121.871094 Z M 128.753906 135.632812 " fill-opacity="1" fill-rule="nonzero"/><path fill="#000000" d="M 277.332031 137.269531 L 277.332031 121.875 C 277.371094 119.785156 276.996094 117.769531 276.210938 115.828125 C 275.425781 113.890625 274.292969 112.179688 272.8125 110.703125 C 271.234375 109.175781 269.425781 108 267.386719 107.179688 C 265.347656 106.363281 263.226562 105.957031 261.027344 105.972656 L 260.8125 105.972656 C 258.613281 105.957031 256.488281 106.355469 254.449219 107.171875 C 252.40625 107.988281 250.59375 109.164062 249.011719 110.691406 C 247.527344 112.171875 246.394531 113.882812 245.609375 115.828125 C 244.828125 117.769531 244.457031 119.789062 244.496094 121.886719 L 244.496094 137.277344 C 244.496094 137.496094 244.539062 137.703125 244.621094 137.90625 C 244.707031 138.105469 244.824219 138.28125 244.976562 138.4375 C 245.132812 138.589844 245.308594 138.707031 245.507812 138.792969 C 245.710938 138.875 245.917969 138.917969 246.136719 138.917969 L 275.703125 138.917969 C 275.921875 138.914062 276.128906 138.871094 276.332031 138.789062 C 276.53125 138.703125 276.707031 138.585938 276.859375 138.429688 C 277.011719 138.273438 277.128906 138.097656 277.210938 137.894531 C 277.292969 137.695312 277.335938 137.484375 277.332031 137.269531 Z M 274.054688 135.632812 L 247.765625 135.632812 L 247.765625 121.875 C 247.726562 120.21875 248.019531 118.617188 248.632812 117.078125 C 249.25 115.539062 250.140625 114.179688 251.3125 113.003906 C 252.589844 111.746094 254.0625 110.792969 255.734375 110.140625 C 257.402344 109.488281 259.132812 109.1875 260.925781 109.246094 C 262.710938 109.226562 264.429688 109.542969 266.089844 110.199219 C 267.75 110.855469 269.222656 111.800781 270.507812 113.035156 C 271.675781 114.207031 272.570312 115.5625 273.1875 117.09375 C 273.804688 118.628906 274.09375 120.226562 274.0625 121.878906 Z M 274.054688 135.632812 " fill-opacity="1" fill-rule="nonzero"/><path fill="#000000" d="M 179.902344 213.949219 C 182.128906 215.425781 184.4375 216.949219 186.480469 218.570312 C 186.777344 218.804688 187.117188 218.925781 187.5 218.925781 C 187.882812 218.925781 188.222656 218.804688 188.519531 218.570312 C 190.5625 216.929688 192.871094 215.425781 195.097656 213.949219 C 203.40625 208.472656 211.996094 202.816406 208.316406 191.109375 C 208.140625 190.59375 207.925781 190.09375 207.667969 189.609375 C 207.410156 189.128906 207.117188 188.667969 206.785156 188.234375 C 206.457031 187.796875 206.09375 187.390625 205.695312 187.015625 C 205.300781 186.636719 204.878906 186.292969 204.425781 185.984375 C 203.976562 185.675781 203.503906 185.402344 203.007812 185.171875 C 202.515625 184.9375 202.003906 184.742188 201.480469 184.589844 C 200.953125 184.441406 200.417969 184.332031 199.875 184.265625 C 199.332031 184.199219 198.789062 184.175781 198.242188 184.195312 C 197.160156 184.234375 196.101562 184.402344 195.0625 184.703125 C 194.019531 185 193.03125 185.417969 192.097656 185.960938 C 191.160156 186.503906 190.304688 187.148438 189.527344 187.898438 C 188.746094 188.652344 188.074219 189.484375 187.5 190.402344 C 186.929688 189.484375 186.257812 188.648438 185.480469 187.898438 C 184.703125 187.144531 183.847656 186.5 182.914062 185.957031 C 181.980469 185.414062 180.992188 184.992188 179.957031 184.691406 C 178.917969 184.390625 177.859375 184.21875 176.777344 184.179688 C 176.226562 184.15625 175.679688 184.179688 175.132812 184.246094 C 174.585938 184.3125 174.046875 184.421875 173.519531 184.574219 C 172.988281 184.726562 172.476562 184.921875 171.980469 185.15625 C 171.480469 185.390625 171.003906 185.667969 170.550781 185.980469 C 170.097656 186.292969 169.675781 186.636719 169.277344 187.019531 C 168.878906 187.402344 168.515625 187.8125 168.183594 188.25 C 167.855469 188.691406 167.558594 189.15625 167.304688 189.640625 C 167.046875 190.128906 166.832031 190.632812 166.660156 191.15625 C 163.003906 202.804688 171.59375 208.484375 179.902344 213.949219 Z M 169.765625 192.21875 C 170 191.511719 170.339844 190.859375 170.785156 190.261719 C 171.230469 189.664062 171.757812 189.152344 172.371094 188.722656 C 172.980469 188.296875 173.640625 187.976562 174.355469 187.761719 C 175.070312 187.546875 175.800781 187.449219 176.546875 187.46875 L 176.714844 187.46875 C 177.769531 187.519531 178.789062 187.730469 179.777344 188.097656 C 180.765625 188.46875 181.675781 188.984375 182.5 189.636719 C 183.328125 190.292969 184.035156 191.058594 184.621094 191.933594 C 185.207031 192.8125 185.648438 193.757812 185.9375 194.769531 C 186.042969 195.113281 186.242188 195.386719 186.527344 195.597656 C 186.816406 195.8125 187.140625 195.917969 187.496094 195.917969 C 187.855469 195.917969 188.175781 195.8125 188.464844 195.601562 C 188.753906 195.390625 188.953125 195.113281 189.058594 194.773438 C 189.351562 193.757812 189.792969 192.8125 190.382812 191.933594 C 190.972656 191.054688 191.679688 190.289062 192.511719 189.632812 C 193.339844 188.976562 194.253906 188.464844 195.246094 188.097656 C 196.234375 187.726562 197.261719 187.519531 198.316406 187.472656 C 199.070312 187.433594 199.808594 187.515625 200.535156 187.71875 C 201.257812 187.921875 201.933594 188.234375 202.558594 188.65625 C 203.179688 189.078125 203.71875 189.589844 204.175781 190.1875 C 204.632812 190.785156 204.984375 191.441406 205.226562 192.152344 C 208.144531 201.429688 201.269531 205.964844 193.308594 211.21875 C 191.375 212.492188 189.375 213.804688 187.515625 215.21875 C 185.648438 213.804688 183.660156 212.492188 181.722656 211.21875 C 173.734375 205.964844 166.871094 201.429688 169.765625 192.21875 Z M 169.765625 192.21875 " fill-opacity="1" fill-rule="nonzero"/><path fill="#000000" d="M 307.144531 298.277344 C 307.46875 298.617188 307.867188 298.789062 308.335938 298.789062 L 324.398438 298.789062 C 324.609375 298.789062 324.8125 298.75 325.007812 298.671875 C 325.203125 298.59375 325.375 298.480469 325.527344 298.335938 C 325.679688 298.191406 325.800781 298.023438 325.890625 297.832031 C 325.976562 297.640625 326.027344 297.441406 326.035156 297.230469 L 326.960938 279.25 C 327.097656 277.6875 326.910156 276.160156 326.402344 274.671875 C 325.894531 273.1875 325.109375 271.863281 324.042969 270.710938 C 323.226562 269.875 322.273438 269.234375 321.195312 268.785156 C 320.113281 268.339844 318.984375 268.125 317.816406 268.140625 C 317.125 268.175781 316.441406 268.273438 315.769531 268.441406 C 315.097656 268.605469 314.449219 268.835938 313.824219 269.125 C 313.195312 269.417969 312.601562 269.765625 312.042969 270.171875 C 311.480469 270.578125 310.964844 271.035156 310.496094 271.542969 C 310.023438 272.046875 309.605469 272.59375 309.242188 273.183594 C 308.875 273.769531 308.570312 274.386719 308.324219 275.03125 C 308.078125 275.679688 307.898438 276.34375 307.78125 277.023438 C 307.664062 277.707031 307.613281 278.394531 307.632812 279.082031 L 306.710938 297.066406 C 306.683594 297.53125 306.828125 297.933594 307.144531 298.277344 Z M 310.894531 279.25 C 311.125 274.746094 314.011719 271.21875 317.800781 271.417969 C 318.535156 271.378906 319.242188 271.496094 319.925781 271.773438 C 320.605469 272.050781 321.195312 272.460938 321.691406 273 C 322.433594 273.832031 322.976562 274.777344 323.320312 275.835938 C 323.667969 276.894531 323.785156 277.976562 323.671875 279.082031 L 322.832031 295.511719 L 310.046875 295.511719 Z M 310.894531 279.25 " fill-opacity="1" fill-rule="nonzero"/><g clip-path="url(#c24592699a)"><path fill="#000000" d="M 373.359375 328.882812 L 339.519531 328.882812 L 343.648438 270.199219 L 348.363281 274.480469 C 348.675781 274.761719 349.042969 274.90625 349.464844 274.90625 L 349.542969 274.90625 C 349.996094 274.882812 350.375 274.703125 350.675781 274.367188 L 363.886719 259.824219 C 364.035156 259.664062 364.144531 259.484375 364.214844 259.277344 C 364.289062 259.074219 364.320312 258.863281 364.3125 258.648438 C 364.300781 258.429688 364.25 258.222656 364.15625 258.027344 C 364.0625 257.832031 363.9375 257.660156 363.777344 257.511719 L 295.734375 195.710938 L 298.03125 115.953125 C 298.460938 115.953125 298.832031 115.808594 299.148438 115.515625 L 308.734375 106.582031 C 308.894531 106.433594 309.019531 106.257812 309.109375 106.058594 C 309.199219 105.859375 309.25 105.652344 309.253906 105.433594 C 309.261719 105.214844 309.226562 105.003906 309.148438 104.800781 C 309.070312 104.597656 308.957031 104.417969 308.808594 104.257812 L 262.566406 55.261719 L 262.566406 36.164062 L 269.535156 36.164062 C 269.75 36.164062 269.960938 36.121094 270.160156 36.039062 C 270.363281 35.957031 270.539062 35.839844 270.695312 35.683594 C 270.847656 35.53125 270.964844 35.355469 271.046875 35.152344 C 271.132812 34.953125 271.171875 34.742188 271.171875 34.527344 C 271.171875 34.308594 271.132812 34.101562 271.046875 33.898438 C 270.964844 33.699219 270.847656 33.523438 270.695312 33.367188 C 270.539062 33.214844 270.363281 33.097656 270.160156 33.015625 C 269.960938 32.929688 269.75 32.890625 269.535156 32.890625 L 262.566406 32.890625 L 262.566406 24.523438 C 262.566406 24.308594 262.523438 24.097656 262.441406 23.898438 C 262.359375 23.695312 262.238281 23.519531 262.085938 23.367188 C 261.933594 23.210938 261.753906 23.09375 261.554688 23.011719 C 261.351562 22.929688 261.144531 22.886719 260.925781 22.886719 C 260.710938 22.886719 260.5 22.929688 260.300781 23.011719 C 260.097656 23.09375 259.921875 23.210938 259.769531 23.367188 C 259.613281 23.519531 259.496094 23.695312 259.414062 23.898438 C 259.328125 24.097656 259.289062 24.308594 259.289062 24.523438 L 259.289062 32.890625 L 252.664062 32.890625 C 252.445312 32.890625 252.234375 32.929688 252.035156 33.015625 C 251.835938 33.097656 251.65625 33.214844 251.503906 33.367188 C 251.351562 33.523438 251.230469 33.699219 251.148438 33.898438 C 251.066406 34.101562 251.023438 34.308594 251.023438 34.527344 C 251.023438 34.742188 251.066406 34.953125 251.148438 35.152344 C 251.230469 35.355469 251.351562 35.53125 251.503906 35.683594 C 251.65625 35.839844 251.835938 35.957031 252.035156 36.039062 C 252.234375 36.121094 252.445312 36.164062 252.664062 36.164062 L 259.289062 36.164062 L 259.289062 54.601562 L 212.933594 104.230469 C 212.625 104.5625 212.480469 104.953125 212.496094 105.40625 C 212.511719 105.855469 212.683594 106.238281 213.015625 106.542969 L 222.601562 115.46875 C 222.847656 115.6875 223.132812 115.816406 223.460938 115.859375 L 223.460938 147.5 L 189.140625 112.617188 L 189.140625 87.921875 L 200.410156 87.921875 C 200.625 87.921875 200.835938 87.878906 201.035156 87.796875 C 201.238281 87.714844 201.414062 87.597656 201.566406 87.441406 C 201.722656 87.289062 201.839844 87.113281 201.921875 86.910156 C 202.007812 86.710938 202.046875 86.5 202.046875 86.285156 C 202.046875 86.066406 202.007812 85.859375 201.921875 85.65625 C 201.839844 85.457031 201.722656 85.28125 201.566406 85.125 C 201.414062 84.972656 201.238281 84.855469 201.035156 84.769531 C 200.835938 84.6875 200.625 84.648438 200.410156 84.648438 L 189.140625 84.648438 L 189.140625 72.601562 C 189.140625 72.382812 189.097656 72.175781 189.015625 71.972656 C 188.929688 71.773438 188.8125 71.597656 188.660156 71.441406 C 188.503906 71.289062 188.328125 71.171875 188.128906 71.085938 C 187.925781 71.003906 187.71875 70.964844 187.5 70.964844 C 187.28125 70.964844 187.074219 71.003906 186.871094 71.085938 C 186.671875 71.171875 186.496094 71.289062 186.339844 71.441406 C 186.1875 71.597656 186.070312 71.773438 185.984375 71.972656 C 185.902344 72.175781 185.859375 72.382812 185.859375 72.601562 L 185.859375 84.648438 L 174.589844 84.648438 C 174.375 84.648438 174.164062 84.6875 173.964844 84.769531 C 173.761719 84.855469 173.585938 84.972656 173.433594 85.125 C 173.277344 85.28125 173.160156 85.457031 173.078125 85.65625 C 172.992188 85.859375 172.953125 86.066406 172.953125 86.285156 C 172.953125 86.5 172.992188 86.710938 173.078125 86.910156 C 173.160156 87.113281 173.277344 87.289062 173.433594 87.441406 C 173.585938 87.597656 173.761719 87.714844 173.964844 87.796875 C 174.164062 87.878906 174.375 87.921875 174.589844 87.921875 L 185.859375 87.921875 L 185.859375 112.617188 L 153.082031 145.945312 L 153.082031 115.886719 C 153.382812 115.832031 153.644531 115.707031 153.875 115.503906 L 163.460938 106.570312 C 163.621094 106.421875 163.746094 106.25 163.835938 106.050781 C 163.925781 105.851562 163.976562 105.640625 163.980469 105.425781 C 163.988281 105.207031 163.953125 104.996094 163.875 104.792969 C 163.796875 104.589844 163.683594 104.40625 163.535156 104.25 L 117.253906 55.261719 L 117.253906 36.164062 L 124.234375 36.164062 C 124.453125 36.164062 124.660156 36.121094 124.863281 36.039062 C 125.0625 35.957031 125.242188 35.839844 125.394531 35.683594 C 125.546875 35.53125 125.667969 35.355469 125.75 35.152344 C 125.832031 34.953125 125.875 34.742188 125.875 34.527344 C 125.875 34.308594 125.832031 34.101562 125.75 33.898438 C 125.667969 33.699219 125.546875 33.523438 125.394531 33.367188 C 125.242188 33.214844 125.0625 33.097656 124.863281 33.015625 C 124.660156 32.929688 124.453125 32.890625 124.234375 32.890625 L 117.253906 32.890625 L 117.253906 24.523438 C 117.253906 24.308594 117.210938 24.097656 117.128906 23.898438 C 117.046875 23.695312 116.925781 23.519531 116.773438 23.367188 C 116.621094 23.210938 116.441406 23.09375 116.242188 23.011719 C 116.039062 22.929688 115.832031 22.886719 115.613281 22.886719 C 115.398438 22.886719 115.1875 22.929688 114.988281 23.011719 C 114.785156 23.09375 114.609375 23.210938 114.457031 23.367188 C 114.300781 23.519531 114.183594 23.695312 114.101562 23.898438 C 114.015625 24.097656 113.976562 24.308594 113.976562 24.523438 L 113.976562 32.890625 L 107.367188 32.890625 C 107.148438 32.890625 106.941406 32.929688 106.738281 33.015625 C 106.539062 33.097656 106.363281 33.214844 106.207031 33.367188 C 106.054688 33.523438 105.9375 33.699219 105.851562 33.898438 C 105.769531 34.101562 105.726562 34.308594 105.726562 34.527344 C 105.726562 34.742188 105.769531 34.953125 105.851562 35.152344 C 105.9375 35.355469 106.054688 35.53125 106.207031 35.683594 C 106.363281 35.839844 106.539062 35.957031 106.738281 36.039062 C 106.941406 36.121094 107.148438 36.164062 107.367188 36.164062 L 113.976562 36.164062 L 113.976562 54.601562 L 67.636719 104.230469 C 67.488281 104.386719 67.375 104.570312 67.300781 104.773438 C 67.222656 104.976562 67.1875 105.1875 67.195312 105.402344 C 67.203125 105.621094 67.253906 105.828125 67.34375 106.023438 C 67.433594 106.222656 67.558594 106.394531 67.714844 106.542969 L 77.304688 115.46875 C 77.644531 115.785156 78.042969 115.929688 78.503906 115.90625 L 80.769531 194.316406 L 11.222656 257.511719 C 11.0625 257.660156 10.9375 257.832031 10.84375 258.027344 C 10.75 258.222656 10.699219 258.429688 10.6875 258.648438 C 10.679688 258.863281 10.710938 259.074219 10.785156 259.277344 C 10.855469 259.484375 10.964844 259.664062 11.113281 259.824219 L 24.324219 274.367188 C 24.625 274.703125 25.003906 274.882812 25.457031 274.90625 L 25.535156 274.90625 C 25.957031 274.90625 26.324219 274.761719 26.636719 274.480469 L 31.351562 270.195312 L 35.480469 328.882812 L 1.640625 328.882812 C 1.421875 328.882812 1.210938 328.925781 1.011719 329.007812 C 0.8125 329.089844 0.632812 329.210938 0.480469 329.363281 C 0.328125 329.515625 0.207031 329.691406 0.125 329.894531 C 0.0429688 330.09375 0 330.304688 0 330.519531 L 0 350.523438 C 0 350.738281 0.0429688 350.949219 0.125 351.148438 C 0.207031 351.347656 0.328125 351.527344 0.480469 351.679688 C 0.632812 351.832031 0.8125 351.953125 1.011719 352.035156 C 1.210938 352.117188 1.421875 352.160156 1.640625 352.160156 L 373.359375 352.160156 C 373.578125 352.160156 373.789062 352.117188 373.988281 352.035156 C 374.1875 351.953125 374.367188 351.832031 374.519531 351.679688 C 374.671875 351.527344 374.792969 351.347656 374.875 351.148438 C 374.957031 350.949219 375 350.738281 375 350.523438 L 375 330.519531 C 375 330.304688 374.957031 330.09375 374.875 329.894531 C 374.792969 329.691406 374.671875 329.515625 374.519531 329.363281 C 374.367188 329.210938 374.1875 329.089844 373.988281 329.007812 C 373.789062 328.925781 373.578125 328.882812 373.359375 328.882812 Z M 336.246094 328.882812 L 291.886719 328.882812 L 294.863281 225.863281 L 340.5625 267.390625 Z M 187.5 115.625 L 267.648438 197.117188 L 258.296875 206.285156 L 226.257812 173.710938 L 188.667969 135.503906 C 188.511719 135.347656 188.335938 135.226562 188.132812 135.144531 C 187.929688 135.058594 187.71875 135.015625 187.5 135.015625 C 187.28125 135.015625 187.070312 135.058594 186.867188 135.144531 C 186.664062 135.226562 186.488281 135.347656 186.332031 135.503906 L 150.296875 172.128906 L 150.273438 172.152344 L 116.695312 206.300781 L 107.34375 197.128906 Z M 187.5 139.152344 L 252.957031 205.863281 L 246.519531 328.867188 L 213.007812 328.867188 L 216.804688 266.402344 C 216.976562 264.214844 216.914062 262.03125 216.621094 259.859375 C 216.324219 257.683594 215.804688 255.5625 215.054688 253.5 C 214.304688 251.4375 213.347656 249.476562 212.179688 247.617188 C 211.007812 245.757812 209.65625 244.042969 208.121094 242.472656 C 206.789062 241.136719 205.332031 239.957031 203.746094 238.9375 C 202.15625 237.914062 200.480469 237.074219 198.710938 236.417969 C 196.941406 235.761719 195.121094 235.300781 193.25 235.035156 C 191.382812 234.773438 189.507812 234.714844 187.625 234.855469 C 185.722656 234.703125 183.828125 234.753906 181.9375 235.011719 C 180.046875 235.269531 178.207031 235.726562 176.414062 236.382812 C 174.625 237.039062 172.925781 237.882812 171.316406 238.910156 C 169.710938 239.9375 168.230469 241.121094 166.882812 242.472656 C 165.34375 244.039062 163.992188 245.753906 162.824219 247.613281 C 161.65625 249.472656 160.695312 251.433594 159.945312 253.496094 C 159.199219 255.5625 158.675781 257.679688 158.378906 259.855469 C 158.085938 262.03125 158.023438 264.214844 158.195312 266.402344 L 161.992188 328.867188 L 128.496094 328.867188 L 122.042969 205.863281 Z M 165.277344 328.867188 L 161.464844 266.207031 C 161.308594 264.25 161.359375 262.300781 161.621094 260.355469 C 161.878906 258.414062 162.34375 256.515625 163.007812 254.671875 C 163.671875 252.828125 164.527344 251.070312 165.566406 249.410156 C 166.609375 247.746094 167.8125 246.210938 169.183594 244.804688 C 170.382812 243.613281 171.699219 242.5625 173.128906 241.65625 C 174.5625 240.75 176.074219 240.007812 177.664062 239.429688 C 179.257812 238.851562 180.894531 238.453125 182.574219 238.234375 C 184.253906 238.011719 185.9375 237.976562 187.625 238.121094 C 189.292969 237.988281 190.957031 238.03125 192.613281 238.257812 C 194.273438 238.488281 195.886719 238.886719 197.457031 239.464844 C 199.027344 240.042969 200.515625 240.78125 201.925781 241.683594 C 203.335938 242.582031 204.632812 243.625 205.816406 244.804688 C 207.1875 246.210938 208.390625 247.746094 209.433594 249.410156 C 210.472656 251.070312 211.328125 252.828125 211.992188 254.671875 C 212.65625 256.515625 213.121094 258.414062 213.378906 260.355469 C 213.640625 262.300781 213.691406 264.25 213.535156 266.207031 L 209.722656 328.867188 Z M 360.359375 258.835938 L 349.351562 270.953125 L 294.988281 221.550781 L 295.609375 200.015625 Z M 216.457031 105.265625 L 260.597656 57.976562 L 305.3125 105.316406 L 298.132812 111.996094 L 262.074219 73.371094 C 261.917969 73.203125 261.738281 73.074219 261.527344 72.984375 C 261.320312 72.894531 261.101562 72.847656 260.875 72.847656 C 260.648438 72.847656 260.429688 72.894531 260.21875 72.984375 C 260.011719 73.074219 259.828125 73.203125 259.675781 73.371094 L 223.640625 111.972656 Z M 226.742188 113.453125 L 260.878906 76.886719 L 294.832031 113.261719 L 292.429688 196.453125 L 292.429688 196.472656 L 291.6875 222.238281 C 291.6875 222.277344 291.6875 222.316406 291.6875 222.355469 L 288.609375 328.882812 L 249.804688 328.882812 L 256.089844 208.734375 L 257.109375 209.769531 C 257.433594 210.085938 257.824219 210.246094 258.277344 210.257812 C 258.726562 210.257812 259.109375 210.101562 259.425781 209.785156 L 271.117188 198.320312 C 271.273438 198.167969 271.394531 197.992188 271.480469 197.792969 C 271.5625 197.59375 271.605469 197.382812 271.609375 197.167969 C 271.609375 196.949219 271.570312 196.738281 271.488281 196.539062 C 271.40625 196.335938 271.289062 196.15625 271.136719 196.003906 L 226.738281 150.839844 Z M 103.867188 195.988281 C 103.714844 196.144531 103.597656 196.324219 103.515625 196.523438 C 103.433594 196.726562 103.394531 196.933594 103.398438 197.152344 C 103.398438 197.371094 103.441406 197.578125 103.527344 197.78125 C 103.613281 197.980469 103.734375 198.15625 103.890625 198.308594 L 115.582031 209.769531 C 115.898438 210.085938 116.28125 210.246094 116.730469 210.242188 C 117.171875 210.203125 117.558594 210.042969 117.898438 209.753906 L 118.914062 208.71875 L 125.203125 328.871094 L 87.933594 328.871094 L 84.074219 195.125 C 84.074219 195.097656 84.074219 195.074219 84.074219 195.046875 L 81.710938 113.167969 L 115.582031 76.886719 L 149.804688 113.546875 L 149.804688 149.277344 Z M 71.160156 105.265625 L 115.308594 57.976562 L 160.015625 105.316406 L 152.835938 112.011719 L 116.777344 73.386719 C 116.621094 73.21875 116.441406 73.09375 116.234375 73.003906 C 116.023438 72.910156 115.808594 72.867188 115.578125 72.867188 C 115.351562 72.867188 115.136719 72.910156 114.925781 73.003906 C 114.71875 73.09375 114.535156 73.21875 114.382812 73.386719 L 78.34375 111.972656 Z M 25.644531 270.953125 L 14.640625 258.832031 L 80.894531 198.660156 L 81.511719 220.167969 Z M 34.433594 267.386719 L 81.636719 224.464844 L 84.648438 328.882812 L 38.757812 328.882812 Z M 371.722656 348.882812 L 3.277344 348.882812 L 3.277344 332.15625 L 371.722656 332.15625 Z M 371.722656 348.882812 " fill-opacity="1" fill-rule="nonzero"/></g></svg>