<svg xmlns="http://www.w3.org/2000/svg" xmlns:xlink="http://www.w3.org/1999/xlink" width="500" zoomAndPan="magnify" viewBox="0 0 375 374.999991" height="500" preserveAspectRatio="xMidYMid meet" version="1.0"><defs><clipPath id="deae8f4a51"><path d="M 23.859375 60.269531 L 350.859375 60.269531 L 350.859375 314.519531 L 23.859375 314.519531 Z M 23.859375 60.269531 " clip-rule="nonzero"/></clipPath></defs><g clip-path="url(#deae8f4a51)"><path fill="#211d1d" d="M 322.234375 307.246094 L 52.582031 307.246094 C 40.734375 307.246094 31.097656 297.605469 31.097656 285.757812 L 31.097656 149.378906 L 115.660156 149.378906 C 105.0625 163.976562 98.804688 181.917969 98.804688 201.296875 C 98.804688 250.15625 138.550781 289.90625 187.40625 289.90625 C 210.9375 289.90625 232.355469 280.679688 248.238281 265.660156 C 249.0625 275.132812 257.027344 282.59375 266.707031 282.59375 C 276.9375 282.59375 285.257812 274.269531 285.257812 264.039062 C 285.257812 253.8125 276.9375 245.488281 266.707031 245.488281 C 265.804688 245.488281 264.925781 245.574219 264.054688 245.699219 C 271.652344 232.636719 276.007812 217.464844 276.007812 201.296875 C 276.007812 181.917969 269.75 163.976562 259.152344 149.378906 L 343.71875 149.378906 L 343.71875 285.757812 C 343.71875 297.605469 334.082031 307.246094 322.234375 307.246094 Z M 187.40625 282.710938 C 142.523438 282.710938 106 246.1875 106 201.296875 C 106 156.410156 142.523438 119.890625 187.40625 119.890625 C 232.292969 119.890625 268.8125 156.410156 268.8125 201.296875 C 268.8125 246.1875 232.292969 282.710938 187.40625 282.710938 Z M 266.707031 252.683594 C 272.96875 252.683594 278.0625 257.78125 278.0625 264.039062 C 278.0625 270.300781 272.96875 275.398438 266.707031 275.398438 C 260.445312 275.398438 255.351562 270.300781 255.351562 264.039062 C 255.351562 257.78125 260.445312 252.683594 266.707031 252.683594 Z M 52.582031 95.355469 L 136.714844 95.355469 C 136.71875 95.355469 136.726562 95.359375 136.734375 95.359375 C 136.742188 95.359375 136.75 95.355469 136.757812 95.355469 L 322.234375 95.355469 C 334.082031 95.355469 343.71875 104.992188 343.71875 116.84375 L 343.71875 142.179688 L 253.34375 142.179688 C 237.105469 124.09375 213.5625 112.695312 187.40625 112.695312 C 161.242188 112.695312 137.6875 124.101562 121.453125 142.199219 C 121.386719 142.195312 121.328125 142.179688 121.257812 142.179688 L 31.097656 142.179688 L 31.097656 116.84375 C 31.097656 104.992188 40.734375 95.355469 52.582031 95.355469 Z M 52.339844 77.597656 C 52.339844 74.390625 54.941406 71.789062 58.144531 71.789062 L 100.625 71.789062 C 103.824219 71.789062 106.433594 74.390625 106.433594 77.597656 L 106.433594 88.160156 L 52.582031 88.160156 C 52.5 88.160156 52.421875 88.164062 52.339844 88.164062 Z M 148.71875 67.640625 L 226.09375 67.640625 L 233.058594 88.160156 L 141.757812 88.160156 Z M 322.234375 88.160156 L 240.660156 88.160156 L 232.082031 62.886719 C 231.585938 61.425781 230.214844 60.445312 228.671875 60.445312 L 146.140625 60.445312 C 144.597656 60.445312 143.226562 61.425781 142.730469 62.886719 L 134.152344 88.160156 L 113.628906 88.160156 L 113.628906 77.597656 C 113.628906 70.425781 107.796875 64.589844 100.625 64.589844 L 58.144531 64.589844 C 50.972656 64.589844 45.140625 70.425781 45.140625 77.597656 L 45.140625 89.144531 C 32.921875 92.429688 23.898438 103.601562 23.898438 116.84375 L 23.898438 285.757812 C 23.898438 301.574219 36.765625 314.441406 52.582031 314.441406 L 322.234375 314.441406 C 338.050781 314.441406 350.917969 301.574219 350.917969 285.757812 L 350.917969 116.84375 C 350.917969 101.027344 338.050781 88.160156 322.234375 88.160156 " fill-opacity="1" fill-rule="nonzero"/></g><path fill="#211d1d" d="M 187.40625 260.445312 C 154.796875 260.445312 128.265625 233.910156 128.265625 201.296875 C 128.265625 168.6875 154.796875 142.160156 187.40625 142.160156 C 220.019531 142.160156 246.542969 168.6875 246.542969 201.296875 C 246.542969 233.910156 220.019531 260.445312 187.40625 260.445312 Z M 187.40625 134.960938 C 150.832031 134.960938 121.070312 164.722656 121.070312 201.296875 C 121.070312 237.878906 150.832031 267.636719 187.40625 267.636719 C 223.984375 267.636719 253.742188 237.878906 253.742188 201.296875 C 253.742188 164.722656 223.984375 134.960938 187.40625 134.960938 " fill-opacity="1" fill-rule="nonzero"/><path fill="#211d1d" d="M 187.40625 164.144531 C 166.917969 164.144531 150.246094 180.8125 150.246094 201.296875 C 150.246094 203.289062 151.859375 204.898438 153.847656 204.898438 C 155.832031 204.898438 157.445312 203.289062 157.445312 201.296875 C 157.445312 184.78125 170.886719 171.335938 187.40625 171.335938 C 189.394531 171.335938 191.007812 169.726562 191.007812 167.738281 C 191.007812 165.753906 189.394531 164.144531 187.40625 164.144531 " fill-opacity="1" fill-rule="nonzero"/><path fill="#211d1d" d="M 290.335938 123.816406 L 314.917969 123.816406 C 316.90625 123.816406 318.515625 122.207031 318.515625 120.21875 C 318.515625 118.230469 316.90625 116.621094 314.917969 116.621094 L 290.335938 116.621094 C 288.347656 116.621094 286.734375 118.230469 286.734375 120.21875 C 286.734375 122.207031 288.347656 123.816406 290.335938 123.816406 " fill-opacity="1" fill-rule="nonzero"/></svg>