<svg xmlns="http://www.w3.org/2000/svg" xmlns:xlink="http://www.w3.org/1999/xlink" width="500" zoomAndPan="magnify" viewBox="0 0 375 374.999991" height="500" preserveAspectRatio="xMidYMid meet" version="1.0"><defs><clipPath id="8b6dd70253"><path d="M 44 43 L 336 43 L 336 332.515625 L 44 332.515625 Z M 44 43 " clip-rule="nonzero"/></clipPath></defs><g clip-path="url(#8b6dd70253)"><path fill="#000000" d="M 190.492188 52.878906 C 191.613281 50.785156 193.183594 47.871094 194.980469 46.300781 C 196.777344 44.730469 198.496094 44.058594 199.691406 43.535156 C 202.460938 42.265625 206.125 43.761719 208.742188 45.03125 C 216.824219 48.769531 224.304688 55.71875 233.578125 56.167969 C 242.855469 56.617188 239.789062 55.644531 242.78125 55.945312 C 248.6875 56.617188 255.046875 60.578125 258.863281 64.988281 C 265.894531 73.0625 268.363281 84.648438 278.460938 90.253906 C 285.191406 93.992188 292.300781 97.355469 299.03125 101.09375 C 305.839844 104.832031 308.757812 112.605469 310.027344 119.929688 C 312.046875 131.664062 313.019531 140.335938 321.621094 149.378906 C 326.707031 154.761719 332.917969 159.324219 335.085938 166.871094 C 337.332031 174.796875 335.085938 185.035156 326.484375 187.503906 C 326.183594 187.578125 326.109375 187.351562 326.183594 187.953125 C 327.53125 188.027344 329.402344 188.847656 330.449219 189.671875 C 335.910156 194.230469 336.957031 202.453125 335.011719 208.882812 C 332.84375 216.132812 326.632812 220.839844 321.695312 226 C 317.734375 230.109375 314.816406 235.34375 313.019531 240.796875 C 309.429688 251.785156 311.074219 265.691406 300.753906 273.316406 C 293.644531 277.574219 286.089844 281.011719 278.835938 284.976562 C 266.417969 291.777344 264.773438 308.296875 253.101562 315.546875 C 241.433594 322.796875 242.855469 319.433594 236.796875 319.433594 C 230.738281 319.433594 226.847656 320.257812 220.710938 323.546875 C 214.578125 326.835938 207.695312 332.214844 202.535156 332.367188 C 197.375 332.515625 196.550781 330.273438 195.128906 329.078125 C 193.707031 327.882812 191.839844 324.59375 190.492188 322.5 C 190.191406 322.648438 187.648438 327.058594 187.050781 327.804688 C 185.554688 329.601562 180.769531 332.367188 178.449219 332.367188 C 172.089844 332.292969 160.570312 322.871094 153.6875 320.480469 C 146.808594 318.089844 143.367188 320.105469 137.757812 319.359375 C 134.316406 318.910156 128.257812 316.21875 125.636719 313.976562 C 115.6875 305.457031 113.59375 291.179688 101.777344 284.75 C 89.957031 278.324219 87.636719 277.800781 80.90625 273.761719 C 74.171875 269.726562 71.179688 255.074219 69.3125 245.65625 C 67.441406 236.238281 64.523438 231.902344 59.8125 226.597656 C 55.097656 221.289062 48.066406 216.355469 45.824219 208.359375 C 43.804688 201.332031 45.523438 191.316406 53.003906 188.175781 C 53.226562 188.101562 55.171875 187.800781 54.722656 187.351562 C 53.304688 187.128906 51.582031 186.53125 50.460938 185.558594 C 45.898438 181.597656 44.25 174.871094 45.300781 169.113281 C 47.320312 158.425781 54.648438 154.835938 61.007812 147.585938 C 63.777344 144.449219 67.066406 137.496094 68.339844 133.382812 C 71.179688 123.890625 70.285156 112.53125 77.164062 104.679688 C 84.046875 96.832031 85.992188 98.625 89.882812 96.535156 C 95.792969 93.320312 102.523438 90.851562 107.386719 86.144531 C 115.164062 78.667969 117.335938 68.128906 125.9375 61.027344 C 128.703125 58.785156 135.363281 56.019531 138.878906 55.71875 C 144.414062 55.347656 148.152344 56.542969 153.839844 54.675781 C 160.71875 52.429688 171.34375 43.386719 178.074219 43.011719 C 180.394531 42.863281 185.332031 45.628906 186.828125 47.421875 C 188.324219 49.21875 188.996094 51.308594 190.492188 52.878906 Z M 177.777344 67.007812 C 179.121094 68.578125 182.488281 69.398438 184.359375 68.351562 C 186.226562 67.304688 186.675781 66.558594 186.902344 66.261719 C 187.199219 65.8125 188.773438 61.402344 188.921875 60.804688 C 189.59375 56.320312 188.023438 51.308594 185.332031 47.796875 C 182.636719 44.285156 180.242188 44.507812 177.550781 45.03125 C 170.59375 46.375 162.441406 54.152344 154.960938 56.46875 C 147.105469 58.859375 139.550781 55.644531 131.996094 59.605469 C 124.441406 63.570312 123.167969 68.351562 119.054688 74.558594 C 115.914062 79.339844 110.003906 87.5625 105.066406 90.402344 C 100.128906 93.246094 95.867188 94.664062 91.527344 97.054688 C 83.746094 101.390625 78.660156 103.710938 75.445312 112.53125 C 71.179688 124.117188 71.03125 136.824219 62.953125 147.136719 C 54.875 157.453125 50.609375 157.15625 48.140625 166.945312 C 46.273438 174.347656 47.917969 185.335938 56.96875 186.605469 C 66.019531 187.875 64.597656 183.988281 64.898438 179.730469 C 65.046875 178.085938 64.375 176.8125 64.222656 175.242188 C 65.71875 174.71875 66.320312 177.5625 66.394531 178.609375 C 66.617188 181.597656 65.195312 184.289062 62.878906 186.082031 C 60.558594 187.875 61.082031 187.128906 60.257812 187.726562 C 61.230469 187.726562 62.203125 188.472656 63.027344 189.074219 C 66.320312 191.613281 67.738281 196.621094 64.972656 199.984375 L 64.222656 199.761719 C 65.347656 195.648438 65.046875 191.539062 61.082031 189.148438 C 58.089844 187.351562 53.675781 188.847656 51.359375 191.238281 C 47.019531 195.648438 46.644531 202.378906 48.066406 208.132812 C 50.085938 216.355469 55.324219 219.867188 60.707031 225.773438 C 64.972656 230.484375 68.414062 236.835938 70.285156 242.964844 C 72.976562 251.863281 74.246094 266.660156 82.027344 272.417969 C 89.808594 278.171875 97.363281 280.566406 104.769531 284.601562 C 112.171875 288.636719 115.988281 296.039062 119.203125 300.898438 C 123.320312 307.175781 125.113281 312.183594 132.371094 315.847656 C 138.804688 319.0625 145.160156 317.042969 151.894531 318.089844 C 160.121094 319.359375 167.078125 326.160156 174.484375 329.226562 C 178 330.648438 180.019531 330.945312 183.386719 329.078125 C 186.753906 327.207031 188.996094 321.003906 189.144531 317.714844 C 189.144531 315.847656 188.472656 312.929688 187.800781 311.136719 C 187.125 309.34375 186.152344 307.921875 184.507812 307.027344 C 182.863281 306.128906 179.121094 306.800781 177.476562 308.746094 C 175.832031 310.6875 174.558594 313.082031 177.027344 314.425781 C 175.832031 316.21875 174.109375 315.996094 173.363281 313.976562 C 172.613281 311.960938 173.136719 311.960938 173.734375 310.914062 C 176.203125 306.054688 184.359375 302.390625 188.171875 307.773438 C 191.988281 313.15625 189.371094 311.4375 190.492188 312.78125 C 191.988281 305.980469 196.476562 302.839844 202.984375 306.800781 C 205.226562 308.148438 208.820312 312.035156 206.800781 314.800781 C 204.78125 317.566406 204.554688 315.847656 203.65625 314.726562 C 203.65625 314.5 205.078125 313.605469 204.929688 312.183594 C 204.78125 310.761719 203.207031 308.746094 202.535156 308.148438 C 200.890625 306.503906 197.75 305.980469 195.726562 307.324219 C 192.660156 309.34375 191.390625 314.574219 191.539062 318.089844 C 191.6875 321.601562 194.230469 327.582031 197.375 329.375 C 201.9375 331.917969 205.304688 329.972656 209.417969 327.65625 C 215.253906 324.515625 222.058594 319.210938 228.714844 318.238281 C 235.375 317.265625 241.65625 319.433594 248.613281 315.773438 C 255.570312 312.109375 257.890625 306.203125 262.226562 299.777344 C 265.070312 295.515625 270.832031 287.890625 275.09375 285.273438 C 279.359375 282.65625 278.3125 283.929688 279.808594 283.179688 C 285.566406 280.339844 291.402344 277.277344 296.863281 273.914062 C 306.8125 267.78125 307.261719 252.683594 310.550781 242.441406 C 313.84375 232.203125 316.3125 229.511719 320.722656 224.953125 C 325.886719 219.570312 330.300781 216.730469 332.394531 208.957031 C 334.414062 201.40625 332.917969 190.195312 323.566406 188.847656 C 319.078125 188.175781 315.863281 191.914062 315.636719 196.171875 C 315.414062 200.433594 316.535156 199.386719 316.460938 199.835938 C 316.386719 200.285156 315.636719 200.507812 315.265625 200.136719 C 314.890625 199.761719 314.140625 196.921875 314.066406 196.324219 C 313.992188 193.035156 316.238281 190.042969 319.003906 188.472656 C 321.773438 186.90625 320.351562 188.25 320.277344 187.652344 C 318.78125 187.429688 316.535156 185.707031 315.636719 184.4375 C 314.742188 183.167969 314.140625 180.925781 314.066406 179.804688 C 313.992188 178.683594 314.890625 176.964844 315.1875 175.542969 C 315.789062 175.46875 316.535156 175.394531 316.386719 176.214844 C 316.238281 177.039062 315.5625 178.382812 315.5625 179.578125 C 315.5625 180.773438 316.535156 183.464844 317.207031 184.289062 C 321.023438 189.371094 327.832031 186.53125 330.824219 182.046875 C 333.816406 177.5625 333.742188 171.804688 332.394531 166.871094 C 330.375 159.023438 325.886719 156.183594 320.722656 150.726562 C 316.3125 146.09375 312.570312 139.363281 310.550781 133.234375 C 307.410156 123.519531 306.660156 108.042969 297.386719 102.066406 C 288.109375 96.085938 289.679688 97.503906 286.089844 95.5625 C 278.460938 91.523438 274.496094 91 268.585938 84.125 C 261.78125 76.277344 256.992188 63.269531 247.492188 59.160156 C 240.984375 56.320312 235.222656 58.261719 228.566406 57.214844 C 221.910156 56.167969 216 51.460938 210.539062 48.46875 C 205.078125 45.480469 202.910156 44.058594 199.617188 45.105469 C 196.328125 46.152344 194.15625 48.769531 192.734375 52.058594 C 191.015625 55.945312 191.316406 60.429688 192.734375 64.316406 C 194.15625 68.203125 194.230469 67.230469 195.804688 68.203125 C 197.375 69.175781 201.265625 68.726562 202.910156 66.785156 C 204.554688 64.839844 204.78125 63.941406 204.855469 63.195312 C 204.929688 61.925781 204.257812 61.476562 203.582031 60.652344 C 205.902344 58.335938 207.773438 60.878906 207.246094 63.417969 C 206.722656 65.960938 205.078125 66.859375 204.332031 67.53125 C 202.160156 69.398438 197 71.269531 194.457031 69.472656 C 192.0625 67.828125 191.238281 65.0625 190.269531 62.449219 C 189.296875 63.941406 189.21875 65.8125 188.171875 67.304688 C 184.359375 72.914062 176.054688 69.25 173.585938 64.167969 C 172.089844 61.175781 174.558594 57.8125 177.027344 60.730469 C 175.980469 61.328125 175.53125 62.148438 175.757812 63.34375 C 175.980469 64.539062 177.402344 66.484375 177.777344 66.933594 Z M 177.777344 67.007812 " fill-opacity="1" fill-rule="nonzero"/></g><path fill="#000000" d="M 21.136719 142.054688 C 21.4375 142.355469 22.035156 142.429688 22.109375 141.980469 C 22.257812 139.738281 22.335938 137.496094 22.335938 135.253906 C 22.410156 130.617188 22.035156 125.835938 22.109375 121.199219 C 22.183594 116.566406 21.960938 117.910156 22.109375 117.015625 C 22.257812 116.117188 22.257812 116.492188 22.558594 116.492188 C 22.335938 119.78125 23.082031 122.996094 23.230469 126.207031 C 23.382812 129.421875 23.082031 127.40625 23.082031 127.929688 C 23.230469 130.917969 24.054688 139.363281 22.933594 141.757812 C 21.8125 144.148438 21.0625 143.550781 20.238281 142.578125 C 19.417969 141.605469 18.96875 138.992188 18.894531 138.46875 C 18.519531 136.671875 18.296875 133.832031 18.21875 131.964844 C 17.398438 120.304688 17.546875 108.34375 18.070312 96.757812 C 18.296875 91.675781 19.792969 83.675781 17.398438 79.117188 C 15.003906 74.558594 16.875 78.144531 16.574219 78.59375 C 15.675781 81.507812 15.152344 84.648438 14.929688 87.714844 C 14.40625 94.066406 14.628906 100.945312 14.480469 107.445312 C 14.253906 118.136719 14.703125 129.648438 14.03125 140.113281 C 13.359375 150.578125 14.40625 141.832031 13.730469 142.878906 C 11.039062 146.691406 9.242188 139.8125 9.019531 137.871094 C 8.644531 133.90625 8.644531 129.648438 8.570312 125.609375 C 8.269531 111.855469 9.242188 98.253906 9.019531 84.574219 C 8.796875 70.894531 9.320312 80.3125 8.570312 78.292969 C 6.625 78.292969 6.101562 81.882812 5.953125 83.453125 C 5.578125 88.835938 5.652344 94.890625 5.503906 100.34375 C 5.28125 109.914062 5.355469 119.480469 5.28125 129.050781 C 5.28125 134.65625 4.679688 139.589844 4.382812 145.046875 C 4.082031 149.902344 5.953125 161.265625 8.644531 165.300781 C 11.339844 169.339844 14.554688 170.832031 15.527344 176.886719 C 17.171875 187.054688 16.800781 197.371094 16.425781 207.535156 C 16.050781 217.703125 16.425781 213.890625 16.199219 216.953125 C 15.976562 220.019531 15.453125 220.765625 15.378906 222.410156 C 15.304688 224.054688 15.75 225.550781 15.75 226.820312 C 15.828125 239.078125 13.730469 251.636719 13.507812 264.121094 C 13.507812 268.382812 12.683594 272.34375 12.160156 276.601562 C 11.261719 284.300781 10.738281 294.320312 7.671875 301.496094 C 6.25 304.785156 1.390625 310.613281 3.410156 314.277344 C 4.605469 316.371094 7.375 315.023438 7.898438 315.695312 C 8.195312 316.519531 7.523438 317.339844 7.449219 318.089844 C 7.074219 321.75 13.433594 324.816406 15.828125 322.273438 C 18.21875 319.734375 17.847656 317.191406 16.648438 315.996094 C 15.453125 314.800781 14.179688 315.996094 14.03125 314.800781 C 15.75 314.574219 16.875 315.097656 18.144531 316.070312 C 18.667969 316.070312 19.941406 314.050781 21.734375 314.425781 C 23.53125 314.800781 22.933594 314.949219 22.859375 315.621094 C 20.015625 315.621094 18.59375 319.136719 19.417969 321.527344 C 20.238281 323.917969 21.363281 322.949219 22.257812 322.796875 C 23.15625 322.648438 25.925781 318.6875 27.269531 317.714844 C 28.617188 316.742188 30.5625 317.492188 31.835938 314.800781 C 33.105469 312.109375 31.085938 310.839844 30.261719 308.519531 C 29.441406 306.203125 29.664062 303.960938 29.367188 301.496094 C 29.066406 299.027344 27.269531 294.394531 26.671875 291.03125 C 24.355469 279.21875 24.503906 266.738281 24.429688 254.703125 C 24.28125 233.101562 21.4375 211.722656 22.410156 189.96875 C 22.785156 182.34375 22.785156 177.933594 27.046875 171.355469 C 28.84375 168.589844 31.535156 166.273438 33.253906 163.359375 C 36.621094 157.828125 35.648438 149.753906 35.574219 143.550781 C 35.574219 138.394531 36.398438 133.460938 36.246094 128.152344 C 35.800781 114.773438 35.722656 101.390625 34.675781 88.011719 C 34.527344 85.84375 34.675781 80.238281 33.554688 78.59375 C 32.433594 76.949219 32.433594 78.519531 32.132812 79.117188 C 30.5625 82.257812 31.535156 87.191406 31.386719 90.628906 C 31.234375 94.066406 31.011719 92.722656 30.9375 93.691406 C 30.339844 103.933594 31.609375 114.398438 31.386719 124.5625 C 31.3125 128.601562 31.011719 132.414062 30.710938 136.375 C 30.5625 138.316406 30.9375 140.261719 30.261719 142.203125 C 29.964844 142.203125 29.890625 141.832031 29.890625 141.605469 C 29.890625 137.121094 30.414062 132.414062 30.261719 127.777344 C 30.261719 126.730469 29.890625 125.535156 29.816406 124.488281 C 29.441406 115.96875 29.664062 107.519531 29.589844 99.074219 C 29.589844 92.722656 29.066406 86.441406 30.339844 80.089844 C 30.863281 77.324219 33.40625 76.203125 34.902344 78.816406 C 37.59375 83.527344 36.398438 92.722656 36.398438 98.179688 C 36.398438 107.96875 36.773438 118.0625 36.847656 128.003906 C 36.996094 140.039062 39.613281 156.480469 32.433594 167.023438 C 31.535156 168.367188 30.039062 169.488281 29.214844 170.832031 C 26.972656 174.273438 24.652344 179.429688 24.355469 183.542969 C 23.308594 198.640625 23.007812 213.738281 23.679688 228.914062 C 23.980469 235.714844 24.953125 242.292969 24.953125 249.097656 C 24.953125 259.1875 25.550781 269.726562 26.746094 279.742188 C 27.570312 286.546875 29.367188 292.75 30.789062 299.328125 C 32.207031 305.90625 31.160156 302.839844 31.609375 304.484375 C 32.507812 308.074219 36.773438 312.410156 33.855469 316.296875 C 30.9375 320.183594 31.683594 317.714844 29.738281 318.3125 C 27.796875 318.910156 27.421875 323.246094 25.101562 323.996094 C 22.785156 324.742188 19.640625 323.546875 17.847656 322.199219 C 15.828125 324.21875 11.710938 325.714844 9.019531 324.667969 C 6.328125 323.621094 6.625 323.320312 6.175781 322.875 C 4.457031 321.078125 4.457031 318.910156 5.429688 316.742188 C 3.335938 316.445312 1.761719 316.59375 0.941406 314.351562 C 0.117188 312.109375 0.492188 312.707031 0.640625 311.660156 C 1.164062 308.597656 3.707031 305.15625 4.832031 302.316406 C 8.945312 292.152344 11.339844 278.921875 11.5625 268.007812 C 11.710938 260.605469 12.757812 253.804688 13.285156 246.554688 C 13.730469 240.050781 13.285156 233.324219 13.730469 226.820312 C 14.179688 220.316406 14.179688 222.335938 14.179688 219.421875 C 14.179688 209.105469 14.929688 198.789062 14.855469 188.472656 C 14.855469 183.390625 14.554688 178.457031 14.179688 173.375 C 13.808594 172.851562 13.507812 172.253906 13.132812 171.804688 C 11.5625 169.863281 9.46875 168.367188 7.671875 166.722656 C 4.832031 164.179688 4.382812 157.304688 4.15625 153.566406 C 3.632812 145.71875 4.679688 138.019531 4.53125 130.246094 C 4.308594 118.285156 4.53125 106.324219 4.832031 94.289062 C 4.90625 90.777344 4.53125 81.359375 6.25 78.894531 C 7.972656 76.425781 8.570312 76.726562 9.394531 77.921875 C 10.214844 79.117188 9.617188 85.84375 9.617188 87.339844 C 9.84375 97.429688 9.765625 107.519531 10.066406 117.613281 C 10.292969 125.535156 10.441406 133.460938 12.3125 141.234375 C 14.179688 149.007812 12.757812 142.878906 13.132812 142.503906 C 13.882812 141.832031 13.132812 134.28125 13.132812 132.710938 C 13.132812 130.171875 13.730469 127.328125 13.808594 124.863281 C 14.332031 111.332031 13.132812 97.730469 14.480469 84.273438 C 14.929688 82.703125 13.582031 78.144531 14.78125 77.171875 C 15.976562 76.203125 16.648438 76.574219 17.398438 77.023438 C 19.640625 78.144531 18.742188 80.910156 18.820312 83.003906 C 19.191406 88.609375 18.894531 93.84375 18.96875 99.449219 C 19.117188 112.15625 19.714844 125.085938 20.089844 137.792969 C 20.464844 150.503906 20.613281 141.382812 20.988281 141.832031 Z M 21.136719 142.054688 " fill-opacity="1" fill-rule="nonzero"/><path fill="#000000" d="M 365.605469 206.265625 C 365.605469 206.339844 366.128906 206.488281 366.28125 206.789062 C 367.476562 208.359375 366.578125 209.179688 366.726562 210.601562 C 366.953125 213.8125 368 216.730469 368.222656 220.019531 C 368.671875 228.242188 367.777344 236.539062 367.550781 244.761719 C 367.253906 256.121094 368.300781 267.484375 368.898438 278.769531 C 369.496094 290.058594 369.046875 290.804688 369.570312 296.785156 C 369.945312 301.71875 371.589844 306.429688 371.292969 311.4375 C 370.617188 313.304688 369.347656 313.828125 367.402344 313.605469 C 369.796875 320.183594 360.96875 321.902344 357.453125 317.566406 C 356.257812 318.613281 353.1875 319.507812 351.691406 318.910156 C 350.195312 318.3125 350.273438 315.773438 348.777344 314.574219 C 347.28125 313.378906 347.503906 314.203125 346.605469 313.902344 C 345.335938 313.453125 344.289062 311.734375 344.136719 310.464844 C 343.539062 305.230469 345.484375 300.222656 346.082031 295.140625 C 346.457031 292.078125 346.234375 288.789062 346.53125 285.722656 C 347.355469 278.171875 348.925781 270.546875 349.375 262.925781 C 349.597656 259.261719 349.375 255.824219 349.597656 251.9375 C 350.046875 244.910156 350.421875 237.882812 350.71875 230.933594 C 350.945312 225.402344 350.347656 218.375 352.515625 213.214844 C 354.683594 208.058594 353.039062 212.691406 353.039062 212.542969 C 353.039062 212.394531 352.589844 211.648438 352.664062 210.75 C 352.742188 209.851562 353.414062 209.554688 353.488281 209.179688 C 353.5625 208.804688 352.816406 207.609375 353.339844 206.191406 C 353.863281 204.769531 355.359375 205.59375 355.507812 205.070312 C 353.636719 202.75 351.769531 200.433594 350.71875 197.59375 C 349.671875 194.753906 350.046875 190.71875 349.824219 187.726562 C 349.148438 177.785156 348.925781 167.695312 348.476562 157.679688 C 347.726562 139.140625 347.652344 120.078125 348.253906 101.542969 C 348.550781 93.394531 348.175781 83.378906 353.414062 76.648438 C 358.648438 69.921875 366.578125 68.128906 371.214844 69.398438 C 373.085938 69.921875 373.535156 70.820312 373.910156 72.613281 C 374.734375 76.800781 374.882812 84.722656 374.65625 88.984375 C 374.507812 91.898438 373.910156 94.8125 373.761719 97.730469 C 373.535156 102.738281 373.535156 107.671875 373.3125 112.679688 C 372.9375 120.902344 372.113281 129.050781 371.589844 137.269531 C 370.09375 158.574219 367.550781 179.804688 365.90625 201.03125 C 365.90625 201.78125 365.53125 206.039062 365.757812 206.339844 Z M 364.859375 205.890625 C 364.632812 202.601562 365.082031 199.386719 365.308594 196.097656 C 367.101562 168.890625 369.871094 141.757812 371.214844 114.546875 C 371.515625 108.121094 371.589844 101.691406 371.890625 95.261719 C 372.1875 88.835938 373.011719 80.910156 371.589844 72.761719 C 371.515625 72.164062 371.367188 70.445312 370.691406 70.371094 C 370.019531 70.296875 368.75 70.59375 368.375 70.671875 C 351.917969 73.660156 349.75 87.789062 349.074219 102.066406 C 348.328125 117.464844 348.699219 133.832031 349.300781 149.230469 C 349.671875 159.621094 349.898438 170.460938 350.871094 180.773438 C 351.84375 191.089844 351.691406 197.144531 355.507812 202.226562 C 359.324219 207.3125 356.257812 202.75 356.628906 203.125 C 357.003906 203.5 357.152344 204.320312 357.601562 204.769531 L 364.933594 205.816406 Z M 365.53125 206.789062 C 365.382812 206.5625 361.042969 205.890625 360.371094 205.890625 C 359.171875 205.816406 356.179688 205.742188 355.132812 205.890625 C 353.636719 206.191406 353.863281 207.683594 353.863281 208.882812 C 357.527344 207.757812 361.941406 207.910156 365.457031 209.554688 L 365.457031 206.714844 Z M 365.980469 212.019531 C 366.429688 210.75 364.183594 209.851562 363.289062 209.628906 C 361.941406 209.179688 357.753906 208.804688 356.332031 209.105469 C 354.910156 209.402344 353.414062 210.226562 353.789062 211.871094 C 357.601562 209.628906 361.941406 211.570312 365.980469 212.09375 Z M 365.082031 212.542969 C 362.164062 211.945312 356.105469 209.925781 353.9375 212.84375 C 353.1875 213.8125 352.816406 216.65625 352.589844 217.925781 C 352.292969 220.167969 351.917969 223.605469 351.917969 225.773438 C 351.769531 240.050781 350.644531 254.179688 349.75 268.304688 C 348.851562 282.433594 349.449219 280.9375 349.074219 287.144531 C 348.851562 290.28125 347.730469 293.273438 347.355469 296.410156 C 346.980469 299.550781 346.757812 303.738281 346.679688 306.875 C 346.679688 308.074219 346.53125 310.6875 346.90625 311.660156 C 347.578125 313.230469 348.851562 312.632812 350.046875 313.53125 C 351.246094 314.425781 352.589844 317.265625 353.636719 317.566406 C 357.601562 318.761719 356.855469 312.183594 353.636719 311.886719 C 353.113281 311.585938 354.085938 311.136719 354.460938 311.136719 C 355.65625 310.988281 356.554688 311.886719 357.304688 312.632812 C 358.125 311.660156 359.25 311.4375 360.519531 311.511719 C 360.519531 312.484375 359.472656 312.035156 358.949219 312.183594 C 357.378906 312.632812 358.125 316.070312 358.800781 317.042969 C 360.519531 319.585938 365.679688 317.339844 365.757812 314.574219 C 365.832031 311.808594 365.234375 313.082031 365.382812 312.332031 C 369.570312 312.707031 369.347656 311.285156 369.347656 307.847656 C 369.347656 302.242188 368.222656 296.488281 368 290.730469 C 367.777344 284.976562 368.222656 283.480469 368 279.742188 C 367.777344 276.003906 366.878906 271.59375 366.652344 267.707031 C 365.832031 253.207031 366.652344 238.78125 367.101562 224.277344 C 367.550781 209.777344 367.101562 216.207031 365.082031 212.394531 Z M 365.082031 212.542969 " fill-opacity="1" fill-rule="nonzero"/><path fill="#000000" d="M 23.230469 91.226562 C 22.707031 91.226562 22.859375 91.226562 22.785156 90.925781 C 22.558594 89.355469 22.785156 87.039062 22.785156 85.46875 C 22.785156 83.902344 22.558594 82.78125 22.785156 81.359375 C 23.082031 79.191406 23.605469 77.996094 26.074219 78.445312 C 28.542969 78.890625 27.570312 79.414062 27.71875 80.460938 C 28.394531 85.546875 27.347656 90.777344 27.195312 95.859375 C 27.046875 100.945312 27.195312 106.847656 27.195312 112.230469 C 27.195312 115.820312 26.972656 119.707031 27.195312 123.21875 C 27.421875 126.730469 28.765625 131.066406 28.992188 135.253906 C 29.214844 139.4375 28.542969 139.363281 28.765625 141.160156 C 28.992188 142.953125 30.113281 142.953125 28.617188 143.25 C 27.121094 143.550781 26.972656 142.804688 26.746094 142.128906 C 26.523438 141.457031 26.074219 138.242188 26.074219 137.644531 C 26 136.148438 26.449219 134.28125 26.375 132.9375 C 26.074219 126.804688 25.101562 120.453125 25.027344 114.324219 C 24.878906 104.679688 27.871094 93.246094 26.597656 84.050781 C 26.523438 83.378906 25.699219 79.9375 25.402344 79.566406 C 24.953125 78.96875 24.355469 80.910156 24.28125 81.136719 C 23.230469 84.425781 23.753906 87.039062 23.082031 90.253906 C 22.410156 93.46875 23.082031 91.078125 23.082031 91.449219 Z M 23.230469 91.226562 " fill-opacity="1" fill-rule="nonzero"/><path fill="#000000" d="M 32.507812 147.363281 C 32.808594 150.503906 32.957031 152.96875 32.058594 156.035156 C 31.160156 159.097656 30.9375 158.5 30.789062 159.398438 C 30.636719 160.292969 30.789062 161.117188 30.5625 162.011719 C 29.664062 165.078125 26.148438 166.421875 24.578125 169.039062 C 24.878906 168.066406 24.953125 166.871094 25.328125 165.898438 C 26.074219 163.734375 28.394531 161.714844 29.964844 160.21875 C 31.609375 158.722656 31.835938 152.371094 31.835938 150.203125 C 31.835938 149.378906 31.160156 147.585938 32.507812 147.289062 Z M 32.507812 147.363281 " fill-opacity="1" fill-rule="nonzero"/><path fill="#000000" d="M 11.414062 164.703125 C 11.414062 164.703125 10.066406 163.882812 9.84375 163.734375 C 8.570312 162.535156 7.824219 160.292969 7.300781 158.574219 C 6.777344 156.855469 6.25 154.089844 6.328125 151.847656 C 6.402344 149.605469 6.699219 150.203125 6.550781 149.304688 L 8.644531 157.828125 C 8.644531 159.023438 11.863281 163.957031 11.339844 164.703125 Z M 11.414062 164.703125 " fill-opacity="1" fill-rule="nonzero"/><path fill="#000000" d="M 34.226562 140.335938 C 33.78125 140.261719 33.78125 139.289062 33.78125 138.914062 C 33.855469 136.375 34.453125 133.460938 34.453125 130.84375 C 34.453125 125.984375 33.480469 120.976562 33.332031 116.117188 C 33.179688 111.257812 34.304688 112.976562 34.601562 115.445312 C 35.277344 120.675781 34.527344 127.777344 34.378906 133.160156 C 34.226562 138.542969 34.902344 137.945312 34.152344 140.261719 Z M 34.226562 140.335938 " fill-opacity="1" fill-rule="nonzero"/><path fill="#000000" d="M 25.25 289.910156 L 26.746094 294.46875 C 27.421875 299.777344 28.542969 305.007812 29.664062 310.164062 L 29.214844 310.390625 C 27.496094 307.476562 27.71875 304.035156 27.195312 300.820312 C 26.671875 297.609375 25.25 294.617188 25.25 293.121094 Z M 25.25 289.910156 " fill-opacity="1" fill-rule="nonzero"/><path fill="#000000" d="M 21.734375 187.054688 C 20.839844 186.082031 21.0625 184.214844 21.0625 183.019531 C 21.0625 181.820312 21.289062 182.046875 21.289062 181.523438 C 21.363281 179.128906 21.136719 176.964844 22.035156 174.570312 Z M 21.734375 187.054688 " fill-opacity="1" fill-rule="nonzero"/><path fill="#000000" d="M 6.402344 313.753906 C 4.007812 313.902344 4.230469 310.765625 5.128906 309.269531 L 8.195312 303.886719 C 7.746094 306.429688 5.128906 309.121094 5.652344 311.808594 C 6.175781 314.5 6.625 313.605469 6.476562 313.753906 Z M 6.402344 313.753906 " fill-opacity="1" fill-rule="nonzero"/><path fill="#000000" d="M 9.691406 318.386719 C 10.441406 318.238281 10.066406 319.359375 10.214844 319.957031 C 10.890625 322.425781 16.5 322.949219 15.828125 318.761719 C 15.828125 318.539062 14.78125 316.742188 15.527344 317.117188 C 16.800781 317.789062 16.5 322.425781 14.332031 322.722656 C 12.160156 323.023438 11.261719 321.902344 10.589844 321.378906 C 9.394531 320.480469 9.542969 319.808594 9.691406 318.460938 Z M 9.691406 318.386719 " fill-opacity="1" fill-rule="nonzero"/><path fill="#000000" d="M 34.453125 101.765625 C 34.152344 101.765625 34.078125 100.867188 34.078125 100.71875 C 34.078125 98.699219 34.152344 96.683594 34.078125 94.664062 C 34.003906 92.644531 33.105469 90.480469 33.628906 88.160156 L 34.078125 88.910156 L 34.527344 101.765625 Z M 34.453125 101.765625 " fill-opacity="1" fill-rule="nonzero"/><path fill="#000000" d="M 22.410156 102.664062 C 21.585938 102.8125 22.183594 101.914062 22.183594 101.464844 C 22.183594 99 22.410156 96.535156 22.632812 94.066406 C 22.859375 91.601562 22.785156 92.722656 23.007812 92.644531 C 23.15625 96.011719 22.335938 99.375 22.335938 102.738281 Z M 22.410156 102.664062 " fill-opacity="1" fill-rule="nonzero"/><path fill="#000000" d="M 28.992188 315.996094 L 26.148438 317.191406 C 25.175781 317.417969 24.878906 316.816406 25.925781 316.296875 C 26.972656 315.773438 27.871094 316.296875 28.992188 315.996094 Z M 28.992188 315.996094 " fill-opacity="1" fill-rule="nonzero"/><path fill="#000000" d="M 23.457031 319.882812 C 23.832031 320.332031 21.511719 322.273438 20.390625 320.628906 C 19.265625 318.984375 20.613281 317.492188 21.585938 316.816406 C 21.585938 317.640625 20.988281 318.238281 20.839844 319.136719 C 20.316406 322.949219 23.308594 319.734375 23.457031 319.882812 Z M 23.457031 319.882812 " fill-opacity="1" fill-rule="nonzero"/><path fill="#000000" d="M 22.410156 114.996094 C 22.410156 114.996094 22.707031 115.21875 22.632812 115.296875 L 22.183594 115.296875 C 22.183594 115.296875 22.183594 108.269531 22.183594 108.269531 L 22.410156 108.269531 C 22.632812 110.363281 22.109375 112.902344 22.410156 114.921875 Z M 22.410156 114.996094 " fill-opacity="1" fill-rule="nonzero"/><path fill="#000000" d="M 34.453125 106.550781 L 34.003906 104.082031 L 34.453125 103.261719 Z M 34.453125 106.550781 " fill-opacity="1" fill-rule="nonzero"/><path fill="#000000" d="M 9.917969 315.996094 C 9.167969 316.070312 9.320312 314.875 8.796875 314.5 C 9.765625 314.5 10.066406 315.175781 9.917969 315.996094 Z M 9.917969 315.996094 " fill-opacity="1" fill-rule="nonzero"/><path fill="#000000" d="M 9.242188 299.777344 C 9.394531 299.625 10.140625 299.851562 10.140625 300.074219 C 10.140625 300.746094 8.871094 300.074219 9.242188 299.777344 Z M 9.242188 299.777344 " fill-opacity="1" fill-rule="nonzero"/><path fill="#000000" d="M 227.070312 278.398438 C 225.800781 278.847656 224.753906 279.96875 223.554688 280.492188 C 214.128906 284.300781 206.800781 283.855469 197 284.601562 C 188.472656 285.273438 180.394531 286.46875 171.792969 286.546875 C 163.1875 286.621094 160.796875 286.097656 158.625 283.480469 C 156.457031 280.863281 157.726562 280.714844 157.203125 279.667969 C 156.679688 278.621094 155.859375 278.695312 155.410156 277.949219 C 154.960938 277.203125 154.585938 275.707031 154.960938 274.585938 L 154.8125 274.359375 C 150.398438 273.164062 146.433594 272.269531 142.394531 270.101562 C 138.355469 267.933594 135.734375 265.242188 131.996094 262.550781 C 127.882812 259.5625 122.71875 257.46875 118.753906 254.105469 C 114.792969 250.742188 116.886719 251.636719 115.765625 250.066406 C 109.554688 241.320312 102.671875 231.679688 97.886719 222.113281 C 94.21875 214.859375 92.800781 206.714844 91.226562 198.714844 C 90.480469 195.050781 88.910156 190.71875 88.984375 187.054688 C 89.058594 183.390625 90.554688 179.730469 91.226562 176.441406 C 91.902344 173.152344 92.125 171.132812 92.949219 168.066406 C 94.371094 162.835938 95.417969 158.125 97.886719 153.269531 C 102.222656 144.523438 108.285156 136.300781 113.59375 128.226562 C 116.660156 123.519531 118.15625 121.574219 122.871094 118.359375 C 127.582031 115.144531 130.722656 113.574219 134.914062 110.210938 C 139.101562 106.847656 145.386719 103.1875 151.445312 101.839844 C 151.742188 98.253906 153.015625 94.8125 154.0625 91.375 C 155.109375 87.9375 154.210938 86.890625 157.578125 86.515625 C 160.945312 86.144531 161.691406 86.515625 163.710938 86.515625 C 175.757812 86.292969 187.722656 86.292969 199.691406 87.191406 C 211.660156 88.085938 208.296875 87.5625 211.585938 88.460938 C 213.832031 89.058594 213.007812 89.355469 214.054688 90.628906 C 215.101562 91.898438 216.300781 92.199219 217.121094 93.691406 C 217.945312 95.1875 217.796875 98.179688 218.617188 98.777344 C 219.441406 99.375 221.160156 99.597656 221.910156 99.824219 C 230.210938 102.214844 236.121094 102.960938 243.527344 108.042969 C 250.933594 113.128906 246.96875 111.183594 248.839844 112.605469 C 252.878906 115.519531 259.835938 118.507812 263.199219 121.949219 C 266.566406 125.386719 264.398438 123.964844 265.070312 124.863281 C 271.355469 133.683594 278.460938 143.699219 283.324219 153.34375 C 287.4375 161.488281 288.859375 171.058594 290.652344 180.027344 C 291.027344 182.046875 291.925781 184.214844 292.148438 186.230469 C 292.671875 191.761719 289.082031 199.6875 288.785156 205.441406 C 287.0625 211.125 286.015625 216.65625 283.324219 221.886719 C 280.78125 226.894531 277.488281 231.976562 274.421875 236.6875 C 272.101562 240.277344 269.707031 243.640625 267.464844 247.226562 C 265.21875 250.816406 262.976562 253.730469 258.636719 256.644531 C 254.300781 259.5625 250.183594 261.804688 245.621094 265.539062 C 241.058594 269.277344 237.84375 270.847656 234.550781 272.042969 C 233.503906 272.417969 228.492188 273.539062 228.042969 273.914062 C 227.445312 274.511719 228.269531 277.277344 227.296875 278.324219 Z M 222.65625 154.761719 C 222.507812 151.625 222.207031 148.410156 221.835938 145.269531 C 221.460938 142.128906 220.710938 138.992188 220.488281 135.851562 C 220.265625 132.261719 220.488281 128.449219 220.265625 124.863281 C 219.589844 115.21875 217.347656 105.355469 216.523438 95.710938 C 216.222656 93.84375 214.429688 92.796875 213.382812 91.375 C 212.335938 89.957031 213.082031 90.480469 212.707031 90.03125 C 211.960938 89.207031 207.621094 88.683594 206.351562 88.535156 C 193.632812 87.039062 179.195312 87.636719 166.40625 88.085938 C 163.1875 88.160156 159.898438 87.863281 156.679688 88.386719 C 155.859375 91.226562 154.960938 94.066406 154.363281 96.90625 C 153.390625 101.242188 152.867188 105.355469 152.714844 109.765625 C 152.34375 122.171875 153.015625 134.503906 153.164062 146.839844 C 153.164062 150.652344 153.089844 154.761719 153.390625 158.648438 C 153.6875 162.535156 153.988281 164.179688 154.363281 164.480469 C 159.074219 166.273438 162.964844 169.636719 167.304688 172.179688 C 171.640625 174.71875 175.007812 175.992188 178.746094 178.085938 C 182.488281 180.175781 186.675781 183.019531 187.5 183.09375 C 188.324219 183.167969 188.996094 182.941406 189.667969 182.941406 C 190.34375 182.941406 190.714844 183.242188 191.164062 183.167969 C 192.660156 182.941406 197.375 179.054688 198.644531 177.933594 C 205.003906 172.179688 209.417969 163.957031 215.851562 158.722656 C 217.796875 157.15625 220.488281 156.183594 222.582031 154.835938 Z M 268.511719 242.667969 C 275.46875 233.472656 283.171875 221.511719 285.867188 210.300781 C 287.363281 204.023438 287.210938 198.042969 287.960938 191.761719 C 288.707031 185.484375 288.859375 188.699219 288.859375 187.578125 C 288.859375 186.457031 288.109375 184.886719 287.960938 183.617188 C 287.738281 181.671875 287.960938 179.429688 287.738281 177.488281 C 286.914062 168.664062 284.96875 158.648438 280.480469 151.023438 C 275.394531 142.355469 269.933594 133.832031 263.425781 126.207031 C 262.902344 125.535156 262.453125 124.640625 261.855469 124.039062 C 259.085938 121.273438 253.550781 119.109375 250.558594 116.265625 C 244.277344 112.230469 238.890625 108.644531 231.859375 105.800781 C 224.828125 102.960938 222.808594 102.738281 218.46875 100.867188 C 219.214844 105.953125 219.816406 110.960938 220.488281 116.042969 C 221.160156 121.125 221.609375 122.769531 221.761719 126.132812 C 222.132812 132.339844 222.285156 137.496094 223.03125 143.699219 C 223.40625 147.0625 223.628906 150.503906 224.152344 153.867188 C 226.847656 153.042969 229.390625 151.023438 232.457031 152.070312 C 234.699219 152.820312 238.367188 157.753906 238.367188 160.144531 C 238.367188 162.535156 237.394531 162.3125 236.496094 162.238281 C 236.347656 161.414062 236.796875 159.324219 236.195312 158.722656 C 235.074219 157.601562 229.914062 160.070312 228.566406 160.742188 C 227.21875 161.414062 225.199219 162.460938 224.902344 162.761719 C 224.601562 163.058594 224.675781 162.984375 224.675781 163.210938 L 225.125 173.152344 C 227.070312 171.207031 228.792969 169.039062 229.988281 166.5 C 231.183594 163.957031 231.183594 162.984375 231.632812 162.386719 C 232.082031 161.789062 233.726562 160.519531 233.878906 160.445312 C 235.148438 160.070312 235.75 160.96875 236.195312 162.011719 C 236.644531 163.058594 237.167969 165.824219 237.246094 166.871094 C 237.542969 170.535156 233.355469 176.441406 230.886719 179.132812 C 228.417969 181.820312 226.695312 183.316406 224.304688 185.109375 L 224.003906 189.222656 C 226.472656 189.519531 226.773438 195.050781 225.425781 196.398438 C 224.078125 197.742188 223.855469 196.695312 223.628906 197.070312 L 223.628906 199.460938 C 226.023438 199.460938 228.269531 197.667969 229.988281 195.949219 C 231.933594 194.082031 232.980469 190.941406 236.195312 192.136719 C 239.414062 193.332031 240.011719 196.097656 238.367188 198.492188 C 236.496094 201.257812 228.867188 207.609375 225.5 207.835938 C 222.132812 208.058594 224.453125 207.757812 223.855469 207.609375 L 224.753906 225.476562 C 223.929688 237.507812 226.023438 249.097656 226.921875 260.980469 C 227.820312 272.867188 228.492188 267.410156 228.042969 270.773438 C 233.652344 268.980469 239.339844 266.511719 244.277344 263.222656 C 249.4375 259.710938 254.898438 256.347656 260.058594 252.683594 C 265.21875 249.019531 266.191406 245.730469 268.511719 242.667969 Z M 154.734375 176.066406 C 152.492188 175.84375 151.296875 176.441406 150.695312 173.898438 C 150.097656 171.355469 150.097656 165.824219 152.492188 164.253906 C 152.566406 162.089844 151.894531 159.769531 151.742188 157.601562 C 151.296875 151.25 151.894531 144.820312 151.519531 138.542969 C 151.144531 132.261719 151.445312 132.636719 151.371094 129.347656 C 151.296875 126.058594 151.070312 122.171875 151.070312 118.359375 C 151.070312 114.097656 151.070312 109.839844 151.21875 105.503906 C 151.371094 101.167969 151.21875 105.203125 150.996094 105.054688 C 147.332031 106.773438 143.140625 108.121094 139.625 110.136719 C 137.832031 111.183594 136.484375 112.53125 134.765625 113.652344 C 127.730469 118.433594 120.699219 121.5 115.316406 128.375 C 112.621094 131.816406 110.152344 135.402344 107.835938 139.066406 C 102.300781 147.585938 97.136719 155.359375 94.820312 165.527344 C 93.472656 171.28125 93.398438 177.113281 92.949219 182.941406 C 92.5 188.773438 92.050781 186.308594 92.050781 187.800781 C 92.050781 189.296875 92.800781 190.941406 92.949219 192.4375 C 93.097656 193.929688 92.875 195.574219 92.949219 197.070312 C 93.546875 204.992188 95.640625 216.207031 99.53125 223.15625 C 104.542969 232.054688 110.226562 240.5 116.585938 248.421875 C 118.230469 250.441406 118.832031 251.414062 121 252.984375 C 126.160156 256.71875 131.695312 260.007812 136.933594 263.597656 C 142.167969 267.183594 145.160156 268.15625 149.199219 269.800781 C 153.238281 271.445312 153.089844 270.996094 154.886719 271.746094 C 155.183594 269.128906 153.988281 266.585938 153.6875 263.894531 C 153.390625 261.207031 153.6875 259.859375 153.238281 257.992188 C 154.585938 250.742188 153.464844 243.714844 153.464844 236.539062 C 153.464844 229.363281 154.136719 229.8125 153.914062 226.222656 C 153.765625 223.382812 152.941406 220.542969 152.792969 217.703125 C 152.640625 214.859375 153.238281 213.140625 153.238281 210.898438 C 153.238281 208.65625 153.015625 206.714844 152.714844 204.621094 C 151.371094 204.023438 150.171875 203.125 149.199219 202.003906 C 147.105469 199.460938 145.3125 196.472656 145.160156 193.109375 C 145.011719 189.746094 145.160156 187.953125 146.730469 186.308594 C 148.304688 184.664062 151.820312 183.09375 154.363281 181.898438 L 154.8125 176.066406 Z M 223.179688 163.808594 C 222.957031 163.582031 221.609375 164.480469 221.3125 164.703125 C 216.449219 168.367188 213.15625 174.347656 209.269531 178.757812 C 205.378906 183.167969 203.957031 183.914062 201.113281 186.230469 C 201.710938 187.726562 204.40625 186.007812 205.601562 185.707031 C 206.800781 185.410156 209.191406 185.109375 210.839844 184.585938 C 213.230469 183.765625 219.441406 179.28125 221.3125 177.410156 C 223.179688 175.542969 223.179688 175.542969 223.332031 174.273438 C 223.703125 170.984375 223.105469 167.171875 223.105469 163.882812 Z M 185.179688 185.109375 C 184.507812 184.585938 183.460938 184.140625 182.710938 183.765625 C 177.550781 181.523438 169.996094 179.128906 164.535156 177.636719 C 159.074219 176.140625 158.925781 176.738281 156.230469 176.363281 L 156.007812 181.597656 C 156.679688 181.671875 157.203125 181.375 157.878906 181.375 C 163.863281 181.148438 171.417969 182.644531 177.328125 183.839844 C 183.234375 185.035156 179.570312 184.664062 180.917969 184.886719 C 182.265625 185.109375 183.835938 185.035156 185.179688 185.109375 Z M 214.128906 190.566406 L 222.058594 189.820312 L 222.359375 186.382812 L 220.488281 186.980469 C 218.691406 188.324219 216.597656 189.148438 214.578125 190.042969 C 212.558594 190.941406 213.980469 189.894531 214.128906 190.566406 Z M 187.574219 193.632812 C 188.695312 190.792969 185.929688 191.6875 184.207031 191.390625 C 178.898438 190.417969 173.210938 188.398438 167.675781 187.503906 C 162.140625 186.605469 158.777344 186.753906 154.960938 189.445312 C 154.289062 191.914062 154.511719 194.304688 154.4375 196.773438 C 154.363281 199.238281 153.316406 200.136719 155.183594 201.332031 C 157.054688 202.527344 156.90625 201.855469 157.652344 201.929688 C 165.058594 202.902344 171.640625 199.910156 178.148438 196.546875 C 179.871094 195.648438 182.863281 193.332031 184.507812 192.808594 C 186.152344 192.285156 186.601562 193.109375 187.574219 193.558594 Z M 152.714844 202.828125 C 152.191406 198.9375 153.464844 195.128906 153.164062 191.238281 C 152.566406 192.0625 151.21875 192.808594 150.773438 193.558594 C 150.324219 194.304688 149.648438 196.695312 149.648438 197.445312 C 149.648438 198.191406 151.445312 202.003906 152.042969 202.527344 C 152.640625 203.050781 152.34375 202.902344 152.714844 202.828125 Z M 221.835938 197.59375 C 219.589844 197.59375 217.273438 197.894531 214.953125 197.59375 C 211.734375 197.144531 208.59375 195.875 205.601562 194.828125 C 207.398438 196.773438 209.941406 197.371094 212.261719 198.417969 C 214.578125 199.460938 213.457031 199.238281 214.203125 199.539062 C 216.597656 200.582031 219.292969 200.433594 221.835938 200.0625 Z M 191.765625 198.640625 L 190.191406 198.492188 C 185.03125 201.332031 179.421875 204.394531 173.8125 206.265625 C 168.199219 208.132812 167.226562 207.683594 165.808594 207.683594 C 163.710938 207.683594 160.421875 206.488281 158.625 205.441406 L 154.0625 202.378906 C 154.0625 203.425781 153.6875 204.769531 155.183594 204.769531 C 155.335938 205.515625 154.511719 205.144531 154.0625 205.21875 C 153.839844 205.441406 154.511719 209.253906 154.511719 209.925781 C 154.660156 212.917969 154.0625 215.980469 154.289062 218.898438 C 154.511719 221.8125 154.960938 223.457031 155.183594 225.699219 C 155.410156 227.941406 155.410156 228.539062 155.410156 229.960938 L 157.355469 226.96875 C 160.570312 223.082031 166.929688 218.375 171.792969 217.101562 C 176.652344 215.832031 174.183594 216.953125 175.457031 216.578125 C 182.265625 214.785156 187.199219 211.199219 189.894531 204.695312 C 190.191406 204.023438 191.988281 198.789062 191.765625 198.566406 Z M 219.214844 204.621094 C 218.242188 204.621094 217.421875 205.070312 216.449219 205.21875 C 215.476562 205.367188 215.027344 205.21875 214.355469 205.292969 C 213.679688 205.367188 212.785156 205.964844 212.109375 206.113281 C 209.34375 206.5625 203.808594 203.273438 201.5625 201.554688 C 199.320312 199.835938 199.242188 198.9375 198.796875 199.386719 C 198.796875 202.75 197.972656 206.339844 196.625 209.328125 C 195.28125 212.320312 193.261719 212.617188 191.089844 214.5625 L 184.207031 218.597656 C 183.835938 218.597656 183.835938 218.597656 183.910156 218.300781 C 183.910156 217.253906 184.882812 216.429688 185.332031 215.535156 C 185.78125 214.636719 186.078125 214.261719 186.003906 213.738281 C 184.582031 214.710938 183.683594 216.355469 182.488281 217.476562 C 181.292969 218.597656 178.449219 221.4375 178 221.738281 C 176.054688 223.007812 173.0625 223.605469 170.96875 224.800781 C 167.226562 226.96875 165.359375 229.660156 162.890625 232.949219 C 160.421875 236.238281 159.148438 236.539062 157.726562 238.257812 C 156.308594 239.003906 155.484375 237.285156 155.484375 236.089844 C 154.960938 236.238281 155.035156 236.988281 155.035156 237.507812 C 155.109375 240.722656 155.632812 243.9375 155.707031 247.152344 C 155.859375 253.429688 154.585938 259.785156 155.558594 266.214844 C 156.53125 272.640625 156.832031 270.175781 157.054688 272.191406 C 157.28125 274.210938 156.980469 275.632812 156.90625 277.351562 C 159.898438 278.023438 161.992188 279.816406 165.058594 280.191406 C 168.125 280.566406 173.585938 280.414062 177.777344 280.640625 C 185.105469 281.011719 192.363281 281.613281 199.691406 280.863281 C 207.023438 280.117188 206.425781 279.292969 209.792969 278.921875 C 213.15625 278.546875 214.429688 278.921875 216.523438 278.621094 C 218.617188 278.324219 223.929688 277.277344 225.351562 276.527344 C 226.773438 275.78125 226.023438 274.359375 226.023438 273.089844 C 226.023438 271.148438 226.546875 269.128906 226.472656 267.183594 C 226.398438 265.242188 225.574219 262.476562 225.351562 260.160156 C 225.125 256.945312 225.050781 253.730469 224.675781 250.515625 C 224.226562 247.003906 223.179688 243.191406 222.957031 239.753906 C 222.65625 235.042969 223.257812 229.734375 223.179688 224.800781 C 223.105469 219.867188 223.105469 213.292969 222.507812 208.359375 C 221.910156 203.425781 222.359375 207.085938 221.984375 206.9375 L 214.429688 206.488281 C 214.429688 206.113281 214.429688 206.039062 214.804688 205.890625 C 216 205.367188 218.242188 205.667969 219.214844 204.546875 Z M 215.925781 280.640625 C 209.640625 280.265625 203.582031 282.582031 197.375 283.03125 C 189.894531 283.554688 183.085938 283.105469 175.679688 282.808594 C 168.277344 282.507812 168.277344 283.105469 164.761719 282.582031 C 161.242188 282.058594 161.019531 280.492188 158.699219 280.414062 C 159.597656 283.929688 164.234375 284.675781 167.378906 284.824219 C 170.519531 284.976562 176.128906 284.675781 180.09375 284.601562 C 190.191406 284.453125 200.066406 283.179688 210.089844 281.910156 Z M 215.925781 280.640625 " fill-opacity="1" fill-rule="nonzero"/><path fill="#000000" d="M 95.867188 99.597656 C 93.546875 101.617188 90.40625 102.886719 87.863281 104.679688 C 85.320312 106.476562 84.195312 107.746094 83 109.464844 L 79.335938 115.59375 C 78.585938 113.875 78.960938 112.304688 79.558594 110.660156 C 81.726562 104.382812 90.332031 102.140625 95.792969 99.597656 Z M 95.867188 99.597656 " fill-opacity="1" fill-rule="nonzero"/><path fill="#000000" d="M 95.867188 275.855469 C 90.40625 273.390625 81.804688 270.996094 79.632812 264.792969 C 77.464844 258.589844 78.660156 261.578125 79.410156 259.859375 L 82.777344 265.617188 C 85.84375 270.546875 91.453125 272.566406 95.867188 275.855469 Z M 95.867188 275.855469 " fill-opacity="1" fill-rule="nonzero"/><path fill="#000000" d="M 301.277344 115.371094 C 300.902344 115.667969 300.902344 115.296875 300.753906 115.070312 C 299.40625 112.976562 298.285156 110.285156 296.710938 108.34375 C 293.570312 104.382812 288.484375 102.589844 284.519531 99.523438 C 285.34375 99.597656 286.089844 100.046875 286.839844 100.34375 C 290.578125 101.914062 297.835938 105.054688 299.929688 108.566406 C 302.023438 112.082031 302.324219 114.324219 301.199219 115.296875 Z M 301.277344 115.371094 " fill-opacity="1" fill-rule="nonzero"/><path fill="#000000" d="M 301.277344 260.082031 C 302.921875 269.949219 291.175781 272.792969 284.371094 276.082031 C 287.585938 273.464844 291.550781 271.96875 294.691406 269.203125 C 297.835938 266.4375 298.65625 263.597656 300.753906 260.382812 C 302.847656 257.167969 300.753906 260.007812 301.277344 260.082031 Z M 301.277344 260.082031 " fill-opacity="1" fill-rule="nonzero"/><path fill="#000000" d="M 124.214844 299.101562 C 124.214844 299.402344 124.214844 299.699219 124.292969 300 C 124.964844 301.644531 128.40625 305.832031 129.75 307.027344 C 131.847656 308.894531 134.6875 310.015625 136.410156 312.257812 C 135.0625 312.109375 133.714844 311.4375 132.519531 310.765625 C 129.453125 309.042969 126.761719 306.351562 124.664062 303.4375 C 122.570312 300.523438 121.824219 299.699219 124.066406 299.101562 Z M 124.214844 299.101562 " fill-opacity="1" fill-rule="nonzero"/><path fill="#000000" d="M 256.542969 76.351562 C 255.570312 73.585938 252.726562 70.148438 250.484375 68.277344 C 248.238281 66.410156 246.59375 65.8125 245.023438 64.316406 C 243.453125 62.820312 243.976562 63.496094 244.277344 63.195312 C 249.136719 64.464844 253.101562 68.203125 256.019531 72.238281 C 258.9375 76.277344 258.636719 75.753906 256.617188 76.351562 Z M 256.542969 76.351562 " fill-opacity="1" fill-rule="nonzero"/><path fill="#000000" d="M 244.199219 312.257812 C 243.601562 311.808594 251.082031 306.800781 251.53125 306.351562 C 252.578125 305.308594 254.597656 302.691406 255.421875 301.496094 C 256.246094 300.300781 256.542969 300 256.46875 299.175781 C 257.367188 299.175781 257.441406 300.074219 257.367188 300.820312 C 257.140625 302.167969 253.175781 306.875 251.980469 307.996094 C 250.785156 309.121094 245.023438 313.007812 244.199219 312.40625 Z M 244.199219 312.257812 " fill-opacity="1" fill-rule="nonzero"/><path fill="#000000" d="M 136.484375 63.195312 C 134.765625 65.511719 131.921875 66.632812 129.828125 68.425781 C 127.730469 70.222656 124.964844 73.882812 124.367188 75.453125 C 123.769531 77.023438 124.292969 76.050781 124.292969 76.351562 C 121.972656 75.753906 124.140625 72.988281 124.964844 71.867188 C 127.132812 68.949219 129.902344 66.261719 133.117188 64.464844 C 136.335938 62.671875 135.363281 63.34375 136.558594 63.195312 Z M 136.484375 63.195312 " fill-opacity="1" fill-rule="nonzero"/><path fill="#000000" d="M 216.597656 56.394531 C 215.625 56.09375 214.953125 55.347656 214.128906 54.824219 C 211.660156 53.402344 206.800781 50.785156 203.957031 50.710938 C 201.113281 50.636719 197.148438 52.953125 196.851562 55.570312 C 196.476562 55.570312 196.625 55.273438 196.625 55.046875 C 196.925781 51.535156 201.1875 49.066406 204.40625 49.441406 C 207.621094 49.816406 211.289062 52.132812 213.457031 53.550781 C 215.625 54.972656 215.699219 55.273438 216.597656 56.46875 Z M 216.597656 56.394531 " fill-opacity="1" fill-rule="nonzero"/><path fill="#000000" d="M 216.597656 319.0625 C 215.851562 319.882812 214.953125 321.003906 214.054688 321.675781 C 211.960938 323.097656 206.800781 325.863281 204.40625 326.085938 C 200.964844 326.460938 197.074219 324.070312 196.625 320.480469 C 196.175781 316.894531 196.550781 319.660156 196.851562 320.03125 C 197.222656 322.425781 201.636719 324.816406 203.730469 324.742188 C 205.828125 324.667969 211.960938 321.976562 214.503906 320.40625 C 217.046875 318.835938 215.699219 319.210938 216.523438 319.0625 Z M 216.597656 319.0625 " fill-opacity="1" fill-rule="nonzero"/><path fill="#000000" d="M 184.132812 55.496094 C 183.3125 54.75 183.160156 53.703125 182.265625 52.878906 C 181.367188 52.058594 178.074219 50.636719 176.804688 50.636719 C 174.183594 50.636719 169.246094 53.253906 166.855469 54.597656 C 164.460938 55.945312 164.535156 56.320312 164.386719 56.167969 C 164.910156 55.570312 165.359375 54.824219 165.957031 54.300781 C 167.828125 52.730469 174.109375 49.515625 176.578125 49.367188 C 179.046875 49.21875 184.132812 51.832031 184.132812 55.496094 Z M 184.132812 55.496094 " fill-opacity="1" fill-rule="nonzero"/><path fill="#000000" d="M 184.132812 319.882812 C 184.132812 323.621094 179.945312 326.238281 176.578125 326.011719 C 173.210938 325.789062 168.199219 322.796875 166.179688 321.304688 C 164.160156 319.808594 165.132812 320.105469 164.609375 319.433594 C 164.835938 319.210938 166.105469 320.40625 166.40625 320.554688 C 168.875 321.976562 174.035156 324.667969 176.726562 324.667969 C 179.421875 324.667969 181.816406 322.949219 182.789062 321.902344 C 183.761719 320.855469 183.460938 320.332031 184.132812 319.808594 Z M 184.132812 319.882812 " fill-opacity="1" fill-rule="nonzero"/><path fill="#000000" d="M 55.996094 192.285156 C 55.847656 192.660156 55.398438 192.585938 55.023438 192.960938 C 52.78125 194.902344 51.207031 198.117188 50.835938 201.03125 L 49.710938 204.171875 C 48.964844 201.40625 48.890625 199.984375 50.011719 197.371094 C 51.132812 194.753906 53.304688 192.4375 56.070312 192.363281 Z M 55.996094 192.285156 " fill-opacity="1" fill-rule="nonzero"/><path fill="#000000" d="M 55.996094 182.867188 C 55.996094 183.242188 55.246094 183.09375 55.023438 183.09375 C 52.105469 182.496094 49.1875 177.859375 48.964844 175.09375 C 48.738281 172.328125 49.5625 172.554688 49.636719 171.28125 C 50.085938 171.355469 50.011719 171.730469 50.085938 172.03125 C 50.683594 174.347656 51.207031 177.335938 52.480469 179.28125 C 53.75 181.222656 54.722656 182.496094 55.996094 182.867188 Z M 55.996094 182.867188 " fill-opacity="1" fill-rule="nonzero"/><path fill="#000000" d="M 324.539062 183.09375 C 324.613281 182.71875 325.210938 182.867188 325.660156 182.570312 C 326.261719 182.046875 327.757812 180.175781 328.203125 179.429688 C 329.625 177.039062 330 173.972656 330.824219 171.28125 C 331.945312 173.597656 331.871094 175.542969 330.824219 177.859375 C 329.777344 180.328125 327.53125 183.242188 324.539062 183.09375 Z M 324.539062 183.09375 " fill-opacity="1" fill-rule="nonzero"/><path fill="#000000" d="M 330.671875 204.171875 C 330.671875 203.574219 330.523438 202.902344 330.375 202.378906 C 329.253906 198.566406 328.578125 195.648438 325.585938 192.808594 C 322.59375 189.96875 324.765625 192.660156 324.765625 192.285156 C 325.8125 192.136719 327.832031 193.332031 328.578125 194.007812 C 329.328125 194.679688 331.570312 199.015625 331.644531 200.507812 C 331.71875 202.003906 331.273438 203.5 330.671875 204.097656 Z M 330.671875 204.171875 " fill-opacity="1" fill-rule="nonzero"/><path fill="#000000" d="M 59.289062 154.164062 C 59.4375 152.222656 61.457031 151.324219 62.578125 150.128906 C 64.523438 148.035156 66.242188 145.417969 68.710938 143.847656 C 68.863281 144.746094 68.488281 145.269531 68.039062 145.867188 C 66.394531 148.257812 64.375 149.679688 62.28125 151.472656 C 60.183594 153.269531 60.484375 153.417969 59.289062 154.089844 Z M 59.289062 154.164062 " fill-opacity="1" fill-rule="nonzero"/><path fill="#000000" d="M 311.824219 231.304688 C 312.195312 228.914062 314.742188 227.644531 316.011719 225.699219 L 321.25 221.4375 C 320.949219 223.382812 318.855469 224.429688 317.65625 225.847656 C 316.460938 227.269531 316.3125 227.644531 315.5625 228.390625 C 314.816406 229.136719 312.273438 231.828125 311.824219 231.378906 Z M 311.824219 231.304688 " fill-opacity="1" fill-rule="nonzero"/><path fill="#000000" d="M 319.828125 151.625 C 320.351562 152.148438 321.398438 153.191406 321.097656 153.941406 C 319.753906 152.59375 318.03125 151.546875 316.609375 150.351562 C 315.1875 149.15625 312.496094 146.09375 312.046875 145.046875 C 311.597656 144 311.75 144.449219 311.824219 144.074219 C 312.121094 143.773438 313.917969 145.417969 314.214844 145.71875 C 315.9375 147.363281 318.179688 149.828125 319.828125 151.625 Z M 319.828125 151.625 " fill-opacity="1" fill-rule="nonzero"/><path fill="#000000" d="M 64.449219 225.476562 C 65.046875 226.074219 68.414062 229.886719 68.5625 230.410156 C 68.710938 230.933594 68.710938 231.15625 68.636719 231.53125 C 68.414062 231.753906 64.300781 227.492188 63.925781 227.121094 C 63.402344 226.597656 63.027344 225.773438 62.503906 225.25 C 61.457031 224.128906 59.210938 223.007812 59.289062 221.214844 C 60.707031 222.859375 62.878906 224.054688 64.375 225.476562 Z M 64.449219 225.476562 " fill-opacity="1" fill-rule="nonzero"/><path fill="#000000" d="M 302.171875 255.898438 C 301.574219 255.972656 301.722656 255.898438 301.722656 255.375 C 301.875 253.953125 302.472656 251.1875 302.921875 249.769531 C 303.667969 247.152344 304.941406 244.761719 305.988281 242.292969 L 306.363281 243.265625 Z M 302.171875 255.898438 " fill-opacity="1" fill-rule="nonzero"/><path fill="#000000" d="M 301.722656 119.554688 C 302.023438 119.554688 302.171875 119.929688 302.324219 120.152344 C 302.847656 120.976562 305.988281 130.171875 306.210938 131.367188 C 306.4375 132.5625 306.511719 132.710938 305.988281 133.160156 C 303.894531 128.898438 302.25 124.339844 301.722656 119.554688 Z M 301.722656 119.554688 " fill-opacity="1" fill-rule="nonzero"/><path fill="#000000" d="M 74.847656 242.292969 C 76.492188 246.777344 78.660156 251.039062 78.8125 255.898438 C 78.0625 255.226562 77.6875 253.878906 77.316406 252.90625 C 76.492188 250.589844 74.921875 246.554688 74.472656 244.3125 C 74.472656 244.011719 74.171875 241.621094 74.847656 242.292969 Z M 74.847656 242.292969 " fill-opacity="1" fill-rule="nonzero"/><path fill="#000000" d="M 74.847656 133.085938 C 74.171875 133.757812 74.472656 131.367188 74.472656 131.066406 C 74.921875 128.898438 77.015625 122.84375 77.914062 120.675781 C 78.8125 118.507812 78.363281 119.554688 78.734375 119.40625 C 78.585938 124.265625 76.417969 128.527344 74.773438 133.011719 Z M 74.847656 133.085938 " fill-opacity="1" fill-rule="nonzero"/><path fill="#000000" d="M 115.015625 288.5625 C 114.792969 288.789062 112.324219 286.695312 112.023438 286.394531 C 110.304688 284.675781 109.332031 283.480469 107.386719 281.761719 C 105.441406 280.042969 105.964844 280.414062 106.1875 280.191406 C 106.5625 280.117188 106.863281 280.191406 107.160156 280.414062 C 107.835938 280.714844 110.304688 282.507812 110.902344 283.03125 C 111.5 283.554688 115.238281 288.265625 114.941406 288.488281 Z M 115.015625 288.5625 " fill-opacity="1" fill-rule="nonzero"/><path fill="#000000" d="M 274.496094 280.265625 C 274.945312 280.566406 271.28125 283.179688 271.054688 283.40625 C 269.335938 285.050781 268.0625 287.515625 265.746094 288.5625 C 265.59375 288.414062 266.566406 287.066406 266.714844 286.84375 C 267.613281 285.5 268.8125 283.929688 270.007812 282.882812 C 271.203125 281.835938 273.898438 279.816406 274.496094 280.265625 Z M 274.496094 280.265625 " fill-opacity="1" fill-rule="nonzero"/><path fill="#000000" d="M 114.792969 87.039062 C 114.941406 87.191406 114.042969 88.386719 113.894531 88.609375 C 112.324219 90.925781 109.855469 93.769531 107.234375 94.890625 C 104.617188 96.011719 106.636719 95.1875 106.265625 95.113281 C 106.039062 94.890625 107.085938 93.992188 107.234375 93.769531 C 108.207031 92.871094 109.332031 92.199219 110.304688 91.152344 C 111.277344 90.105469 114.191406 86.367188 114.792969 86.964844 Z M 114.792969 87.039062 " fill-opacity="1" fill-rule="nonzero"/><path fill="#000000" d="M 274.496094 95.1875 C 273.898438 95.636719 270.605469 93.09375 270.007812 92.570312 C 269.410156 92.046875 269.035156 91.601562 268.585938 91.152344 C 268.136719 90.703125 265.519531 87.113281 265.746094 86.890625 C 268.0625 87.863281 269.183594 90.253906 270.757812 91.824219 C 272.328125 93.394531 274.945312 94.890625 274.496094 95.1875 Z M 274.496094 95.1875 " fill-opacity="1" fill-rule="nonzero"/><path fill="#000000" d="M 234.777344 314.203125 L 227.667969 315.097656 L 223.105469 316.371094 C 222.957031 315.773438 223.257812 315.996094 223.554688 315.847656 C 226.546875 314.203125 231.410156 314.351562 234.777344 314.203125 Z M 234.777344 314.203125 " fill-opacity="1" fill-rule="nonzero"/><path fill="#000000" d="M 157.578125 316.445312 L 153.015625 315.175781 L 145.683594 314.277344 C 148.152344 314.277344 150.773438 314.277344 153.164062 314.800781 C 155.558594 315.324219 156.605469 315.398438 157.503906 316.519531 Z M 157.578125 316.445312 " fill-opacity="1" fill-rule="nonzero"/><path fill="#000000" d="M 234.777344 60.953125 L 234.777344 61.402344 C 231.410156 60.953125 227.96875 61.101562 224.753906 60.128906 L 223.105469 59.234375 C 224.753906 59.085938 226.023438 60.054688 227.59375 60.28125 C 229.164062 60.503906 232.457031 60.804688 234.699219 60.953125 Z M 234.777344 60.953125 " fill-opacity="1" fill-rule="nonzero"/><path fill="#000000" d="M 157.355469 59.234375 C 156.832031 59.90625 155.410156 60.28125 154.585938 60.503906 C 151.820312 61.175781 148.601562 61.175781 145.761719 61.25 L 153.015625 60.28125 C 154.511719 60.054688 155.859375 59.085938 157.355469 59.234375 Z M 157.355469 59.234375 " fill-opacity="1" fill-rule="nonzero"/><path fill="#000000" d="M 50.011719 169.9375 C 49.414062 170.085938 49.5625 169.636719 49.5625 169.1875 C 49.636719 168.292969 50.085938 167.320312 50.3125 166.421875 L 52.855469 162.6875 C 52.554688 165.300781 50.386719 167.246094 50.011719 169.9375 Z M 50.011719 169.9375 " fill-opacity="1" fill-rule="nonzero"/><path fill="#000000" d="M 50.011719 205.441406 C 50.386719 208.058594 52.480469 210.078125 52.855469 212.691406 L 50.3125 208.957031 C 50.011719 208.058594 49.636719 207.160156 49.5625 206.191406 C 49.488281 205.21875 49.414062 205.292969 50.011719 205.441406 Z M 50.011719 205.441406 " fill-opacity="1" fill-rule="nonzero"/><path fill="#000000" d="M 328.054688 212.46875 C 327.53125 212.46875 328.054688 211.347656 328.054688 211.125 L 330.824219 205.292969 C 331.273438 208.28125 329.253906 210.152344 327.980469 212.542969 Z M 328.054688 212.46875 " fill-opacity="1" fill-rule="nonzero"/><path fill="#000000" d="M 330.898438 170.160156 L 328.203125 164.628906 L 327.832031 162.910156 L 330.148438 166.199219 C 330.75 167.46875 331.046875 168.742188 330.898438 170.160156 Z M 330.898438 170.160156 " fill-opacity="1" fill-rule="nonzero"/><path fill="#000000" d="M 60.109375 192.511719 C 61.53125 192.882812 62.804688 194.527344 62.429688 196.023438 C 62.054688 197.519531 61.457031 197.667969 61.53125 196.25 C 61.605469 194.828125 61.308594 193.929688 60.109375 192.511719 Z M 60.109375 192.511719 " fill-opacity="1" fill-rule="nonzero"/><path fill="#000000" d="M 60.109375 183.09375 C 60.410156 182.195312 61.382812 181.523438 61.605469 180.550781 C 61.832031 179.578125 61.605469 179.28125 61.457031 178.609375 C 62.128906 178.160156 62.429688 178.980469 62.503906 179.503906 C 62.804688 181.148438 61.457031 182.269531 60.109375 183.09375 Z M 60.109375 183.09375 " fill-opacity="1" fill-rule="nonzero"/><path fill="#000000" d="M 320.351562 192.511719 C 319.078125 194.082031 319.152344 194.679688 319.003906 196.546875 C 318.855469 198.417969 319.152344 197.292969 318.703125 197.070312 C 317.132812 196.324219 318.703125 192.660156 320.351562 192.4375 Z M 320.351562 192.511719 " fill-opacity="1" fill-rule="nonzero"/><path fill="#000000" d="M 319.003906 178.53125 C 318.78125 180.402344 319.226562 181.449219 320.351562 182.941406 C 320.050781 183.242188 318.332031 181.296875 318.179688 180.851562 C 318.03125 180.175781 318.179688 179.355469 318.332031 178.757812 L 319.003906 178.609375 Z M 319.003906 178.53125 " fill-opacity="1" fill-rule="nonzero"/><path fill="#000000" d="M 184.507812 314.203125 C 184.058594 313.828125 183.984375 313.15625 183.535156 312.632812 C 183.085938 312.109375 182.339844 311.886719 181.890625 311.4375 C 183.386719 309.941406 184.65625 312.78125 184.507812 314.203125 Z M 184.507812 314.203125 " fill-opacity="1" fill-rule="nonzero"/><path fill="#000000" d="M 196.402344 313.976562 C 195.878906 313.679688 196.402344 312.257812 196.625 311.960938 C 197 311.285156 198.273438 310.316406 198.570312 311.511719 C 197.671875 312.332031 196.550781 312.632812 196.402344 314.050781 Z M 196.402344 313.976562 " fill-opacity="1" fill-rule="nonzero"/><path fill="#000000" d="M 182.113281 63.644531 L 183.460938 62.894531 L 184.582031 61.25 C 184.582031 62 184.285156 63.34375 183.835938 63.867188 C 183.386719 64.390625 182.039062 64.914062 182.1875 63.644531 Z M 182.113281 63.644531 " fill-opacity="1" fill-rule="nonzero"/><path fill="#000000" d="M 196.175781 61.402344 C 196.625 61.625 196.625 62.375 197.074219 62.820312 C 197.523438 63.269531 199.542969 64.09375 198.273438 64.464844 C 197 64.839844 195.953125 62.449219 196.175781 61.402344 Z M 196.175781 61.402344 " fill-opacity="1" fill-rule="nonzero"/><path fill="#000000" d="M 324.765625 217.550781 C 325.289062 216.207031 326.335938 214.785156 327.15625 213.589844 C 326.859375 215.085938 325.8125 216.503906 324.765625 217.550781 Z M 324.765625 217.550781 " fill-opacity="1" fill-rule="nonzero"/><path fill="#000000" d="M 327.15625 161.863281 C 326.261719 160.667969 325.289062 159.324219 324.765625 157.902344 C 325.8125 158.949219 326.859375 160.445312 327.15625 161.863281 Z M 327.15625 161.863281 " fill-opacity="1" fill-rule="nonzero"/><path fill="#000000" d="M 55.773438 217.328125 C 55.546875 217.550781 53.304688 214.414062 53.601562 213.8125 Z M 55.773438 217.328125 " fill-opacity="1" fill-rule="nonzero"/><path fill="#000000" d="M 53.527344 161.640625 C 53.226562 161.042969 55.546875 157.902344 55.695312 158.125 Z M 53.527344 161.640625 " fill-opacity="1" fill-rule="nonzero"/><path fill="#000000" d="M 365.082031 160.292969 C 365.15625 158.722656 364.859375 157.15625 364.859375 155.585938 C 364.859375 138.167969 366.503906 120.675781 368.597656 103.410156 L 369.195312 101.316406 C 369.046875 102.589844 369.644531 103.710938 369.644531 104.90625 C 369.496094 118.734375 368.375 131.292969 366.804688 145.046875 C 366.28125 149.457031 366.578125 155.511719 365.457031 159.472656 C 364.335938 163.433594 365.457031 160.144531 365.007812 160.21875 Z M 365.082031 160.292969 " fill-opacity="1" fill-rule="nonzero"/><path fill="#000000" d="M 352.589844 106.550781 C 351.917969 106.699219 351.542969 106.027344 351.320312 105.503906 C 348.925781 100.046875 350.796875 91.898438 352.816406 86.515625 C 354.835938 81.136719 356.78125 79.117188 360.445312 77.171875 C 360.667969 77.472656 357.976562 81.433594 357.601562 82.105469 C 354.011719 88.984375 354.160156 93.992188 353.1875 101.316406 C 352.964844 103.035156 352.066406 104.679688 352.515625 106.476562 Z M 352.589844 106.550781 " fill-opacity="1" fill-rule="nonzero"/><path fill="#000000" d="M 362.464844 197.144531 C 361.417969 192.960938 362.6875 188.699219 363.136719 184.511719 C 363.585938 180.328125 363.738281 177.785156 364.035156 174.421875 L 364.933594 167.542969 C 365.082031 171.058594 365.234375 174.644531 365.15625 178.160156 C 365.082031 181.671875 364.933594 179.054688 364.933594 179.503906 C 364.859375 182.570312 364.707031 194.902344 363.136719 196.773438 C 361.566406 198.640625 362.914062 197.21875 362.539062 197.144531 Z M 362.464844 197.144531 " fill-opacity="1" fill-rule="nonzero"/><path fill="#000000" d="M 352.140625 111.410156 C 353.113281 114.324219 353.710938 117.984375 352.214844 120.828125 C 351.394531 120.828125 350.871094 117.3125 350.796875 116.566406 C 350.71875 115.820312 350.570312 110.363281 352.140625 111.410156 Z M 352.140625 111.410156 " fill-opacity="1" fill-rule="nonzero"/><path fill="#000000" d="M 369.046875 99.148438 L 368.824219 95.113281 L 369.945312 86.667969 C 369.945312 90.554688 370.691406 94.589844 369.570312 98.402344 C 368.449219 102.214844 369.496094 99.074219 369.121094 99.148438 Z M 369.046875 99.148438 " fill-opacity="1" fill-rule="nonzero"/><path fill="#000000" d="M 369.71875 81.808594 C 369.347656 81.808594 369.496094 81.285156 369.496094 81.058594 C 369.421875 79.117188 369.496094 77.171875 369.273438 75.230469 C 369.570312 75.230469 369.644531 75.753906 369.71875 75.976562 C 370.394531 77.996094 370.167969 79.789062 369.71875 81.808594 Z M 369.71875 81.808594 " fill-opacity="1" fill-rule="nonzero"/><path fill="#000000" d="M 365.757812 224.128906 C 365.757812 226.746094 366.355469 229.0625 366.203125 231.679688 C 365.980469 235.566406 365.082031 239.675781 364.859375 243.488281 C 364.558594 248.125 364.859375 253.28125 364.859375 257.992188 C 364.859375 262.699219 364.410156 267.933594 365.082031 273.089844 C 365.382812 275.332031 366.203125 277.5 366.355469 279.667969 C 366.578125 282.957031 365.757812 286.917969 364.933594 290.058594 C 364.558594 289.835938 364.632812 289.460938 364.632812 289.085938 C 364.035156 285.871094 363.738281 282.957031 363.8125 279.667969 C 363.886719 276.378906 364.335938 274.660156 364.484375 271.96875 C 364.859375 264.417969 364.035156 256.871094 364.261719 249.394531 C 364.484375 241.921875 364.484375 243.9375 364.484375 240.875 C 364.484375 235.640625 364.707031 229.886719 365.308594 224.726562 C 365.90625 219.570312 365.308594 223.980469 365.832031 224.128906 Z M 365.757812 224.128906 " fill-opacity="1" fill-rule="nonzero"/><path fill="#000000" d="M 364.933594 293.421875 L 366.054688 295.214844 C 367.253906 298.355469 368.222656 302.390625 367.253906 305.753906 C 366.28125 309.121094 364.558594 308.820312 363.210938 307.921875 C 362.6875 306.578125 363.289062 305.15625 363.363281 303.886719 C 363.4375 302.617188 363.210938 301.121094 363.363281 299.699219 C 363.585938 297.53125 364.558594 295.515625 364.933594 293.421875 Z M 364.933594 293.421875 " fill-opacity="1" fill-rule="nonzero"/><path fill="#000000" d="M 357.902344 214.261719 C 358.125 215.011719 357.453125 215.011719 357.230469 215.308594 C 356.03125 217.027344 356.257812 219.421875 355.207031 220.914062 C 354.160156 222.410156 353.414062 220.167969 353.265625 219.421875 C 352.816406 216.730469 354.609375 212.691406 357.828125 214.261719 Z M 357.902344 214.261719 " fill-opacity="1" fill-rule="nonzero"/><path fill="#000000" d="M 355.207031 235.714844 C 354.835938 235.714844 354.984375 235.191406 354.984375 234.96875 C 354.910156 232.949219 354.984375 230.632812 354.761719 228.613281 C 354.535156 226.597656 353.414062 224.355469 354.683594 222.558594 C 354.984375 222.484375 355.285156 222.933594 355.359375 223.15625 C 356.179688 224.578125 355.359375 228.539062 355.207031 230.332031 C 355.058594 232.128906 355.285156 233.921875 355.207031 235.714844 Z M 355.207031 235.714844 " fill-opacity="1" fill-rule="nonzero"/><path fill="#000000" d="M 352.589844 276.828125 C 352.589844 276.753906 352.816406 276.003906 353.039062 276.082031 C 353.339844 277.800781 352.589844 279.890625 352.816406 281.460938 C 353.039062 283.03125 353.710938 283.105469 352.441406 284.152344 C 350.421875 283.78125 352.589844 281.6875 352.589844 280.566406 C 352.589844 279.445312 352.441406 277.949219 352.589844 276.828125 Z M 352.589844 276.828125 " fill-opacity="1" fill-rule="nonzero"/><path fill="#000000" d="M 353.710938 265.09375 C 353.414062 265.09375 353.339844 264.71875 353.339844 264.492188 C 353.039062 262.625 353.789062 259.5625 353.9375 257.542969 C 354.085938 255.523438 353.9375 254.628906 353.9375 253.132812 L 354.386719 251.039062 C 354.160156 255.75 354.085938 260.382812 353.710938 265.09375 Z M 353.710938 265.09375 " fill-opacity="1" fill-rule="nonzero"/><path fill="#000000" d="M 364.035156 314.425781 C 364.558594 316.96875 361.867188 317.863281 359.773438 317.714844 C 358.5 316.667969 358.199219 314.5 359.546875 313.378906 C 359.773438 313.902344 359.171875 314.351562 359.023438 314.875 C 358.5 317.566406 362.390625 317.863281 363.363281 316.144531 C 364.335938 314.425781 363.4375 314.800781 364.035156 314.5 Z M 364.035156 314.425781 " fill-opacity="1" fill-rule="nonzero"/><path fill="#000000" d="M 365.53125 217.101562 C 364.933594 217.101562 365.15625 217.101562 365.082031 216.804688 C 364.859375 216.132812 364.410156 215.085938 364.335938 214.488281 C 364.109375 213.214844 365.53125 214.261719 365.757812 215.085938 C 365.980469 215.90625 365.457031 216.429688 365.605469 217.101562 Z M 365.53125 217.101562 " fill-opacity="1" fill-rule="nonzero"/><path fill="#000000" d="M 368.375 308.96875 C 368.523438 309.492188 367.851562 311.0625 367.328125 311.136719 L 366.578125 310.988281 C 367.253906 310.390625 367.253906 308.894531 368.300781 309.042969 Z M 368.375 308.96875 " fill-opacity="1" fill-rule="nonzero"/><path fill="#000000" d="M 355.058594 316.21875 C 355.359375 315.175781 354.910156 314.203125 354.609375 313.15625 C 355.433594 313.679688 356.179688 315.847656 355.058594 316.21875 Z M 355.058594 316.21875 " fill-opacity="1" fill-rule="nonzero"/><path fill="#000000" d="M 351.691406 313.15625 L 350.71875 312.929688 L 348.851562 312.035156 C 349.75 312.332031 351.542969 311.886719 351.691406 313.15625 Z M 351.691406 313.15625 " fill-opacity="1" fill-rule="nonzero"/><path fill="#000000" d="M 364.707031 311.585938 L 364.183594 312.707031 L 363.886719 312.40625 C 363.8125 311.808594 364.183594 311.585938 364.785156 311.660156 Z M 364.707031 311.585938 " fill-opacity="1" fill-rule="nonzero"/><path fill="#000000" d="M 354.386719 316.21875 C 354.160156 316.894531 353.1875 315.921875 353.039062 315.546875 Z M 354.386719 316.21875 " fill-opacity="1" fill-rule="nonzero"/><path fill="#000000" d="M 361.941406 206.5625 C 362.539062 206.414062 365.53125 206.9375 365.308594 207.757812 C 365.082031 208.582031 362.316406 207.535156 361.792969 207.085938 C 361.269531 206.636719 361.640625 206.636719 361.941406 206.5625 Z M 361.941406 206.5625 " fill-opacity="1" fill-rule="nonzero"/><path fill="#000000" d="M 363.363281 210.75 C 362.988281 210.75 362.390625 210.75 362.242188 210.300781 C 362.613281 210.300781 363.210938 210.300781 363.363281 210.75 Z M 363.363281 210.75 " fill-opacity="1" fill-rule="nonzero"/><path fill="#000000" d="M 267.238281 232.875 L 266.792969 232.875 C 267.164062 232.054688 267.238281 231.15625 267.464844 230.410156 C 268.660156 227.121094 270.90625 223.605469 272.328125 220.390625 C 279.058594 205.21875 280.855469 183.988281 279.882812 167.46875 C 278.910156 150.949219 279.507812 165.601562 279.433594 164.628906 C 279.359375 163.65625 279.285156 163.433594 279.65625 163.433594 C 280.105469 166.648438 281.226562 169.710938 281.601562 173 C 282.5 180.851562 281.976562 189.820312 281.601562 197.742188 C 281.226562 208.28125 276.816406 216.953125 271.503906 225.847656 C 266.191406 234.742188 268.363281 230.410156 267.089844 232.949219 Z M 267.238281 232.875 " fill-opacity="1" fill-rule="nonzero"/><path fill="#000000" d="M 230.585938 265.09375 L 245.472656 254.253906 C 246.519531 253.507812 249.136719 250.816406 250.109375 250.515625 C 251.082031 250.21875 250.632812 250.292969 250.859375 250.664062 C 250.707031 252.535156 248.6875 253.953125 247.269531 255 C 243.675781 257.765625 238.441406 261.054688 234.550781 263.296875 C 230.660156 265.539062 232.007812 264.867188 230.511719 265.09375 Z M 230.585938 265.09375 " fill-opacity="1" fill-rule="nonzero"/><path fill="#000000" d="M 278.910156 160.96875 L 276.890625 154.539062 C 274.871094 149.082031 272.101562 143.925781 268.886719 139.066406 C 267.164062 136.449219 264.398438 134.28125 262.675781 131.589844 C 263.050781 131.515625 263.199219 131.816406 263.425781 132.039062 C 269.933594 138.09375 275.167969 145.867188 277.636719 154.464844 C 280.105469 163.058594 278.609375 158.800781 278.910156 160.96875 Z M 278.910156 160.96875 " fill-opacity="1" fill-rule="nonzero"/><path fill="#000000" d="M 256.320312 246.929688 C 258.414062 244.238281 259.984375 240.722656 262.902344 238.855469 C 263.277344 239.304688 258.863281 244.910156 258.265625 245.507812 C 257.664062 246.105469 256.769531 247.300781 256.320312 246.929688 Z M 256.320312 246.929688 " fill-opacity="1" fill-rule="nonzero"/><path fill="#000000" d="M 258.265625 127.179688 C 257.890625 127.253906 257.738281 126.957031 257.515625 126.730469 C 255.71875 125.238281 254.074219 123.59375 252.28125 122.097656 C 250.484375 120.601562 248.914062 120.003906 247.792969 118.359375 L 252.28125 121.199219 L 258.339844 127.105469 Z M 258.265625 127.179688 " fill-opacity="1" fill-rule="nonzero"/><path fill="#000000" d="M 262.003906 130.917969 C 261.332031 130.769531 260.433594 129.871094 260.285156 129.199219 Z M 262.003906 130.917969 " fill-opacity="1" fill-rule="nonzero"/><path fill="#000000" d="M 112.996094 234.820312 C 112.621094 234.894531 112.398438 234.667969 112.097656 234.519531 C 110.902344 233.847656 107.910156 229.363281 107.011719 227.941406 C 98.257812 214.335938 98.183594 202.152344 98.035156 186.457031 C 97.886719 170.757812 98.558594 173.226562 101.101562 165.824219 C 103.644531 158.425781 103.570312 159.769531 105.367188 156.929688 L 104.617188 159.921875 C 95.941406 178.382812 99.382812 198.339844 104.769531 217.179688 C 106.1875 222.1875 108.730469 226.148438 110.902344 230.78125 C 113.070312 235.417969 111.875 233.699219 112.921875 234.820312 Z M 112.996094 234.820312 " fill-opacity="1" fill-rule="nonzero"/><path fill="#000000" d="M 148.078125 261.578125 C 148.078125 261.953125 147.628906 261.726562 147.40625 261.726562 C 145.085938 261.128906 138.429688 256.796875 136.410156 255.226562 C 134.390625 253.65625 134.390625 253.355469 133.417969 252.535156 C 131.695312 251.1875 128.929688 250.441406 128.40625 248.050781 C 129.601562 249.917969 131.472656 250.367188 133.117188 251.5625 C 137.679688 254.703125 142.242188 257.839844 146.730469 260.980469 C 151.21875 264.121094 147.628906 261.503906 148.078125 261.652344 Z M 148.078125 261.578125 " fill-opacity="1" fill-rule="nonzero"/><path fill="#000000" d="M 124.441406 128.972656 C 121.671875 131.816406 119.128906 134.878906 116.8125 138.09375 L 108.433594 150.875 C 108.582031 150.203125 108.65625 149.53125 108.957031 148.859375 C 110.902344 144.523438 118.90625 133.535156 122.496094 130.320312 C 126.085938 127.105469 123.84375 129.125 124.441406 128.898438 Z M 124.441406 128.972656 " fill-opacity="1" fill-rule="nonzero"/><path fill="#000000" d="M 159.746094 147.585938 C 159.375 147.511719 159.375 147.136719 159.300781 146.839844 C 158.101562 136.148438 161.09375 125.835938 161.167969 115.144531 L 161.691406 113.425781 C 161.542969 116.339844 161.691406 119.183594 161.691406 122.097656 C 161.617188 128.152344 161.167969 134.28125 160.121094 140.261719 L 159.671875 147.585938 Z M 159.746094 147.585938 " fill-opacity="1" fill-rule="nonzero"/><path fill="#000000" d="M 215.253906 118.882812 C 214.878906 118.734375 214.878906 117.761719 214.804688 117.464844 C 214.652344 116.339844 214.726562 115.070312 214.578125 113.949219 C 214.203125 110.886719 213.757812 107.894531 213.679688 104.832031 L 214.578125 108.195312 L 215.253906 118.808594 Z M 215.253906 118.882812 " fill-opacity="1" fill-rule="nonzero"/><path fill="#000000" d="M 213.082031 98.253906 C 212.183594 97.207031 212.109375 95.636719 211.363281 94.367188 C 210.613281 93.09375 210.164062 93.320312 210.015625 92.570312 C 212.558594 93.167969 213.382812 95.933594 213.082031 98.253906 Z M 213.082031 98.253906 " fill-opacity="1" fill-rule="nonzero"/><path fill="#000000" d="M 220.488281 250.441406 C 219.441406 250.664062 218.992188 248.871094 218.84375 248.050781 C 217.945312 244.164062 218.84375 239.601562 218.992188 235.640625 C 219.140625 231.679688 218.992188 231.378906 218.992188 229.289062 C 219.140625 222.859375 218.84375 216.429688 219.515625 210.078125 C 219.890625 210.078125 220.265625 213.214844 220.265625 213.664062 C 220.636719 218.898438 220.1875 224.578125 220.488281 229.886719 C 220.789062 235.265625 221.609375 240.574219 221.160156 246.105469 C 220.710938 251.636719 220.414062 248.945312 220.488281 250.367188 Z M 220.488281 250.441406 " fill-opacity="1" fill-rule="nonzero"/><path fill="#000000" d="M 206.722656 274.734375 C 207.398438 273.914062 208.820312 273.988281 209.792969 273.761719 C 210.765625 273.539062 212.261719 272.941406 213.457031 272.640625 C 214.652344 272.34375 219.066406 271.894531 220.113281 270.699219 C 221.160156 269.503906 221.160156 268.902344 221.160156 268.230469 C 221.3125 265.539062 220.339844 263 220.265625 260.382812 C 220.265625 259.113281 220.265625 257.839844 221.011719 256.796875 C 221.386719 256.796875 222.058594 259.113281 222.132812 259.5625 C 222.730469 262.476562 222.433594 266.4375 221.683594 269.277344 C 221.3125 270.625 220.863281 271.070312 219.738281 271.746094 C 217.945312 272.867188 212.035156 273.988281 209.714844 274.4375 C 207.398438 274.882812 207.621094 274.808594 206.574219 274.734375 Z M 206.722656 274.734375 " fill-opacity="1" fill-rule="nonzero"/></svg>