<svg xmlns="http://www.w3.org/2000/svg" xmlns:xlink="http://www.w3.org/1999/xlink" width="500" zoomAndPan="magnify" viewBox="0 0 375 374.999991" height="500" preserveAspectRatio="xMidYMid meet" version="1.0"><defs><clipPath id="6912bc08ee"><path d="M 156 118 L 177.71875 118 L 177.71875 305 L 156 305 Z M 156 118 " clip-rule="nonzero"/></clipPath><clipPath id="2b0f82d8f8"><path d="M 23.21875 113 L 33 113 L 33 301 L 23.21875 301 Z M 23.21875 113 " clip-rule="nonzero"/></clipPath></defs><path fill="#000000" d="M 108.882812 241.714844 C 107.996094 241.382812 107.71875 240.773438 107.609375 240.164062 C 106.832031 237.175781 106.28125 234.132812 106.667969 230.976562 C 107 228.484375 107.386719 226.050781 107.71875 223.558594 C 107.71875 223.390625 107.71875 223.171875 107.664062 223.003906 C 107.496094 222.507812 107.164062 222.007812 107.109375 221.511719 C 106.335938 215.863281 105.617188 210.160156 104.785156 204.515625 C 104.234375 200.585938 103.457031 196.710938 102.792969 192.835938 C 101.632812 185.914062 100.46875 178.941406 99.253906 172.019531 C 98.089844 165.542969 96.761719 159.175781 95.601562 152.699219 C 94.382812 145.726562 93.277344 138.75 92.058594 131.777344 C 91.117188 126.238281 90.730469 120.648438 88.960938 115.335938 C 87.078125 109.6875 85.859375 103.820312 84.589844 98.007812 C 84.257812 96.566406 83.867188 95.183594 83.535156 93.800781 C 84.257812 93.523438 84.644531 93.800781 85.140625 94.296875 C 87.1875 96.457031 89.292969 98.503906 91.394531 100.609375 C 91.890625 101.105469 92.335938 101.660156 92.777344 102.214844 C 93.109375 102.65625 92.945312 104.375 92.5 104.707031 C 92.28125 104.871094 91.835938 105.039062 91.671875 104.925781 C 91.0625 104.59375 90.453125 104.261719 90.066406 103.765625 C 88.515625 101.9375 87.078125 100 85.585938 98.117188 C 85.527344 98.0625 85.472656 98.0625 85.253906 97.953125 C 86.46875 102.601562 87.464844 107.195312 88.847656 111.625 C 90.566406 117.050781 91.671875 122.53125 92.667969 128.121094 C 94.546875 138.695312 96.539062 149.214844 98.53125 159.730469 C 99.917969 167.09375 101.300781 174.402344 102.683594 181.707031 C 102.738281 181.929688 102.792969 182.152344 102.847656 182.371094 C 102.90625 182.371094 102.960938 182.371094 103.070312 182.371094 C 103.238281 180.433594 103.511719 178.496094 103.570312 176.503906 C 103.957031 166.539062 103.457031 156.574219 103.179688 146.613281 C 103.179688 146.058594 103.402344 145.394531 103.734375 144.894531 C 104.839844 143.234375 106.058594 141.574219 107.164062 140.023438 C 103.125 134.210938 98.863281 128.621094 95.269531 122.640625 C 92.945312 118.765625 91.007812 114.671875 89.402344 110.40625 C 89.238281 110.019531 89.125 109.632812 89.015625 109.246094 C 89.015625 109.191406 89.015625 109.132812 89.125 108.96875 C 94.214844 119.597656 101.410156 128.785156 108.550781 138.195312 C 109.378906 137.035156 110.152344 135.925781 110.871094 134.820312 C 114.96875 128.453125 118.121094 121.589844 120.777344 114.503906 C 121.164062 113.507812 121.332031 112.398438 121.386719 111.402344 C 121.441406 107.585938 121.386719 103.820312 121.386719 100 C 121.277344 100 121.222656 99.945312 121.109375 99.945312 C 120.890625 100.277344 120.667969 100.609375 120.445312 100.886719 C 120.167969 101.21875 119.894531 101.605469 119.5625 101.882812 C 119.117188 102.269531 118.566406 102.546875 118.011719 102.105469 C 117.511719 101.714844 117.347656 100.773438 117.679688 100.222656 C 118.566406 98.671875 119.449219 97.175781 120.28125 95.625 C 120.335938 95.515625 120.390625 95.292969 120.335938 95.183594 C 119.671875 93.578125 119.726562 91.917969 119.726562 90.257812 C 119.726562 90.148438 119.726562 90.035156 119.671875 89.871094 C 119.5625 89.925781 119.449219 89.925781 119.449219 89.980469 C 116.515625 92.96875 112.753906 94.132812 108.824219 94.742188 C 103.570312 95.515625 98.421875 95.074219 93.441406 93.136719 C 90.675781 92.085938 88.242188 90.535156 86.46875 88.097656 C 86.414062 88.042969 86.359375 87.988281 86.25 87.933594 C 85.75 89.261719 85.253906 90.589844 83.8125 91.585938 C 83.8125 91.144531 83.8125 90.867188 83.867188 90.644531 C 84.035156 89.316406 84.257812 88.042969 84.421875 86.714844 C 84.808594 83.835938 85.140625 80.902344 85.527344 78.023438 C 85.585938 77.691406 85.75 77.414062 85.972656 77.082031 C 86.027344 77.25 86.082031 77.359375 86.082031 77.523438 C 86.191406 79.628906 86.359375 81.789062 86.414062 83.890625 C 86.46875 84.941406 86.800781 85.828125 87.410156 86.605469 C 89.734375 89.480469 92.886719 90.976562 96.320312 92.027344 C 96.484375 92.085938 96.597656 92.027344 96.984375 92.027344 C 96.707031 91.863281 96.539062 91.75 96.375 91.695312 C 94.050781 90.8125 92.003906 89.425781 90.121094 87.765625 C 87.964844 85.882812 86.855469 83.558594 87.023438 80.625 C 87.078125 80.070312 86.800781 79.519531 86.746094 78.964844 C 86.582031 77.414062 86.96875 75.917969 88.074219 74.589844 C 87.851562 75.476562 87.632812 76.195312 87.578125 76.972656 C 87.355469 79.128906 88.351562 80.847656 89.789062 82.285156 C 92.113281 84.609375 94.992188 85.996094 98.144531 86.824219 C 103.015625 88.097656 107.828125 88.152344 112.589844 86.4375 C 114.136719 85.882812 115.6875 85 117.015625 84 C 119.617188 81.953125 120.003906 78.964844 118.234375 76.140625 C 117.238281 74.589844 115.851562 73.429688 114.304688 72.433594 C 113.972656 72.210938 113.585938 72.042969 113.363281 71.769531 C 113.195312 71.601562 113.085938 71.269531 113.195312 71.101562 C 113.253906 70.9375 113.585938 70.882812 113.804688 70.828125 C 113.859375 70.828125 113.917969 70.828125 113.972656 70.882812 C 117.292969 72.375 119.949219 74.480469 120.722656 78.300781 C 120.777344 78.464844 120.777344 78.632812 120.777344 78.742188 C 120.777344 80.734375 119.894531 82.671875 119.894531 84.667969 C 119.007812 85.882812 118.234375 87.269531 117.179688 88.320312 C 115.632812 89.925781 113.640625 90.921875 111.535156 91.695312 C 111.535156 91.75 111.535156 91.808594 111.535156 91.917969 C 111.757812 91.917969 112.035156 92.027344 112.257812 91.917969 C 114.25 91.253906 116.242188 90.367188 117.734375 88.875 C 118.621094 87.988281 119.230469 86.824219 119.949219 85.828125 C 120.113281 85.605469 120.390625 85.441406 120.613281 85.21875 C 120.777344 85.496094 121.109375 85.71875 121.164062 85.996094 C 121.277344 86.605469 121.164062 87.210938 121.222656 87.820312 C 121.386719 89.207031 121.441406 90.589844 121.71875 91.917969 C 122.105469 93.746094 122.21875 95.570312 122.273438 97.453125 C 122.328125 99.390625 122.714844 101.273438 122.824219 103.210938 C 123.046875 106.753906 123.324219 110.296875 122.824219 113.785156 C 122.660156 115.003906 122.769531 116.21875 122.714844 117.4375 C 122.550781 121.867188 122.492188 126.351562 122.273438 130.777344 C 121.996094 136.316406 121.71875 141.90625 121.277344 147.441406 C 120.777344 154.085938 120.335938 160.726562 119.5625 167.371094 C 118.675781 175.175781 117.402344 182.925781 116.40625 190.730469 C 115.1875 199.867188 113.03125 208.832031 111.261719 217.855469 C 110.984375 219.242188 110.871094 220.734375 110.375 222.0625 C 109.15625 225.273438 109.65625 228.652344 109.15625 231.917969 C 108.769531 234.628906 108.660156 237.398438 108.9375 240.164062 C 109.101562 240.609375 108.9375 241.105469 108.882812 241.714844 Z M 113.253906 196.488281 C 113.253906 196.433594 113.308594 196.324219 113.308594 196.265625 C 114.304688 189.734375 115.519531 183.203125 116.296875 176.671875 C 117.402344 167.425781 118.234375 158.125 119.230469 148.882812 C 119.285156 148.328125 119.230469 147.71875 119.230469 147.164062 C 119.171875 146.058594 119.007812 144.949219 119.0625 143.84375 C 119.171875 141.738281 119.449219 139.636719 119.5625 137.53125 C 120.003906 130.722656 120.445312 123.914062 120.832031 117.105469 C 120.832031 116.941406 120.832031 116.773438 120.832031 116.609375 C 120.613281 116.828125 120.558594 117.050781 120.445312 117.273438 C 117.179688 127.734375 112.589844 137.476562 105.117188 145.671875 C 104.398438 146.5 104.121094 147.277344 104.121094 148.328125 C 104.289062 154.804688 104.234375 161.335938 104.785156 167.8125 C 105.339844 174.011719 105.339844 180.214844 104.839844 186.46875 C 104.730469 187.851562 104.839844 189.292969 104.675781 190.675781 C 104.507812 191.839844 104.566406 192.890625 104.785156 193.996094 C 106.113281 199.535156 106.832031 205.179688 107.664062 210.828125 C 107.996094 213.039062 108.328125 215.308594 108.714844 217.523438 C 108.769531 217.523438 108.769531 217.523438 108.824219 217.523438 C 110.210938 211.046875 111.648438 204.515625 113.085938 197.984375 C 112.53125 198.148438 112.144531 198.371094 111.8125 198.261719 C 111.148438 198.09375 110.816406 198.371094 110.429688 198.757812 C 109.65625 199.476562 108.714844 199.699219 107.664062 199.3125 C 106.777344 198.980469 106.335938 198.261719 106.28125 197.320312 C 106.226562 196.210938 106.613281 195.324219 107.554688 194.71875 C 107.828125 194.550781 108.21875 194.550781 108.550781 194.496094 C 108.660156 194.660156 108.769531 194.828125 108.882812 194.992188 C 108.605469 195.105469 108.21875 195.160156 108.105469 195.382812 C 107.773438 195.933594 107.441406 196.488281 107.386719 197.097656 C 107.277344 197.761719 107.554688 198.371094 108.273438 198.535156 C 108.992188 198.703125 109.546875 198.316406 109.878906 197.707031 C 110.320312 196.929688 110.265625 196.210938 109.710938 195.4375 C 109.546875 195.214844 109.710938 194.773438 109.710938 194.441406 C 110.042969 194.496094 110.484375 194.386719 110.707031 194.550781 C 111.09375 194.882812 111.316406 195.4375 111.59375 195.769531 C 112.144531 196.046875 112.699219 196.265625 113.253906 196.488281 Z M 113.253906 196.488281 " fill-opacity="1" fill-rule="nonzero"/><path fill="#000000" d="M 151.710938 244.648438 C 151.488281 243.265625 151.324219 241.882812 151.101562 240.496094 C 150.105469 234.574219 150.550781 228.707031 151.324219 222.839844 C 152.375 215.144531 153.480469 207.503906 154.535156 199.808594 C 155.140625 195.324219 155.695312 190.785156 156.304688 186.246094 C 156.359375 185.96875 156.414062 185.75 156.527344 185.472656 C 156.414062 187.519531 156.304688 189.570312 156.195312 191.617188 C 155.695312 198.925781 155.140625 206.175781 154.589844 213.484375 C 154.421875 215.972656 154.257812 218.410156 153.925781 220.902344 C 152.984375 228.984375 153.148438 237.011719 154.421875 245.039062 C 155.53125 251.957031 155.804688 258.933594 155.863281 265.90625 C 155.863281 266.183594 155.863281 266.40625 155.917969 266.683594 C 156.359375 262.53125 156.800781 258.433594 157.246094 254.28125 C 157.964844 248.082031 157.523438 241.882812 157.355469 235.625 C 157.132812 226.382812 157.300781 217.136719 157.964844 207.949219 C 158.351562 203.132812 158.019531 198.203125 158.1875 193.332031 C 158.242188 190.675781 158.628906 188.074219 158.851562 185.417969 C 158.851562 185.195312 158.90625 184.917969 159.015625 184.753906 C 159.070312 184.585938 159.238281 184.476562 159.402344 184.367188 C 159.515625 184.53125 159.570312 184.640625 159.625 184.808594 C 159.679688 184.917969 159.625 185.03125 159.625 185.140625 C 159.347656 191.617188 160.011719 198.09375 160.34375 204.570312 C 160.511719 207.449219 160.289062 210.328125 160.289062 213.207031 C 160.289062 219.40625 160.34375 225.605469 160.289062 231.808594 C 160.234375 239.28125 159.570312 246.644531 158.851562 254.0625 C 158.40625 259.097656 158.128906 264.136719 157.6875 269.171875 C 157.191406 275.042969 156.691406 280.910156 156.027344 286.722656 C 155.585938 290.597656 155.585938 294.527344 155.75 298.402344 C 155.75 298.898438 155.863281 299.398438 155.75 299.898438 C 155.585938 300.894531 156.082031 301.613281 156.691406 302.222656 C 157.910156 303.328125 158.296875 304.546875 158.351562 306.207031 C 158.40625 308.808594 158.851562 311.410156 159.125 314.011719 C 159.238281 314.898438 159.347656 315.785156 159.402344 316.671875 C 159.457031 317.886719 159.015625 318.496094 157.910156 318.941406 C 155.695312 319.882812 153.480469 320.820312 151.269531 321.820312 C 146.011719 324.144531 140.535156 324.695312 134.890625 324.421875 C 132.621094 324.308594 130.296875 324.199219 128.027344 324.03125 C 124.707031 323.8125 121.441406 324.308594 118.234375 325.195312 C 117.457031 325.417969 116.628906 325.636719 115.851562 325.859375 C 113.917969 326.414062 111.925781 325.417969 110.984375 323.3125 C 110.320312 321.761719 109.765625 320.214844 109.269531 318.609375 C 108.105469 315.007812 107.828125 311.300781 107.386719 307.535156 C 106.890625 303.660156 106.777344 299.785156 106.667969 295.855469 C 106.5 289.765625 106.945312 283.730469 107.164062 277.699219 C 107.554688 268.675781 107.664062 259.707031 107.886719 250.683594 C 107.941406 248.746094 107.996094 246.808594 108.050781 244.816406 C 108.050781 244.539062 108.105469 244.316406 108.273438 244.039062 C 108.328125 244.261719 108.382812 244.484375 108.382812 244.648438 C 109.214844 255.167969 109.765625 265.742188 109.601562 276.3125 C 109.488281 284.285156 108.9375 292.203125 108.714844 300.171875 C 108.660156 303.050781 109.046875 305.984375 109.15625 308.921875 C 109.324219 313.347656 110.707031 317.445312 112.53125 321.375 C 113.085938 322.539062 114.582031 323.421875 115.851562 323.3125 C 119.007812 323.035156 122.105469 322.648438 125.261719 322.425781 C 128.855469 322.152344 132.398438 321.875 135.996094 322.09375 C 141.085938 322.371094 146.179688 322.039062 150.992188 320.15625 C 152.707031 319.492188 154.476562 318.71875 156.027344 317.722656 C 156.582031 317.390625 156.800781 316.339844 156.96875 315.5625 C 157.132812 314.621094 157.132812 313.570312 157.078125 312.628906 C 157.023438 310.191406 156.914062 307.8125 156.800781 305.378906 C 156.746094 304.546875 155.417969 303.164062 154.644531 302.886719 C 154.144531 302.71875 153.59375 302.332031 153.425781 301.945312 C 153.039062 301.171875 152.761719 300.285156 152.707031 299.453125 C 152.484375 295.246094 152.652344 291.039062 153.425781 286.832031 C 154.144531 283.066406 154.3125 279.25 154.257812 275.429688 C 154.257812 270.613281 154.421875 265.742188 154.203125 260.925781 C 154.089844 257.992188 153.425781 255.113281 152.929688 252.234375 C 152.597656 250.128906 152.210938 248.082031 151.878906 245.976562 C 151.933594 245.480469 151.820312 245.039062 151.710938 244.648438 C 151.710938 244.59375 151.710938 244.648438 151.710938 244.648438 Z M 151.710938 244.648438 " fill-opacity="1" fill-rule="nonzero"/><g clip-path="url(#6912bc08ee)"><path fill="#000000" d="M 156.691406 300.449219 C 157.796875 299.675781 158.851562 299.34375 159.902344 299.175781 C 163.167969 298.679688 166.375 299.175781 169.53125 300.007812 C 170.691406 300.339844 171.855469 300.671875 173.183594 301.058594 C 173.402344 299.507812 173.789062 298.015625 173.847656 296.464844 C 174.121094 292.148438 174.34375 287.773438 174.511719 283.457031 C 174.84375 274.652344 175.230469 265.796875 175.339844 256.996094 C 175.394531 249.355469 175.230469 241.714844 174.84375 234.132812 C 174.234375 222.894531 173.402344 211.710938 172.574219 200.472656 C 172.296875 196.65625 171.6875 192.890625 171.191406 189.070312 C 170.582031 183.867188 170.359375 178.664062 170.414062 173.40625 C 170.46875 168.699219 170.527344 164.050781 170.582031 159.34375 C 170.636719 155.746094 170.859375 152.089844 170.914062 148.492188 C 171.023438 142.679688 170.46875 136.867188 169.917969 131.054688 C 169.585938 127.347656 169.417969 123.636719 169.253906 119.929688 C 169.253906 119.542969 169.472656 119.097656 169.585938 118.65625 C 169.804688 119.042969 170.195312 119.375 170.304688 119.761719 C 170.859375 122.199219 171.410156 124.578125 171.742188 127.015625 C 172.296875 131.109375 172.738281 135.152344 173.070312 139.25 C 173.457031 144.066406 172.960938 148.824219 172.628906 153.585938 C 172.019531 161.558594 171.796875 169.53125 171.964844 177.554688 C 172.128906 184.089844 173.347656 190.398438 174.511719 196.820312 C 175.839844 204.238281 176.335938 211.765625 176.835938 219.242188 C 177.554688 230.644531 177.71875 242.101562 177.664062 253.507812 C 177.609375 262.585938 177.332031 271.609375 177.109375 280.6875 C 177 285.394531 176.890625 290.097656 176.667969 294.804688 C 176.558594 297.183594 176.171875 299.566406 175.949219 301.945312 C 175.839844 303.050781 175.285156 303.9375 174.066406 304.046875 C 172.40625 304.214844 170.691406 304.324219 169.03125 304.160156 C 165.492188 303.882812 162.058594 303.109375 158.792969 301.667969 C 158.074219 301.335938 157.523438 300.894531 156.691406 300.449219 Z M 156.691406 300.449219 " fill-opacity="1" fill-rule="nonzero"/></g><g clip-path="url(#2b0f82d8f8)"><path fill="#000000" d="M 32.628906 114.003906 C 31.355469 116.773438 30.359375 119.597656 29.582031 122.585938 C 28.199219 128.234375 27.703125 133.988281 27.371094 139.800781 C 26.707031 152.203125 26.871094 164.601562 26.871094 176.949219 C 26.871094 184.753906 27.480469 192.558594 27.535156 200.363281 C 27.589844 212.265625 27.480469 224.167969 27.371094 236.070312 C 27.316406 241.882812 27.316406 247.640625 27.039062 253.394531 C 26.816406 258.046875 26.320312 262.695312 25.929688 267.347656 C 25.324219 274.765625 25.15625 282.238281 25.433594 289.65625 C 25.542969 292.257812 26.042969 294.859375 26.375 297.460938 C 26.429688 298.015625 26.539062 298.625 26.429688 299.175781 C 26.375 299.507812 25.929688 300.007812 25.65625 300.0625 C 25.324219 300.117188 24.769531 299.730469 24.660156 299.398438 C 24.382812 298.457031 24.269531 297.460938 24.105469 296.519531 C 23.21875 290.320312 23.332031 284.0625 23.550781 277.808594 C 23.773438 270.5 24.382812 263.25 24.714844 256 C 24.933594 249.851562 24.992188 243.652344 24.992188 237.507812 C 24.992188 224.777344 24.992188 211.988281 24.824219 199.257812 C 24.769531 191.449219 24.214844 183.699219 24.328125 175.894531 C 24.492188 165.046875 25.046875 154.140625 25.488281 143.289062 C 25.710938 138.140625 26.207031 132.992188 27.203125 127.957031 C 28.144531 123.359375 29.363281 118.878906 31.6875 114.78125 C 31.851562 114.449219 32.183594 114.171875 32.40625 113.894531 C 32.515625 113.894531 32.570312 113.949219 32.628906 114.003906 Z M 32.628906 114.003906 " fill-opacity="1" fill-rule="nonzero"/></g><path fill="#000000" d="M 35.726562 112.566406 C 36.003906 112.675781 36.335938 112.675781 36.554688 112.84375 C 37.496094 113.671875 38.546875 114.394531 39.324219 115.335938 C 42.644531 119.320312 44.691406 123.96875 46.296875 128.839844 C 47.625 132.992188 48.230469 137.257812 48.785156 141.519531 C 49.835938 149.546875 50.167969 157.570312 50.222656 165.65625 C 50.28125 169.253906 50.003906 172.851562 49.617188 176.394531 C 48.066406 190.398438 47.734375 204.460938 48.121094 218.578125 C 48.230469 223.335938 48.066406 228.097656 48.066406 232.859375 C 48.011719 248.414062 48.34375 263.96875 49.617188 279.46875 C 50.003906 284.175781 50.613281 288.878906 51.054688 293.585938 C 51.164062 294.691406 51.164062 295.855469 51.109375 297.019531 C 51.054688 298.070312 50.613281 298.566406 49.890625 298.679688 C 49.171875 298.734375 48.5625 298.347656 48.34375 297.351562 C 48.011719 295.964844 47.734375 294.527344 47.625 293.03125 C 46.628906 283.234375 46.351562 273.4375 46.074219 263.636719 C 45.796875 254.117188 45.742188 244.59375 46.074219 235.074219 C 46.238281 230.753906 46.570312 226.492188 46.738281 222.230469 C 46.902344 218.796875 46.960938 215.308594 46.960938 211.824219 C 47.015625 205.734375 46.847656 199.644531 46.960938 193.554688 C 47.125 186.191406 47.625 178.886719 47.84375 171.578125 C 47.957031 167.257812 47.898438 162.941406 47.734375 158.625 C 47.566406 153.03125 47.292969 147.496094 47.070312 141.90625 C 46.792969 134.984375 45.574219 128.34375 42.367188 122.144531 C 40.816406 119.152344 39.15625 116.273438 36.777344 113.839844 C 36.445312 113.453125 36.003906 113.121094 35.671875 112.789062 C 35.671875 112.734375 35.726562 112.675781 35.726562 112.566406 Z M 35.726562 112.566406 " fill-opacity="1" fill-rule="nonzero"/><path fill="#000000" d="M 133.449219 104.097656 C 137.046875 120.757812 139.09375 137.589844 139.757812 154.636719 C 141.585938 154.636719 143.300781 154.527344 145.070312 154.636719 C 148.390625 154.859375 151.710938 155.136719 155.03125 155.414062 C 155.972656 155.46875 156.46875 155.964844 156.359375 156.519531 C 156.25 157.074219 155.640625 157.183594 154.699219 157.074219 C 149.886719 156.410156 145.015625 155.800781 140.144531 155.191406 C 140.089844 155.191406 139.980469 155.191406 139.8125 155.246094 C 139.8125 157.019531 139.8125 158.789062 139.8125 160.5625 C 144.851562 159.953125 149.886719 160.507812 154.867188 160.617188 C 154.976562 159.898438 155.03125 159.234375 155.253906 158.625 C 155.363281 158.347656 155.75 158.125 156.027344 157.90625 C 156.195312 158.179688 156.46875 158.457031 156.46875 158.789062 C 156.527344 159.453125 156.527344 160.0625 156.527344 160.726562 C 156.46875 162 155.917969 162.609375 154.644531 162.609375 C 153.371094 162.609375 152.042969 162.5 150.769531 162.386719 C 147.339844 162.054688 143.964844 161.722656 140.535156 161.390625 C 140.257812 161.390625 140.035156 161.390625 139.703125 161.390625 C 139.648438 163.109375 139.59375 164.769531 139.480469 166.429688 C 138.984375 176.558594 137.378906 186.523438 133.671875 195.992188 C 130.296875 204.570312 125.925781 212.652344 120.335938 220.015625 C 119.007812 221.730469 117.734375 223.503906 116.574219 225.386719 C 114.855469 228.265625 113.859375 231.417969 113.085938 234.683594 C 112.089844 239.003906 111.867188 243.433594 111.648438 247.859375 C 111.59375 248.746094 111.480469 249.578125 111.425781 250.460938 C 111.316406 250.460938 111.203125 250.460938 111.09375 250.460938 C 111.039062 250.128906 110.871094 249.796875 110.871094 249.519531 C 110.375 244.429688 110.429688 239.335938 111.703125 234.296875 C 112.367188 231.640625 112.921875 228.984375 113.804688 226.382812 C 114.914062 223.28125 116.683594 220.515625 118.566406 217.855469 C 123.546875 210.828125 127.917969 203.464844 131.292969 195.546875 C 133.671875 190.066406 134.777344 184.253906 135.773438 178.386719 C 137.65625 167.148438 137.933594 155.800781 137.214844 144.453125 C 136.824219 138.640625 136.4375 132.882812 135.886719 127.125 C 135.441406 122.421875 134.722656 117.714844 134.167969 113.007812 C 133.835938 110.296875 133.449219 107.527344 133.117188 104.816406 C 133.117188 104.59375 133.117188 104.375 133.117188 104.152344 C 133.339844 104.097656 133.394531 104.097656 133.449219 104.097656 Z M 133.449219 104.097656 " fill-opacity="1" fill-rule="nonzero"/><path fill="#000000" d="M 73.90625 99.558594 C 73.90625 99.890625 73.90625 100.277344 73.90625 100.609375 C 73.90625 104.925781 73.90625 109.300781 73.964844 113.617188 C 74.019531 120.316406 75.015625 126.902344 76.011719 133.492188 C 76.839844 138.859375 77.449219 144.285156 78.058594 149.65625 C 79.109375 158.679688 80.605469 167.648438 82.320312 176.558594 C 83.757812 184.03125 85.417969 191.449219 87.796875 198.648438 C 89.734375 204.40625 92.445312 209.664062 95.988281 214.535156 C 97.925781 217.136719 100.304688 219.460938 102.683594 221.730469 C 104.730469 223.667969 105.5625 225.996094 105.449219 228.707031 C 105.449219 229.261719 105.503906 230.089844 104.675781 230.089844 C 103.84375 230.089844 104.011719 229.261719 103.902344 228.707031 C 103.84375 228.429688 103.84375 228.207031 103.902344 227.933594 C 104.175781 226.050781 103.347656 224.832031 101.851562 223.722656 C 99.695312 222.121094 97.59375 220.347656 95.601562 218.578125 C 94.605469 217.691406 93.773438 216.582031 93 215.476562 C 88.792969 209.496094 85.695312 203.019531 83.703125 195.992188 C 81.875 189.625 80.605469 183.148438 79.332031 176.671875 C 77.0625 164.878906 75.679688 153.03125 74.738281 141.074219 C 74.351562 136.480469 73.574219 131.941406 73.023438 127.347656 C 72.46875 122.53125 72.136719 117.714844 72.414062 112.84375 C 72.636719 108.636719 73.078125 104.375 73.410156 100.167969 C 73.410156 99.945312 73.519531 99.722656 73.574219 99.503906 C 73.742188 99.558594 73.851562 99.558594 73.90625 99.558594 Z M 73.90625 99.558594 " fill-opacity="1" fill-rule="nonzero"/><path fill="#000000" d="M 39.765625 304.4375 C 38.492188 304.65625 37.273438 304.933594 36.003906 305.101562 C 33.402344 305.433594 30.800781 305.046875 28.3125 304.269531 C 27.480469 303.992188 26.707031 303.660156 26.59375 302.664062 C 26.375 302.664062 26.097656 302.664062 25.710938 302.664062 C 26.042969 301.890625 26.652344 301.558594 27.257812 301.335938 C 28.753906 300.78125 30.246094 300.171875 31.796875 299.898438 C 34.785156 299.34375 37.828125 299.066406 40.816406 298.625 C 42.035156 298.457031 43.25 298.234375 44.414062 298.070312 C 45.242188 297.960938 46.074219 297.960938 46.847656 298.457031 C 47.734375 299.011719 47.898438 299.898438 47.179688 300.726562 C 46.792969 301.171875 46.351562 301.503906 45.851562 301.777344 C 44.523438 302.441406 43.195312 303.109375 41.8125 303.660156 C 41.148438 303.9375 40.984375 304.214844 41.039062 304.878906 C 41.203125 307.316406 41.425781 309.75 41.480469 312.1875 C 41.535156 313.460938 41.371094 314.734375 41.257812 316.171875 C 41.867188 316.339844 42.644531 316.613281 43.417969 316.726562 C 45.6875 316.945312 47.957031 317.113281 50.28125 317.335938 C 51.109375 317.445312 51.941406 317.609375 52.714844 317.832031 C 54.042969 318.21875 55.203125 318.882812 55.8125 320.15625 C 56.753906 322.039062 58.359375 322.816406 60.238281 322.757812 C 63.339844 322.703125 66.4375 322.425781 69.480469 322.261719 C 72.246094 322.152344 74.960938 321.984375 77.726562 322.039062 C 78.945312 322.039062 80.214844 322.539062 81.433594 322.871094 C 85.085938 323.921875 88.847656 324.585938 92.554688 323.976562 C 96.929688 323.257812 100.914062 321.320312 103.238281 317.167969 C 103.84375 316.117188 104.398438 315.007812 105.007812 313.957031 C 105.171875 313.679688 105.285156 313.347656 105.503906 313.183594 C 105.726562 312.960938 106.113281 312.796875 106.390625 312.851562 C 106.613281 312.90625 106.945312 313.292969 107 313.515625 C 107.054688 314.066406 107.054688 314.621094 106.945312 315.121094 C 106.058594 319.160156 103.957031 322.316406 100.414062 324.640625 C 94.769531 328.351562 88.847656 328.238281 82.707031 326.46875 C 81.433594 326.082031 80.273438 325.359375 79 325.027344 C 77.394531 324.640625 75.734375 324.253906 74.128906 324.253906 C 70.753906 324.199219 67.378906 324.476562 64.003906 324.476562 C 62.289062 324.476562 60.570312 324.308594 58.855469 324.089844 C 57.25 323.867188 55.867188 323.035156 54.816406 321.761719 C 54.042969 320.765625 53.046875 320.324219 51.828125 320.214844 C 49.285156 319.9375 46.738281 319.660156 44.246094 319.273438 C 43.363281 319.160156 42.53125 318.882812 41.703125 318.496094 C 39.710938 317.609375 39.101562 316.558594 39.210938 314.402344 C 39.378906 311.132812 39.597656 307.8125 39.765625 304.4375 Z M 39.765625 304.4375 " fill-opacity="1" fill-rule="nonzero"/><path fill="#000000" d="M 104.675781 105.480469 C 105.617188 104.097656 105.835938 104.042969 107.164062 104.871094 C 107.332031 104.648438 107.496094 104.375 107.71875 104.152344 C 109.046875 103.042969 110.320312 101.828125 111.757812 100.886719 C 114.304688 99.28125 116.128906 100.054688 117.292969 102.878906 C 118.730469 106.476562 118.289062 109.964844 116.515625 113.339844 C 115.910156 114.558594 114.582031 115.167969 113.140625 114.890625 C 110.210938 114.335938 107.828125 112.953125 106.28125 110.351562 C 105.949219 109.742188 105.617188 109.632812 105.0625 110.074219 C 104.621094 110.460938 104.175781 110.90625 103.734375 111.292969 C 102.460938 112.457031 101.300781 113.785156 99.859375 114.726562 C 98.367188 115.777344 96.597656 115.277344 95.378906 113.671875 C 94.328125 112.34375 93.71875 110.796875 93.441406 109.132812 C 93.054688 107.03125 93.277344 104.980469 94.160156 103.042969 C 94.273438 102.769531 94.4375 102.492188 94.605469 102.214844 C 96.042969 99.722656 97.535156 99.28125 99.917969 100.886719 C 101.1875 101.773438 102.242188 102.988281 103.402344 104.097656 C 103.84375 104.539062 104.234375 104.980469 104.675781 105.480469 Z M 104.675781 105.480469 " fill-opacity="1" fill-rule="nonzero"/><path fill="#000000" d="M 89.84375 72.652344 C 90.566406 72.15625 91.230469 71.546875 91.949219 71.101562 C 93.386719 70.273438 94.878906 69.554688 96.375 68.832031 C 97.148438 68.5 97.316406 67.5625 96.871094 66.894531 C 96.375 66.121094 95.988281 65.234375 95.601562 64.351562 C 95.488281 64.128906 95.601562 63.796875 95.765625 63.464844 C 96.042969 64.019531 96.207031 64.625 96.539062 65.125 C 97.316406 66.289062 98.367188 67.117188 99.640625 67.617188 C 103.292969 69.109375 107 69.277344 110.652344 67.726562 C 111.535156 67.339844 112.3125 66.621094 113.085938 65.957031 C 113.472656 65.625 113.75 65.234375 114.304688 65.625 C 114.800781 65.957031 114.636719 66.453125 114.359375 66.839844 C 113.917969 67.394531 113.253906 67.894531 113.03125 68.5 C 112.808594 69.109375 113.085938 69.886719 112.863281 70.550781 C 112.53125 71.65625 111.980469 72.707031 111.480469 73.816406 C 111.867188 74.039062 112.367188 74.257812 112.808594 74.589844 C 113.917969 75.644531 114.136719 77.359375 113.140625 78.578125 C 112.53125 79.296875 111.757812 80.070312 110.871094 80.402344 C 106.558594 82.175781 102.183594 82.0625 97.980469 80.015625 C 97.039062 79.574219 96.152344 78.796875 95.433594 77.96875 C 93.996094 76.25 94.824219 73.761719 96.984375 73.042969 C 97.261719 72.929688 97.535156 72.820312 97.867188 72.707031 C 97.535156 71.878906 97.261719 71.046875 96.871094 70.164062 C 95.710938 70.550781 94.492188 70.882812 93.332031 71.269531 C 92.167969 71.710938 91.0625 72.265625 89.902344 72.765625 C 89.957031 72.765625 89.902344 72.707031 89.84375 72.652344 Z M 111.703125 69.332031 C 111.148438 69.386719 110.871094 69.554688 110.929688 70.164062 C 110.984375 70.496094 110.816406 70.828125 110.652344 71.101562 C 109.601562 73.484375 107.664062 74.480469 105.171875 74.535156 C 102.515625 74.589844 99.859375 72.375 99.859375 69.996094 C 99.859375 68.890625 99.253906 68.613281 98.476562 68.28125 C 98.3125 71.601562 101.1875 74.757812 104.675781 75.089844 C 107.996094 75.367188 111.316406 72.707031 111.703125 69.332031 Z M 111.703125 69.332031 " fill-opacity="1" fill-rule="nonzero"/><path fill="#000000" d="M 167.371094 118.65625 C 167.261719 119.652344 167.152344 120.648438 166.929688 121.589844 C 165.160156 131.664062 163.277344 141.683594 161.671875 151.757812 C 160.730469 157.460938 160.234375 163.273438 160.121094 169.085938 C 160.066406 172.242188 159.789062 175.398438 159.625 178.496094 C 159.570312 179.882812 159.625 181.320312 159.515625 182.703125 C 159.457031 183.203125 159.183594 183.644531 159.015625 184.089844 C 158.738281 183.699219 158.296875 183.3125 158.128906 182.871094 C 157.910156 182.039062 157.742188 181.15625 157.742188 180.269531 C 157.523438 172.851562 157.464844 165.433594 158.519531 158.070312 C 159.625 150.097656 161.339844 142.292969 163.222656 134.488281 C 164.4375 129.339844 165.765625 124.191406 167.039062 119.042969 C 167.09375 118.878906 167.152344 118.710938 167.207031 118.546875 C 167.207031 118.65625 167.261719 118.65625 167.371094 118.65625 Z M 167.371094 118.65625 " fill-opacity="1" fill-rule="nonzero"/><path fill="#000000" d="M 34.5625 110.351562 C 35.0625 109.910156 35.558594 109.464844 36.113281 109.132812 C 39.324219 106.808594 42.863281 105.09375 46.570312 103.597656 C 54.320312 100.5 62.289062 98.007812 70.476562 96.179688 C 71.253906 96.015625 72.136719 96.070312 72.96875 95.960938 C 73.242188 95.902344 73.464844 95.792969 73.6875 95.625 C 75.511719 94.355469 77.339844 93.023438 79.21875 91.808594 C 79.941406 91.363281 80.824219 91.253906 81.65625 91.085938 C 81.875 91.03125 82.207031 91.363281 82.484375 91.476562 C 82.320312 91.695312 82.207031 92.027344 81.988281 92.140625 C 79.609375 93.578125 77.171875 94.90625 74.792969 96.347656 C 74.460938 96.566406 74.296875 97.011719 73.964844 97.289062 C 73.574219 97.621094 73.1875 98.0625 72.746094 98.171875 C 71.585938 98.449219 70.421875 98.617188 69.203125 98.835938 C 59.851562 100.664062 50.613281 103.042969 41.8125 106.753906 C 39.65625 107.695312 37.664062 108.855469 35.558594 109.964844 C 35.28125 110.128906 35.007812 110.296875 34.730469 110.460938 C 34.617188 110.460938 34.617188 110.40625 34.5625 110.351562 Z M 34.5625 110.351562 " fill-opacity="1" fill-rule="nonzero"/><path fill="#000000" d="M 123.046875 95.238281 C 123.710938 95.460938 124.429688 95.570312 125.09375 95.847656 C 127.363281 96.957031 129.6875 98.007812 131.84375 99.28125 C 133.0625 100 134.28125 100.5 135.554688 100.886719 C 140.699219 102.378906 145.679688 104.207031 150.4375 106.585938 C 153.757812 108.25 157.132812 109.855469 160.511719 111.402344 C 161.617188 111.902344 162.890625 112.234375 163.996094 112.734375 C 165.214844 113.285156 166.375 113.949219 167.539062 114.613281 C 167.925781 114.835938 168.367188 115.277344 167.980469 115.777344 C 167.816406 116 167.207031 116.054688 166.875 115.941406 C 163.5 114.945312 160.179688 113.785156 157.023438 112.066406 C 152.042969 109.355469 147.117188 106.53125 141.863281 104.429688 C 139.09375 103.378906 136.328125 102.378906 133.503906 101.382812 C 133.394531 101.328125 133.230469 101.273438 133.117188 101.273438 C 132.289062 101.773438 131.84375 101.164062 131.347656 100.664062 C 129.191406 98.617188 126.476562 97.398438 123.878906 96.070312 C 123.546875 95.902344 123.214844 95.738281 122.882812 95.515625 C 122.992188 95.460938 123.046875 95.351562 123.046875 95.238281 Z M 123.046875 95.238281 " fill-opacity="1" fill-rule="nonzero"/><path fill="#000000" d="M 113.417969 62.191406 C 108.9375 65.679688 99.75 64.738281 96.984375 60.808594 C 96.929688 61.027344 96.929688 61.195312 96.871094 61.359375 C 96.761719 61.582031 96.597656 61.804688 96.484375 62.023438 C 96.265625 61.804688 95.988281 61.691406 95.875 61.414062 C 95.601562 60.640625 95.710938 59.867188 96.265625 59.203125 C 96.375 59.035156 96.539062 58.8125 96.539062 58.648438 C 96.429688 56.765625 97.203125 55.214844 98.421875 53.832031 C 102.90625 48.960938 111.480469 50.34375 113.859375 56.378906 C 114.191406 57.265625 114.25 58.261719 114.359375 59.203125 C 114.359375 59.421875 114.082031 59.644531 113.917969 59.867188 C 113.75 59.644531 113.527344 59.367188 113.527344 59.144531 C 113.585938 54.882812 109.878906 52.613281 106.722656 52.117188 C 105.0625 51.839844 103.457031 52.003906 101.851562 52.558594 C 99.140625 53.5 97.535156 55.601562 97.425781 58.480469 C 97.425781 58.703125 97.480469 58.980469 97.371094 59.203125 C 97.039062 59.976562 97.425781 60.53125 97.925781 61.027344 C 98.976562 62.082031 100.304688 62.578125 101.6875 62.964844 C 104.507812 63.6875 107.277344 63.574219 109.988281 62.632812 C 111.09375 62.246094 112.089844 61.527344 113.03125 60.808594 C 113.695312 60.308594 114.304688 60.253906 114.914062 60.917969 C 115.519531 61.582031 115.578125 62.578125 115.078125 63.410156 C 113.253906 66.175781 110.707031 67.726562 107.441406 68.167969 C 104.953125 68.5 102.574219 68.003906 100.25 67.171875 C 98.257812 66.453125 97.148438 64.847656 96.484375 62.855469 C 96.597656 62.910156 96.707031 62.964844 96.816406 63.078125 C 98.53125 65.566406 101.078125 66.398438 103.902344 66.894531 C 107.609375 67.503906 110.652344 66.34375 113.253906 63.742188 C 113.585938 63.410156 113.640625 62.800781 113.859375 62.355469 C 113.640625 62.300781 113.527344 62.246094 113.417969 62.191406 Z M 113.417969 62.191406 " fill-opacity="1" fill-rule="nonzero"/><path fill="#000000" d="M 50.28125 239.722656 C 52.546875 239.722656 54.816406 239.667969 57.03125 239.722656 C 62.398438 239.890625 67.710938 240.164062 73.078125 240.386719 C 73.964844 240.441406 74.847656 240.496094 75.734375 240.609375 C 76.398438 240.664062 76.953125 241.496094 76.839844 242.324219 C 76.730469 243.488281 75.898438 244.261719 74.570312 244.261719 C 73.410156 244.261719 72.246094 244.207031 71.085938 244.039062 C 65.332031 243.375 59.574219 242.65625 53.820312 241.9375 C 52.605469 241.769531 51.386719 241.714844 50.167969 241.550781 C 49.890625 241.496094 49.671875 241.382812 49.449219 241.273438 C 49.449219 241.164062 49.449219 241.105469 49.449219 240.996094 C 49.78125 240.941406 50.113281 240.773438 50.390625 240.773438 C 53.046875 240.832031 55.757812 240.773438 58.414062 240.996094 C 63.558594 241.4375 68.652344 242.046875 73.796875 242.546875 C 74.628906 242.65625 74.738281 242.492188 74.738281 241.769531 C 66.546875 241.050781 58.414062 240.386719 50.28125 239.722656 C 50.28125 239.832031 50.28125 239.777344 50.28125 239.722656 Z M 50.28125 239.722656 " fill-opacity="1" fill-rule="nonzero"/><path fill="#000000" d="M 123.710938 260.09375 C 123.710938 261.035156 123.65625 261.976562 123.710938 262.972656 C 123.988281 267.292969 124.265625 271.609375 124.652344 275.980469 C 124.984375 279.46875 125.316406 282.957031 125.8125 286.445312 C 126.421875 291.09375 127.199219 295.746094 127.917969 300.394531 C 128.136719 301.890625 128.414062 303.382812 128.691406 304.824219 C 128.800781 305.265625 128.800781 305.710938 128.304688 305.875 C 127.75 306.042969 127.472656 305.652344 127.363281 305.15625 C 126.808594 302.941406 126.203125 300.726562 125.8125 298.457031 C 124.707031 292.203125 124.375 285.890625 124.097656 279.582031 C 123.933594 275.375 123.65625 271.167969 123.488281 266.957031 C 123.378906 264.6875 123.488281 262.363281 123.488281 260.09375 C 123.546875 260.09375 123.601562 260.09375 123.710938 260.09375 Z M 123.710938 260.09375 " fill-opacity="1" fill-rule="nonzero"/><path fill="#000000" d="M 70.53125 179.550781 C 70.257812 183.09375 69.980469 186.578125 69.648438 190.121094 C 69.09375 195.214844 68.539062 200.253906 67.875 205.289062 C 66.992188 212.097656 65.941406 218.851562 64.167969 225.441406 C 64.058594 225.828125 64.003906 226.214844 63.835938 226.546875 C 63.671875 226.769531 63.339844 226.933594 63.117188 227.101562 C 63.007812 226.824219 62.730469 226.601562 62.785156 226.328125 C 62.953125 224.941406 63.171875 223.613281 63.503906 222.230469 C 65.332031 214.367188 66.878906 206.453125 68.097656 198.480469 C 68.816406 193.445312 69.425781 188.40625 70.035156 183.425781 C 70.199219 182.09375 70.367188 180.824219 70.53125 179.492188 C 70.476562 179.550781 70.476562 179.550781 70.53125 179.550781 Z M 70.53125 179.550781 " fill-opacity="1" fill-rule="nonzero"/><path fill="#000000" d="M 50.722656 148.992188 C 50.390625 146.667969 50.113281 144.285156 49.78125 141.960938 C 49.117188 137.808594 48.5625 133.601562 47.679688 129.503906 C 46.738281 125.132812 44.800781 121.089844 42.144531 117.4375 C 40.871094 115.667969 39.15625 114.28125 37.605469 112.734375 C 37.21875 112.34375 36.777344 111.902344 36.445312 111.460938 C 36.113281 111.015625 36.003906 110.519531 36.5 110.128906 C 36.941406 109.742188 37.496094 109.855469 37.828125 110.242188 C 38.492188 111.015625 39.101562 111.792969 39.765625 112.566406 C 40.539062 113.5625 41.257812 114.558594 42.089844 115.5 C 44.910156 118.601562 46.683594 122.308594 47.898438 126.238281 C 49.285156 130.722656 49.835938 135.320312 50.222656 139.96875 C 50.445312 142.625 50.613281 145.28125 50.832031 147.996094 C 50.832031 148.273438 50.832031 148.605469 50.832031 148.882812 C 50.777344 148.992188 50.777344 148.992188 50.722656 148.992188 Z M 50.722656 148.992188 " fill-opacity="1" fill-rule="nonzero"/><path fill="#000000" d="M 151.710938 244.59375 C 151.878906 245.257812 151.488281 245.589844 150.992188 245.757812 C 150.660156 245.867188 150.273438 245.921875 149.941406 245.976562 C 145.625 246.308594 141.363281 246.144531 137.15625 245.371094 C 136.714844 245.3125 136.21875 244.925781 135.941406 244.539062 C 135.496094 243.875 135.886719 243.15625 136.714844 243.042969 C 137.433594 242.933594 138.210938 242.933594 138.984375 242.878906 C 142.414062 242.65625 145.847656 242.433594 149.222656 242.214844 C 149.554688 242.214844 149.886719 242.101562 150.160156 242.214844 C 150.4375 242.269531 150.714844 242.546875 150.9375 242.710938 C 150.769531 242.933594 150.605469 243.320312 150.382812 243.375 C 149.332031 243.652344 148.226562 243.875 147.117188 243.984375 C 143.742188 244.316406 140.421875 244.097656 137.101562 243.597656 C 136.992188 243.597656 136.882812 243.597656 136.824219 243.597656 C 136.769531 243.652344 136.769531 243.707031 136.714844 243.765625 C 136.9375 243.929688 137.15625 244.152344 137.378906 244.152344 C 140.535156 244.539062 143.632812 245.148438 146.84375 244.761719 C 148.171875 244.59375 149.441406 244.429688 150.769531 244.316406 C 150.992188 244.316406 151.378906 244.539062 151.710938 244.59375 C 151.710938 244.648438 151.710938 244.59375 151.710938 244.59375 Z M 151.710938 244.59375 " fill-opacity="1" fill-rule="nonzero"/><path fill="#000000" d="M 39.875 172.960938 C 38.105469 178.332031 36.390625 183.757812 34.5625 189.070312 C 33.292969 192.667969 31.796875 196.15625 30.414062 199.699219 C 30.246094 200.085938 30.082031 200.417969 29.859375 200.75 C 29.75 200.917969 29.363281 201.027344 29.195312 200.972656 C 29.03125 200.917969 28.917969 200.53125 28.917969 200.363281 C 28.976562 199.976562 29.085938 199.589844 29.25 199.257812 C 31.132812 194.550781 32.960938 189.902344 34.839844 185.195312 C 36.390625 181.265625 37.996094 177.335938 39.542969 173.40625 C 39.597656 173.238281 39.65625 173.128906 39.710938 172.960938 C 39.765625 172.90625 39.820312 172.90625 39.875 172.960938 Z M 39.875 172.960938 " fill-opacity="1" fill-rule="nonzero"/><path fill="#000000" d="M 94.214844 76.140625 C 94.214844 76.25 94.214844 76.363281 94.160156 76.472656 C 93.277344 78.464844 94.4375 80.292969 95.765625 81.234375 C 97.09375 82.230469 98.644531 82.785156 100.25 83.117188 C 104.234375 84 108.105469 83.558594 111.757812 81.621094 C 112.808594 81.066406 113.640625 80.292969 113.859375 79.074219 C 113.917969 78.855469 114.191406 78.6875 114.359375 78.464844 C 114.46875 78.742188 114.746094 79.019531 114.691406 79.242188 C 114.304688 80.902344 113.363281 82.230469 111.980469 83.171875 C 110.210938 84.332031 108.273438 84.886719 106.167969 85 C 103.292969 85.109375 100.523438 84.832031 97.867188 83.503906 C 96.484375 82.785156 95.269531 81.898438 94.328125 80.625 C 93.496094 79.40625 93.164062 78.132812 93.71875 76.695312 C 93.828125 76.472656 93.941406 76.25 94.050781 76.085938 C 94.160156 76.140625 94.214844 76.140625 94.214844 76.140625 Z M 94.214844 76.140625 " fill-opacity="1" fill-rule="nonzero"/><path fill="#000000" d="M 70.089844 298.292969 C 68.652344 299.621094 67.269531 301.058594 65.773438 302.332031 C 61.898438 305.542969 57.695312 308.144531 53.046875 310.136719 C 52.878906 310.191406 52.769531 310.304688 52.605469 310.304688 C 52.328125 310.25 51.996094 310.191406 51.71875 310.082031 C 51.828125 309.804688 51.828125 309.363281 52.050781 309.195312 C 52.824219 308.585938 53.710938 308.089844 54.539062 307.589844 C 57.25 305.984375 60.074219 304.492188 62.785156 302.773438 C 64.886719 301.503906 66.878906 300.007812 68.929688 298.625 C 69.261719 298.402344 69.59375 298.179688 69.925781 297.960938 C 69.925781 298.070312 69.980469 298.179688 70.089844 298.292969 Z M 70.089844 298.292969 " fill-opacity="1" fill-rule="nonzero"/><path fill="#000000" d="M 72.746094 212.488281 C 72.746094 212.707031 72.746094 212.984375 72.691406 213.207031 C 71.804688 218.632812 70.863281 224 68.984375 229.203125 C 68.539062 230.476562 67.933594 231.75 67.378906 233.023438 C 67.269531 233.300781 66.878906 233.414062 66.605469 233.632812 C 66.492188 233.300781 66.273438 232.96875 66.328125 232.691406 C 66.9375 230.3125 67.601562 227.933594 68.320312 225.550781 C 69.480469 221.730469 70.644531 217.96875 71.804688 214.148438 C 71.972656 213.539062 72.246094 212.984375 72.46875 212.429688 C 72.523438 212.488281 72.636719 212.488281 72.746094 212.488281 Z M 72.746094 212.488281 " fill-opacity="1" fill-rule="nonzero"/><path fill="#000000" d="M 76.066406 283.621094 C 73.964844 285.945312 71.859375 288.273438 69.703125 290.597656 C 66.273438 294.25 62.894531 297.960938 58.910156 301.003906 C 58.082031 301.667969 57.195312 302.222656 56.253906 302.832031 C 56.035156 302.996094 55.648438 302.886719 55.371094 302.886719 C 55.480469 302.609375 55.535156 302.167969 55.757812 302 C 58.191406 299.898438 60.738281 297.847656 63.0625 295.691406 C 67.101562 291.980469 70.976562 288.160156 74.960938 284.398438 C 75.292969 284.121094 75.566406 283.84375 75.898438 283.511719 C 75.957031 283.566406 76.011719 283.621094 76.066406 283.621094 Z M 76.066406 283.621094 " fill-opacity="1" fill-rule="nonzero"/><path fill="#000000" d="M 38.160156 190.511719 C 38.050781 190.84375 37.9375 191.117188 37.828125 191.449219 C 35.78125 197.042969 33.734375 202.6875 30.96875 208.003906 C 30.746094 208.445312 30.523438 208.945312 30.246094 209.386719 C 30.082031 209.609375 29.804688 209.71875 29.527344 209.886719 C 29.472656 209.609375 29.363281 209.332031 29.417969 209.054688 C 29.417969 208.777344 29.582031 208.5 29.695312 208.222656 C 32.183594 202.800781 34.675781 197.320312 37.164062 191.894531 C 37.386719 191.394531 37.71875 190.898438 37.996094 190.453125 C 38.050781 190.453125 38.105469 190.511719 38.160156 190.511719 Z M 38.160156 190.511719 " fill-opacity="1" fill-rule="nonzero"/><path fill="#000000" d="M 61.789062 117.546875 C 61.898438 117.714844 62.011719 117.9375 62.121094 118.101562 C 64.058594 122.144531 65.109375 126.460938 65.71875 130.890625 C 65.773438 131.441406 65.882812 131.941406 65.941406 132.496094 C 65.996094 132.882812 66.214844 133.4375 65.609375 133.492188 C 65.441406 133.492188 65.054688 132.9375 64.945312 132.605469 C 64.390625 130.335938 63.949219 128.066406 63.394531 125.796875 C 62.839844 123.304688 62.175781 120.871094 61.625 118.378906 C 61.566406 118.101562 61.566406 117.878906 61.566406 117.605469 C 61.625 117.605469 61.679688 117.605469 61.789062 117.546875 Z M 61.789062 117.546875 " fill-opacity="1" fill-rule="nonzero"/><path fill="#000000" d="M 164.496094 120.59375 C 163.996094 123.140625 163.5 125.742188 162.945312 128.289062 C 161.949219 132.828125 160.898438 137.421875 159.847656 141.960938 C 159.734375 142.347656 159.457031 142.625 159.238281 143.011719 C 159.183594 142.625 159.015625 142.183594 159.125 141.796875 C 160.398438 136.480469 161.671875 131.109375 162.945312 125.796875 C 163.386719 124.027344 163.886719 122.308594 164.382812 120.539062 C 164.382812 120.59375 164.4375 120.59375 164.496094 120.59375 Z M 164.496094 120.59375 " fill-opacity="1" fill-rule="nonzero"/><path fill="#000000" d="M 122.492188 296.1875 C 123.046875 298.347656 123.546875 300.503906 124.152344 302.664062 C 125.09375 306.152344 126.089844 309.585938 127.03125 313.015625 C 127.140625 313.347656 127.253906 313.679688 127.308594 314.011719 C 127.308594 314.234375 127.140625 314.457031 127.085938 314.675781 C 126.867188 314.566406 126.589844 314.511719 126.476562 314.289062 C 126.035156 313.347656 125.648438 312.351562 125.316406 311.410156 C 124.042969 307.648438 123.433594 303.714844 122.824219 299.839844 C 122.660156 298.625 122.4375 297.460938 122.273438 296.242188 C 122.382812 296.1875 122.4375 296.1875 122.492188 296.1875 Z M 122.492188 296.1875 " fill-opacity="1" fill-rule="nonzero"/><path fill="#000000" d="M 55.316406 113.894531 C 55.921875 114.945312 56.644531 115.941406 57.195312 116.996094 C 59.242188 120.980469 60.902344 125.132812 61.679688 129.617188 C 61.734375 129.949219 61.566406 130.335938 61.511719 130.722656 C 61.292969 130.445312 61.015625 130.171875 60.902344 129.839844 C 59.574219 125.355469 58.191406 120.871094 56.367188 116.550781 C 55.980469 115.722656 55.589844 114.835938 55.203125 114.003906 C 55.203125 113.949219 55.257812 113.949219 55.316406 113.894531 Z M 55.316406 113.894531 " fill-opacity="1" fill-rule="nonzero"/><path fill="#000000" d="M 55.425781 314.179688 C 55.257812 314.011719 54.871094 313.847656 54.871094 313.625 C 54.816406 313.402344 54.984375 313.015625 55.203125 312.851562 C 55.535156 312.574219 55.980469 312.40625 56.367188 312.242188 C 58.246094 311.523438 60.183594 310.800781 62.121094 310.082031 C 62.289062 310.027344 62.453125 309.917969 62.621094 309.917969 C 62.839844 309.917969 63.0625 309.972656 63.226562 309.972656 C 63.117188 310.191406 63.117188 310.414062 62.953125 310.523438 C 61.292969 311.964844 59.464844 313.070312 57.363281 313.625 C 56.753906 313.847656 56.144531 313.957031 55.425781 314.179688 Z M 55.425781 314.179688 " fill-opacity="1" fill-rule="nonzero"/><path fill="#000000" d="M 67.988281 125.355469 C 68.097656 125.519531 68.265625 125.6875 68.320312 125.90625 C 69.039062 128.066406 69.59375 130.226562 69.535156 132.550781 C 69.535156 133.046875 69.703125 133.769531 68.984375 133.824219 C 68.207031 133.933594 68.207031 133.105469 68.152344 132.660156 C 67.933594 130.503906 67.820312 128.398438 67.65625 126.238281 C 67.65625 125.964844 67.710938 125.6875 67.765625 125.464844 C 67.875 125.410156 67.933594 125.410156 67.988281 125.355469 Z M 67.988281 125.355469 " fill-opacity="1" fill-rule="nonzero"/><path fill="#000000" d="M 34.34375 208.113281 C 34.285156 208.335938 34.285156 208.554688 34.230469 208.722656 C 33.179688 211.433594 32.074219 214.148438 30.96875 216.804688 C 30.800781 217.136719 30.414062 217.359375 30.136719 217.636719 C 30.136719 217.246094 29.972656 216.804688 30.082031 216.472656 C 30.96875 213.703125 32.296875 211.160156 33.789062 208.667969 C 33.898438 208.5 34.011719 208.335938 34.121094 208.167969 C 34.175781 208.113281 34.230469 208.113281 34.34375 208.113281 Z M 34.34375 208.113281 " fill-opacity="1" fill-rule="nonzero"/><path fill="#000000" d="M 100.691406 56.710938 C 100.914062 57.207031 101.132812 57.539062 101.300781 57.929688 C 101.6875 58.703125 102.019531 59.535156 102.351562 60.363281 C 102.40625 60.53125 102.351562 60.695312 102.351562 60.863281 C 102.183594 60.863281 102.019531 60.917969 101.910156 60.808594 C 101.1875 60.308594 100.359375 57.816406 100.691406 56.710938 Z M 100.691406 56.710938 " fill-opacity="1" fill-rule="nonzero"/><path fill="#000000" d="M 102.628906 58.757812 C 103.292969 59.257812 104.066406 59.808594 104.839844 60.417969 C 104.953125 60.476562 104.953125 60.75 104.898438 60.808594 C 104.839844 60.917969 104.621094 60.972656 104.507812 60.972656 C 103.511719 60.917969 102.460938 59.367188 102.628906 58.757812 Z M 102.628906 58.757812 " fill-opacity="1" fill-rule="nonzero"/><path fill="#000000" d="M 99.253906 56.433594 C 99.585938 57.484375 99.917969 58.539062 100.25 59.589844 C 100.136719 59.644531 100.082031 59.644531 99.972656 59.699219 C 99.363281 58.757812 99.195312 57.652344 99.03125 56.542969 C 99.085938 56.488281 99.140625 56.488281 99.253906 56.433594 Z M 99.253906 56.433594 " fill-opacity="1" fill-rule="nonzero"/><path fill="#000000" d="M 109.878906 169.917969 C 109.546875 170.25 109.269531 170.46875 108.992188 170.746094 C 108.382812 171.410156 108.273438 172.1875 108.660156 172.796875 C 109.046875 173.460938 109.878906 173.738281 110.652344 173.570312 C 111.371094 173.347656 111.980469 172.574219 111.867188 171.800781 C 111.8125 171.355469 111.371094 171.023438 111.148438 170.636719 C 110.984375 170.359375 110.871094 170.082031 110.707031 169.804688 C 111.039062 169.75 111.371094 169.695312 111.648438 169.695312 C 111.867188 169.695312 112.089844 169.917969 112.257812 170.082031 C 112.863281 170.691406 113.363281 171.300781 114.359375 171.300781 C 114.914062 171.300781 115.246094 171.910156 115.1875 172.519531 C 115.132812 173.183594 114.691406 173.625 114.027344 173.570312 C 113.363281 173.515625 113.03125 173.792969 112.644531 174.179688 C 111.648438 175.121094 110.042969 175.285156 108.882812 174.621094 C 107.828125 174.011719 107.277344 172.796875 107.554688 171.632812 C 107.773438 170.527344 108.660156 169.804688 109.878906 169.917969 Z M 109.878906 169.917969 " fill-opacity="1" fill-rule="nonzero"/><path fill="#000000" d="M 109.433594 145.503906 C 109.15625 145.726562 108.882812 145.890625 108.660156 146.113281 C 108.050781 146.667969 107.886719 147.441406 108.160156 148.160156 C 108.382812 148.769531 108.882812 149.15625 109.601562 149.214844 C 110.210938 149.214844 110.816406 148.992188 110.984375 148.382812 C 111.09375 147.882812 110.984375 147.277344 110.871094 146.777344 C 110.816406 146.554688 110.429688 146.445312 110.375 146.222656 C 110.265625 145.945312 110.152344 145.503906 110.265625 145.339844 C 110.429688 145.171875 110.929688 145.0625 111.148438 145.171875 C 111.648438 145.394531 112.089844 145.78125 112.589844 146.113281 C 112.476562 146.222656 112.367188 146.335938 112.3125 146.445312 C 112.589844 146.390625 112.863281 146.335938 113.140625 146.390625 C 113.804688 146.445312 114.359375 146.886719 114.359375 147.496094 C 114.414062 148.105469 113.917969 148.714844 113.253906 148.714844 C 112.53125 148.714844 112.257812 149.046875 111.867188 149.546875 C 111.261719 150.429688 110.320312 150.707031 109.324219 150.429688 C 108.273438 150.152344 107.664062 149.378906 107.441406 148.328125 C 107.277344 147.332031 107.441406 146.390625 108.328125 145.726562 C 108.605469 145.503906 109.046875 145.449219 109.378906 145.339844 C 109.378906 145.339844 109.433594 145.449219 109.433594 145.503906 Z M 109.433594 145.503906 " fill-opacity="1" fill-rule="nonzero"/><path fill="#000000" d="M 270.519531 62.03125 C 270.46875 62.089844 270.402344 62.113281 270.34375 62.109375 C 269.894531 62.140625 269.398438 60.472656 268.78125 59.175781 C 266.667969 54.785156 260.359375 55.691406 258.253906 59.796875 C 257.460938 61.226562 257.136719 63.089844 257.742188 64.660156 C 258.554688 66.902344 261.578125 67.398438 262.46875 69.539062 C 263.511719 71.652344 262.625 74.511719 262.1875 76.964844 C 261.8125 78.769531 263.121094 79.578125 264.734375 79.824219 C 270.179688 80.789062 275.253906 83.335938 280.425781 85 C 281.949219 85.390625 283.597656 85.003906 285.054688 85.617188 C 286.441406 86.230469 287.289062 87.617188 288.507812 88.484375 C 293.410156 91.453125 299.164062 94 303.722656 97.484375 C 304.511719 98.117188 305.21875 98.820312 305.492188 99.785156 C 305.863281 101.140625 305.324219 102.683594 304.667969 103.902344 C 302.289062 108.359375 297.730469 104.753906 293.027344 101.777344 C 291.367188 100.917969 287.5 96.953125 286.070312 98.714844 C 285.453125 99.65625 285.550781 101.921875 285.492188 104.148438 C 285.367188 105.992188 286.410156 107.398438 288.019531 108.148438 C 295.269531 112.101562 289.652344 126.6875 288.625 134.757812 C 288.59375 135.253906 288.644531 135.691406 288.8125 136.035156 C 289.257812 136.941406 290.421875 137.164062 291.347656 137.398438 C 294.078125 137.917969 296.394531 139.226562 298.894531 140.40625 C 300.875 141.167969 303.226562 142.296875 303.609375 144.589844 C 304.300781 150.085938 303.527344 159.128906 297.171875 160.515625 C 296.257812 160.761719 294.820312 161.207031 295.582031 162.300781 C 303.605469 173.835938 313.015625 184.667969 319.769531 197.507812 C 326.769531 210.824219 332.132812 224.957031 336.085938 239.460938 C 339.613281 252.410156 341.984375 265.640625 343.585938 278.960938 C 343.992188 282.308594 349.480469 328.585938 345.371094 327.738281 C 340.765625 326.792969 336.226562 325.144531 331.589844 324.414062 C 325.378906 323.445312 319.054688 323.511719 312.828125 322.65625 C 302.835938 321.289062 292.175781 320.558594 282.328125 321.105469 C 277.539062 321.367188 273.183594 320 268.332031 320.382812 C 263.457031 320.765625 258.664062 321.191406 253.8125 321.621094 C 244.226562 322.460938 235.167969 320.824219 225.675781 320.199219 C 216.507812 319.59375 207.480469 322.226562 198.324219 321.921875 C 192.753906 321.738281 192.589844 321.328125 191.6875 315.960938 C 190.898438 311.28125 190.703125 306.402344 190.496094 301.675781 C 189.679688 283.449219 191.574219 265.152344 195.71875 247.394531 C 199.867188 229.589844 206.257812 212.328125 214.398438 195.972656 C 218.472656 187.777344 222.992188 179.804688 227.910156 172.085938 C 230.261719 168.390625 232.710938 164.75 235.246094 161.171875 C 237.230469 158.367188 242.246094 153.910156 243.066406 150.671875 C 243.320312 149.667969 242.976562 148.5625 242.511719 147.609375 C 238.558594 139.253906 229.65625 121.59375 232.398438 112.84375 C 233.363281 110.644531 236.332031 110.058594 236.183594 107.730469 C 235.941406 106.15625 234.15625 103.597656 233.226562 101.386719 C 232.761719 100.421875 232.253906 99.140625 231.003906 99.394531 C 226.765625 100.847656 220.921875 107.085938 219.046875 101.890625 C 218.148438 99.851562 218.390625 97.304688 220.375 95.972656 C 230.679688 88.347656 245.058594 84.507812 257.363281 79.976562 C 258.359375 79.609375 259.308594 79.082031 259.953125 78.230469 C 261.082031 76.765625 261.304688 74.554688 261.414062 72.746094 C 261.53125 71.273438 261.132812 69.203125 259.960938 68.648438 C 256.933594 67.476562 255.585938 64.421875 256.222656 61.097656 C 257.675781 53.566406 268.335938 52.578125 270.511719 59.566406 C 270.753906 60.160156 270.882812 61.554688 270.566406 61.945312 L 270.511719 62.011719 Z M 280.945312 92.566406 C 281.5 92.332031 281.609375 90.738281 281.683594 89.441406 C 281.84375 87.566406 280.261719 86.410156 278.699219 85.664062 C 263.921875 78.015625 251.449219 82.242188 237.015625 89.042969 C 235.121094 89.792969 234.761719 91.421875 235.699219 93.347656 C 236.089844 94.269531 236.820312 94.769531 237.816406 94.347656 C 253.945312 84.964844 264.636719 83.246094 280.835938 92.605469 L 280.941406 92.566406 Z M 285.453125 86.699219 C 285.015625 86.183594 282.800781 85.882812 282.632812 86.058594 C 282.300781 89.226562 282.203125 94.359375 281.949219 98.136719 C 281.898438 102.195312 281.238281 105.667969 281.742188 106.339844 C 282.515625 106.597656 283.765625 106.164062 283.753906 105.0625 C 284.253906 99.035156 285.875 92.769531 285.539062 86.816406 Z M 280.554688 94.449219 C 268.253906 84.25 253.070312 86.351562 240.011719 94.203125 C 235.25 96.546875 239.289062 101.734375 240.234375 105.339844 C 240.605469 106.773438 241.769531 107.472656 243.234375 107.308594 C 248.601562 107.09375 254.59375 107.535156 259.265625 110.253906 C 261.425781 111.25 263.140625 114.46875 265.367188 114.910156 C 265.894531 114.890625 266.371094 114.5 266.90625 113.972656 C 269.574219 111.035156 273.535156 108.683594 277.507812 107.886719 C 279.605469 107.554688 280.332031 107.238281 280.339844 104.800781 C 280.503906 102.714844 280.757812 99.539062 280.925781 97.386719 C 281.042969 96.019531 281.128906 95.238281 280.648438 94.574219 Z M 286.320312 96.03125 C 286.4375 96.585938 286.851562 96.582031 287.601562 97.109375 C 291.652344 99.597656 297 102.9375 300.464844 105.042969 C 302.238281 105.6875 303.53125 103.601562 304.398438 102.058594 C 304.804688 101.125 305.46875 100.273438 304.328125 99.804688 C 301.125 97.988281 289.796875 91.171875 287.53125 90.039062 C 286.078125 90.105469 286.5 94.546875 286.3125 95.929688 L 286.324219 96.03125 Z M 233.667969 90.644531 C 233.113281 90.625 231.285156 90.75 230.941406 91.425781 C 231.042969 96.554688 235.230469 102.125 237.226562 106.996094 C 237.511719 107.632812 238.300781 108.421875 238.890625 108.339844 C 240.96875 107.472656 235.929688 96.972656 235.285156 94.777344 C 234.46875 92.9375 234.242188 91.433594 233.761719 90.679688 Z M 229.722656 92.679688 C 229.410156 92.507812 228.25 92.953125 226.863281 93.621094 C 224.578125 94.730469 221.605469 96.460938 220.371094 97.148438 C 220.179688 97.277344 219.984375 97.421875 219.894531 97.640625 C 219.347656 100.007812 219.613281 104.011719 223.109375 102.402344 C 225.1875 101.570312 227.898438 99.472656 230.191406 98.371094 C 230.574219 98.167969 231.039062 98.011719 231.050781 97.5625 C 230.914062 96.699219 230.125 93.503906 229.785156 92.730469 L 229.726562 92.683594 Z M 265.671875 117.136719 C 263.972656 117.175781 262.8125 114.257812 261.503906 113.28125 C 255.394531 107.804688 244.3125 107.113281 237.082031 110.578125 C 226.066406 116.273438 240.773438 140.015625 244.746094 149.058594 C 247.152344 153.863281 272.21875 151.5 277.800781 151.089844 C 278.53125 151.03125 279.449219 150.90625 279.976562 150.503906 C 280.796875 149.890625 280.730469 148.6875 280.777344 147.675781 C 280.84375 144.464844 282.769531 141.363281 285.140625 139.324219 C 286.066406 138.492188 286.917969 137.78125 287.1875 136.542969 C 288.554688 129.613281 289.835938 121.769531 290.246094 115.328125 C 289.609375 103.65625 271.992188 108.496094 267.191406 115.4375 C 266.773438 115.984375 266.335938 116.832031 265.789062 117.09375 L 265.679688 117.136719 Z M 290.828125 138.6875 C 286.476562 137.527344 282.171875 144.085938 281.46875 147.546875 C 281.410156 147.921875 281.589844 148.152344 282.007812 148.046875 C 282.4375 147.941406 282.886719 147.570312 283.277344 147.316406 C 284.15625 146.667969 285.277344 146.648438 286.554688 146.511719 C 288.027344 146.433594 289.230469 145.949219 289.730469 144.582031 C 290.136719 143.457031 289.472656 142.535156 289.765625 141.351562 C 289.824219 140.503906 290.820312 139.3125 290.878906 138.777344 L 290.832031 138.695312 Z M 302.535156 147.410156 C 302.824219 146.339844 302.828125 144.375 301.851562 143.585938 C 301.1875 142.992188 299.949219 142.746094 298.773438 142.035156 C 296.875 140.542969 292.566406 137.949219 291.105469 141.148438 C 290.851562 141.910156 291.289062 142.085938 291.933594 141.984375 C 293.386719 141.710938 295.058594 142.609375 295.347656 143.957031 C 295.449219 144.386719 295.496094 144.863281 295.699219 145.257812 C 296.207031 146.027344 297.273438 147.117188 297.757812 147.683594 C 298.089844 148.046875 299.378906 147.820312 300.164062 147.800781 C 300.835938 147.707031 302.101562 147.824219 302.472656 147.492188 L 302.535156 147.402344 Z M 290.75 152.191406 C 290.878906 151.863281 290.613281 151.234375 290.695312 150.640625 C 290.828125 149.1875 291.652344 147.773438 292.394531 146.550781 C 293.019531 145.332031 293.980469 144.554688 293.703125 143.578125 C 293.144531 143.179688 292.03125 143.160156 291.535156 143.675781 C 291.210938 144.023438 291.074219 144.582031 290.832031 145.050781 C 290.003906 146.289062 289.007812 147.792969 288.683594 149.742188 C 288.242188 151.5 289.085938 153.121094 290.671875 152.3125 Z M 294.980469 146.300781 C 294.097656 146.398438 293.429688 146.863281 293.925781 147.863281 C 294.441406 148.894531 294.726562 149.773438 294.765625 150.980469 C 295.074219 151.0625 295.875 150.992188 296.246094 151.011719 C 296.675781 151.011719 296.757812 151.03125 296.699219 150.875 C 296.265625 149.722656 295.59375 147.332031 295.105469 146.300781 Z M 286.996094 147.703125 C 285.324219 147.167969 283.464844 148.523438 282.996094 149.898438 C 282.292969 151.390625 282.90625 153.234375 283.324219 154.859375 C 283.277344 157.410156 283.699219 159.929688 286.378906 160.582031 C 288.019531 161.179688 289.554688 160.203125 289.6875 158.515625 C 289.757812 157.578125 289.191406 156.808594 288.78125 155.734375 C 287.933594 153.480469 287.832031 150.972656 287.480469 148.628906 C 287.421875 148.347656 287.355469 147.980469 287.128906 147.800781 L 286.988281 147.703125 Z M 293.582031 152.332031 C 293.4375 151.761719 293.175781 150.671875 293.007812 149.976562 C 292.859375 149.53125 292.878906 149.089844 292.742188 149.214844 C 291.476562 150.457031 291.601562 151.917969 293.503906 152.320312 L 293.582031 152.320312 Z M 297.933594 156.945312 C 302.554688 157.011719 305.675781 147.351562 298.675781 149.117188 C 297.945312 149.566406 298.207031 150.289062 297.875 150.925781 C 297.703125 151.550781 296.882812 151.667969 296.855469 152.085938 C 296.988281 152.90625 297.984375 154.007812 298.089844 154.945312 C 298.296875 155.511719 297.917969 156.40625 297.886719 156.855469 L 297.933594 156.9375 Z M 289.945312 154 C 289.496094 156.816406 293.253906 157.011719 295.242188 156.632812 C 295.699219 156.535156 296.316406 156.390625 296.550781 155.957031 C 297 155.15625 296.140625 153.675781 295.796875 152.613281 L 295.601562 152.425781 C 295.328125 152.371094 294.820312 152.882812 294.375 152.992188 C 293 153.546875 291.378906 153.140625 290.042969 153.859375 L 289.953125 153.996094 Z M 298.734375 158.546875 C 296.640625 157.878906 294.089844 157.785156 291.855469 157.558594 C 291.59375 157.558594 290.871094 158.964844 290.96875 159.113281 C 291.242188 159.207031 294.050781 159.480469 295.289062 159.640625 C 296.054688 159.734375 295.835938 159.761719 296.855469 159.375 C 297.671875 159.042969 298.84375 158.671875 298.785156 158.585938 L 298.734375 158.542969 Z M 289.984375 174.636719 C 289.613281 171.375 289.789062 167.6875 290.0625 164.300781 C 290.082031 163.851562 290.109375 163.375 289.90625 163.113281 C 289.53125 162.867188 288.734375 164.445312 288.515625 164.996094 C 285.140625 173.355469 286.449219 180.625 290.34375 188.5 C 293.640625 194.660156 292.96875 202.324219 290.984375 209.476562 C 290.058594 213.101562 285.675781 219.675781 282.425781 214.671875 C 281.609375 213.246094 281.402344 211.207031 282.386719 209.839844 C 282.484375 209.714844 282.582031 209.625 282.710938 209.691406 C 283.101562 209.867188 282.566406 212.296875 283.265625 213.59375 C 284.996094 216.699219 287.894531 212.804688 288.671875 210.921875 C 297.945312 191.542969 279.21875 183.980469 287.167969 164.429688 C 287.433594 163.347656 287.394531 162.449219 286.925781 161.902344 C 285.871094 160.769531 283.433594 161.160156 281.902344 161.414062 C 267.933594 164.167969 253.246094 164.15625 239.289062 161.433594 C 237.53125 161.246094 236.285156 162.164062 235.304688 163.570312 C 203.105469 206.894531 187.519531 263.867188 192.785156 317.613281 C 192.9375 319.066406 193.355469 320.15625 194.917969 320.03125 C 198.5 319.203125 202.105469 319.308594 205.703125 319.414062 C 210.15625 318.644531 214.730469 318.808594 219.105469 319.398438 C 220.207031 319.425781 221.339844 319.28125 222.441406 319.125 C 226.753906 318.277344 230.222656 319.710938 234.292969 320.683594 C 237.023438 321.25 240.15625 320.039062 242.480469 319.746094 C 244.949219 319.398438 247.488281 320 250.042969 320.304688 C 253.058594 320.746094 256.164062 319.671875 258.867188 319.496094 C 261.972656 319.296875 265.082031 320.273438 268.148438 319.367188 C 271.351562 318.644531 274.011719 318.667969 277.539062 319.476562 C 279.136719 319.808594 280.824219 319.925781 282.425781 319.660156 C 287.636719 318.371094 292.589844 318.726562 297.59375 320.804688 C 300.855469 321.828125 304.222656 320.890625 307.539062 320.746094 C 312.4375 320.480469 317.09375 322.929688 322.015625 322.917969 C 324.394531 323.054688 326.882812 322.394531 329.238281 322.980469 C 330.894531 323.367188 332.457031 324.082031 334.125 324.402344 C 336.011719 324.84375 337.972656 324.480469 339.84375 325.058594 C 341.074219 325.398438 342.238281 326.160156 343.445312 326.507812 C 345.308594 327 345.351562 325.359375 345.332031 323.894531 C 344.035156 266.570312 332.886719 207.007812 294.234375 163.089844 C 292.683594 161.324219 291.816406 161.523438 291.621094 163.894531 C 291.359375 168.273438 290.238281 175.5625 293.535156 178.695312 C 294.324219 179.320312 295.664062 179.328125 296.246094 178.546875 C 296.609375 178.0625 296.414062 177.414062 296.402344 176.964844 C 296.324219 175.894531 297.828125 176.742188 297.976562 177.414062 C 298.425781 178.917969 297.019531 180.492188 295.554688 180.753906 C 292.605469 181.347656 290.375 177.632812 290.019531 174.832031 L 289.984375 174.625 Z M 305.585938 194.464844 C 304.964844 194.277344 305.585938 196.402344 305.878906 197.027344 C 319.171875 230.914062 325.046875 268.308594 327.382812 304.488281 C 327.5 306.285156 327.578125 306.304688 327.632812 304.515625 C 328.191406 267.933594 320.355469 228.410156 305.65625 194.5 L 305.589844 194.464844 Z M 252.550781 187.183594 C 252.222656 186.871094 250.324219 189.683594 249.851562 190.722656 C 247.214844 195.777344 245.867188 203.046875 244.492188 208.949219 C 238.164062 232.671875 235.160156 257.546875 235.773438 282.003906 C 235.796875 282.84375 235.832031 283.410156 235.882812 283.410156 C 238.566406 252.03125 240.945312 217.722656 252.570312 187.214844 L 252.550781 187.175781 Z M 265.222656 308.578125 C 262.671875 281.332031 261.277344 252.96875 267.621094 226.027344 C 267.828125 225.042969 267.894531 224.476562 267.738281 224.535156 C 260.230469 236.945312 259.335938 297.246094 265.210938 308.644531 Z M 241.125 166.320312 C 225.46875 180.839844 212.925781 222.664062 208.703125 244.226562 C 208.742188 244.304688 208.933594 243.816406 209.210938 243.003906 C 217.640625 217.324219 225.109375 188.980469 241.125 166.359375 Z M 290.265625 262.625 C 287.816406 262.355469 291.453125 275.273438 291.691406 277.714844 C 292.996094 289.34375 292.753906 301.738281 292.402344 313.515625 C 292.429688 314.476562 292.648438 315.320312 293.039062 314.476562 C 295.390625 297.753906 294.214844 279.039062 290.324219 262.695312 Z M 269.4375 316.019531 C 269.054688 315.914062 268.34375 316.023438 267.835938 316.109375 C 263.179688 316.984375 258.359375 315.09375 253.730469 316.714844 C 249.878906 317.601562 245.917969 314.886719 241.960938 315.710938 C 240.652344 315.941406 239.359375 316.304688 238.03125 316.429688 C 235.589844 317.183594 228.671875 313.984375 227.675781 316.234375 C 227.617188 316.734375 228.867188 317.09375 229.527344 317.113281 C 232.9375 317.296875 236.246094 318.46875 239.554688 317.847656 C 240.839844 317.613281 242.128906 317.308594 243.445312 317.320312 C 247.925781 317.523438 251.9375 319.066406 256.253906 317.796875 C 260.417969 316.519531 264.222656 319.035156 268.226562 317.101562 C 268.605469 316.929688 269.222656 316.625 269.457031 316.378906 C 269.5625 316.226562 269.679688 316.179688 269.507812 316.039062 L 269.4375 316.011719 Z M 335.550781 319.835938 C 335.1875 319.707031 334.457031 319.789062 333.941406 319.835938 C 328.855469 320.382812 324.128906 316.527344 319.054688 318.433594 C 315.296875 319.230469 312.144531 316.304688 308.152344 316.109375 C 305.878906 315.953125 303.667969 317.261719 301.683594 317.648438 C 300.121094 318.042969 298.382812 317.785156 296.824219 317.894531 C 295.332031 318.316406 297.886719 319.542969 299.183594 319.496094 C 301.613281 319.652344 303.824219 318.226562 306.15625 317.757812 C 309.851562 316.996094 313.171875 319.535156 316.351562 320.078125 C 317.777344 320.3125 319.300781 319.875 320.714844 319.5625 C 325.144531 318.433594 328.183594 321.730469 333.347656 320.839844 C 333.960938 320.765625 335.777344 320.324219 335.617188 319.863281 L 335.558594 319.828125 Z M 315.972656 277.917969 C 316.1875 277.792969 316.136719 276.734375 316.0625 276.261719 C 314.460938 264.246094 314.253906 246.714844 306.761719 237.65625 C 310.859375 249.746094 313.160156 263.046875 315.054688 275.703125 C 315.164062 276.328125 315.496094 277.828125 315.925781 277.9375 Z M 290.332031 316.234375 C 290.214844 316.050781 289.707031 316.019531 289.183594 315.914062 C 288.175781 315.691406 287.226562 315.210938 286.203125 315.042969 C 284.035156 314.695312 281.753906 316.605469 279.316406 315.980469 C 278.269531 315.824219 277.078125 315.433594 276.046875 315.484375 C 274.726562 315.609375 275.089844 316.671875 276.113281 316.898438 C 279.078125 317.726562 282.007812 317.6875 284.90625 316.789062 C 286.109375 316.410156 287.324219 316.90625 288.527344 317.054688 C 289.121094 317.199219 290.375 316.808594 290.363281 316.3125 Z M 236.585938 306.695312 C 236.796875 303.003906 236.585938 296.898438 236.660156 292.90625 C 236.601562 292.019531 236.847656 291.140625 236.332031 291.589844 C 234.738281 292.976562 234.359375 307.171875 236.546875 306.730469 Z M 207.21875 317.238281 C 205.238281 317.015625 202.515625 316.515625 199.992188 316.03125 C 197.601562 315.667969 195.359375 315.816406 194.292969 317.5625 C 193.359375 319.054688 197.691406 317.171875 198.304688 317.210938 C 200.871094 316.527344 205.023438 319.953125 207.226562 317.308594 L 207.214844 317.238281 Z M 224.464844 316.128906 C 223.085938 315.59375 220.839844 316.832031 219.289062 316.546875 C 216.890625 316.257812 212.382812 314.097656 211.003906 316.304688 C 210.605469 316.917969 211.25 316.945312 211.699219 316.847656 C 215.679688 316.03125 221.203125 319.75 224.484375 316.207031 L 224.464844 316.121094 Z M 209.285156 249.535156 C 207.546875 249.066406 206.457031 256.765625 207.472656 257.964844 C 208.09375 255.75 208.917969 251.707031 209.328125 249.570312 Z M 342.761719 320.761719 C 341.660156 320.863281 339.082031 320.878906 338.058594 321.058594 C 339.152344 322.179688 341.933594 322.375 342.742188 320.820312 L 342.761719 320.765625 Z M 250.796875 145.316406 C 249.390625 143.917969 248.550781 140.816406 247.914062 138.757812 C 247.515625 137.46875 246.578125 133.898438 246.0625 136.835938 C 245.75 139.847656 248.601562 144.804688 250.425781 146.660156 C 252.367188 148.121094 255.929688 149.433594 258.125 149.03125 C 259.296875 148.707031 259.003906 148.203125 258.144531 148.046875 C 255.746094 147.578125 252.269531 146.738281 250.921875 145.433594 Z M 257.480469 129.464844 C 258.078125 128.921875 257.3125 127.964844 256.476562 126.492188 C 254.335938 123.328125 250.890625 118.871094 247.484375 117.046875 C 246.347656 116.394531 245.164062 117.242188 246.191406 118.101562 C 249.527344 120.558594 254.726562 124.375 256.367188 128.578125 C 256.527344 128.992188 256.980469 129.574219 257.382812 129.496094 Z M 284.640625 136.101562 C 285.230469 132.316406 286.304688 124.929688 286.722656 120.929688 C 284.253906 122.46875 283.324219 133.742188 284.613281 136.082031 Z M 284.640625 136.101562 " fill-opacity="1" fill-rule="nonzero"/></svg>