<svg xmlns="http://www.w3.org/2000/svg" xmlns:xlink="http://www.w3.org/1999/xlink" width="500" zoomAndPan="magnify" viewBox="0 0 375 374.999991" height="500" preserveAspectRatio="xMidYMid meet" version="1.0"><defs><clipPath id="20545819bb"><path d="M 20.710938 20.710938 L 354.460938 20.710938 L 354.460938 354.460938 L 20.710938 354.460938 Z M 20.710938 20.710938 " clip-rule="nonzero"/></clipPath></defs><g clip-path="url(#20545819bb)"><path fill="#000000" d="M 187.585938 354.417969 C 95.566406 354.417969 20.710938 279.5625 20.710938 187.625 C 20.710938 95.609375 95.566406 20.75 187.585938 20.75 C 279.601562 20.75 354.460938 95.609375 354.460938 187.625 C 354.378906 279.5625 279.519531 354.417969 187.585938 354.417969 Z M 187.585938 37.332031 C 104.6875 37.332031 37.289062 104.726562 37.289062 187.625 C 37.289062 270.523438 104.6875 337.921875 187.585938 337.921875 C 270.484375 337.921875 337.878906 270.523438 337.878906 187.625 C 337.796875 104.726562 270.402344 37.332031 187.585938 37.332031 Z M 165.121094 260.578125 L 165.121094 114.675781 C 165.121094 111.027344 162.21875 108.125 158.570312 108.125 L 134.695312 108.125 C 131.046875 108.125 128.148438 111.027344 128.148438 114.675781 L 128.148438 260.578125 C 128.148438 264.226562 131.046875 267.125 134.695312 267.125 L 158.570312 267.125 C 162.21875 267.125 165.121094 264.140625 165.121094 260.578125 Z M 246.859375 260.578125 L 246.859375 114.675781 C 246.859375 111.027344 243.957031 108.125 240.308594 108.125 L 216.433594 108.125 C 212.785156 108.125 209.882812 111.027344 209.882812 114.675781 L 209.882812 260.578125 C 209.882812 264.226562 212.785156 267.125 216.433594 267.125 L 240.390625 267.125 C 243.957031 267.125 246.859375 264.140625 246.859375 260.578125 Z M 246.859375 260.578125 " fill-opacity="1" fill-rule="nonzero"/></g></svg>