<svg xmlns="http://www.w3.org/2000/svg" xmlns:xlink="http://www.w3.org/1999/xlink" width="500" zoomAndPan="magnify" viewBox="0 0 375 374.999991" height="500" preserveAspectRatio="xMidYMid meet" version="1.0"><defs><clipPath id="c16960dfe7"><path d="M 23.976562 23.976562 L 350.976562 23.976562 L 350.976562 350.976562 L 23.976562 350.976562 Z M 23.976562 23.976562 " clip-rule="nonzero"/></clipPath></defs><path fill="#000000" d="M 268.144531 179.714844 L 141.4375 106.5625 C 135.15625 102.933594 127.300781 107.46875 127.300781 114.726562 L 127.300781 261.03125 C 127.300781 267.667969 134.488281 271.820312 140.238281 268.5 L 268.144531 194.652344 C 273.894531 191.335938 273.894531 183.035156 268.144531 179.714844 " fill-opacity="1" fill-rule="nonzero"/><g clip-path="url(#c16960dfe7)"><path fill="#000000" d="M 287.03125 287.03125 C 260.441406 313.625 225.082031 328.269531 187.476562 328.269531 C 149.871094 328.269531 114.511719 313.625 87.921875 287.03125 C 61.328125 260.441406 46.683594 225.082031 46.683594 187.476562 C 46.683594 149.871094 61.328125 114.511719 87.921875 87.921875 C 114.511719 61.328125 149.871094 46.683594 187.476562 46.683594 C 225.082031 46.683594 260.441406 61.328125 287.03125 87.921875 C 313.625 114.511719 328.269531 149.871094 328.269531 187.476562 C 328.269531 225.082031 313.625 260.441406 287.03125 287.03125 Z M 187.476562 23.976562 C 97.179688 23.976562 23.976562 97.179688 23.976562 187.476562 C 23.976562 277.773438 97.179688 350.976562 187.476562 350.976562 C 277.773438 350.976562 350.976562 277.773438 350.976562 187.476562 C 350.976562 97.179688 277.773438 23.976562 187.476562 23.976562 " fill-opacity="1" fill-rule="nonzero"/></g></svg>